<?xml version="1.0" encoding="UTF-8"?>
<svg version="1.1" xmlns="http://www.w3.org/2000/svg" width="396" height="396">
<path d="M0 0 C130.68 0 261.36 0 396 0 C396 130.68 396 261.36 396 396 C265.32 396 134.64 396 0 396 C0 265.32 0 134.64 0 0 Z " fill="#FDFCFC" transform="translate(0,0)"/>
<path d="M0 0 C27.06 0 54.12 0 82 0 C82 27.06 82 54.12 82 82 C108.4 82 134.8 82 162 82 C162 108.4 162 134.8 162 162 C135.6 162 109.2 162 82 162 C82 189.06 82 216.12 82 244 C54.94 244 27.88 244 0 244 C0 163.48 0 82.96 0 0 Z " fill="#EA5C56" transform="translate(114,32)"/>
<path d="M0 0 C26.4 0 52.8 0 80 0 C80 26.4 80 52.8 80 80 C53.6 80 27.2 80 0 80 C0 53.6 0 27.2 0 0 Z " fill="#EA5C56" transform="translate(196,276)"/>
<path d="M0 0 C27.06 0 54.12 0 82 0 C82 27.06 82 54.12 82 82 C108.4 82 134.8 82 162 82 C162 108.4 162 134.8 162 162 C135.6 162 109.2 162 82 162 C82 189.06 82 216.12 82 244 C54.94 244 27.88 244 0 244 C0 163.48 0 82.96 0 0 Z M4 4 C3.8873736 6.94449821 3.84055993 9.86611118 3.83505249 12.81156921 C3.82940895 13.74740729 3.8237654 14.68324536 3.81795084 15.64744216 C3.80013701 18.80882005 3.7895029 21.97018237 3.77880859 25.1315918 C3.76760039 27.38798732 3.75596849 29.64438078 3.74394226 31.90077209 C3.71252022 38.04966494 3.68744685 44.19856892 3.6637454 50.34749579 C3.63821142 56.77227068 3.60786052 63.19702312 3.57827759 69.6217804 C3.52624402 81.11128504 3.47926922 92.6008025 3.4342391 104.09033612 C3.39327497 114.50548013 3.34701535 124.92058963 3.296875 135.33569336 C3.23868508 147.42330044 3.18395582 159.5109138 3.13427413 171.59855968 C3.10795788 177.99942625 3.08023756 184.40027852 3.0489006 190.80112267 C3.01963617 196.82317482 2.99538222 202.84522673 2.97500038 208.86731529 C2.9666939 211.07884452 2.95663785 213.29036797 2.94471169 215.50188065 C2.92872432 218.51909579 2.91904921 221.53626736 2.91098022 224.55351257 C2.90485855 225.43027151 2.89873688 226.30703045 2.89242971 227.21035784 C2.88770722 231.59233551 3.11458845 235.6850195 4 240 C8.31872472 240.82335639 12.40584814 241.1309593 16.79980469 241.14526367 C17.45095749 241.14862228 18.10211029 241.1519809 18.772995 241.15544128 C20.90597483 241.16487195 23.03887567 241.16688967 25.171875 241.16796875 C26.6606652 241.17118428 28.14945509 241.17454857 29.63824463 241.17805481 C32.74825779 241.18402445 35.85824324 241.18589669 38.96826172 241.18530273 C42.95873532 241.18520065 46.94903285 241.19891014 50.93946457 241.21607494 C54.00887882 241.22716863 57.07824993 241.22922284 60.14768219 241.22869301 C61.61972924 241.2298749 63.09177733 241.23430834 64.56380463 241.24202538 C66.61525572 241.25178245 68.66631656 241.24896574 70.71777344 241.24291992 C72.46933746 241.24505745 72.46933746 241.24505745 74.25628662 241.24723816 C77.14484235 241.28235265 77.14484235 241.28235265 79 239 C79.18774479 236.53034964 79.25193694 234.17434437 79.22705078 231.70458984 C79.22741239 230.55937079 79.22741239 230.55937079 79.2277813 229.39101601 C79.22628587 226.91420553 79.21104285 224.43769428 79.1953125 221.9609375 C79.19237277 220.43400213 79.1903319 218.90706474 79.18920898 217.38012695 C79.17871351 211.71172061 79.1507912 206.04335738 79.125 200.375 C79.08375 187.71125 79.0425 175.0475 79 162 C106.06 161.67 133.12 161.34 161 161 C161 135.26 161 109.52 161 83 C155.23660156 82.93941406 149.47320312 82.87882812 143.53515625 82.81640625 C139.89387234 82.77593314 136.25259631 82.73517079 132.61132812 82.69335938 C126.82595426 82.62695572 121.04058204 82.56164994 115.25512695 82.50268555 C110.59317516 82.45510493 105.93129933 82.40276467 101.26943779 82.34705925 C99.48677895 82.32660704 97.70409925 82.3078988 95.92140388 82.29092598 C93.43328399 82.26694514 90.94530902 82.2368824 88.45727539 82.20532227 C87.34057968 82.19668907 87.34057968 82.19668907 86.20132446 82.18788147 C81.11405216 82.11405216 81.11405216 82.11405216 80 81 C79.87510302 78.59749468 79.8139921 76.22227215 79.79467773 73.81811523 C79.78477814 73.06694427 79.77487854 72.31577332 79.76467896 71.5418396 C79.73297454 69.04745688 79.70827141 66.55305509 79.68359375 64.05859375 C79.66303193 62.33365877 79.64203567 60.60872892 79.62062073 58.88380432 C79.56532029 54.33493186 79.51594631 49.78601333 79.46777344 45.23706055 C79.41761646 40.59875367 79.36190017 35.96051402 79.30664062 31.32226562 C79.19896161 22.21490112 79.09753843 13.10747835 79 4 C74.98308493 3.04525857 71.23814428 2.87331328 67.11425781 2.87060547 C66.4421376 2.86885315 65.7700174 2.86710083 65.07752991 2.86529541 C62.86936822 2.86091529 60.66128741 2.86379996 58.453125 2.8671875 C56.9156696 2.86651367 55.37821431 2.86554299 53.84075928 2.86428833 C50.62641378 2.86281684 47.41209615 2.86494947 44.19775391 2.86962891 C40.06931994 2.87534512 35.94095071 2.87203182 31.81251907 2.86605644 C28.64192207 2.86245239 25.47134056 2.86358836 22.3007431 2.86618423 C20.77763613 2.86685294 19.25452777 2.86602702 17.73142242 2.86370468 C15.61029799 2.86117864 13.48928048 2.86501712 11.36816406 2.87060547 C10.15968811 2.87140106 8.95121216 2.87219666 7.70611572 2.87301636 C5.08382653 2.69177838 5.08382653 2.69177838 4 4 Z " fill="#DC7573" transform="translate(114,32)"/>
<path d="M0 0 C27.06 0.33 54.12 0.66 82 1 C83.54758217 4.09516435 83.1295989 7.35856074 83.11352539 10.75439453 C83.11367142 11.55447937 83.11381744 12.35456421 83.1139679 13.17889404 C83.1132698 15.83022753 83.10548221 18.48149125 83.09765625 21.1328125 C83.0957917 22.96841392 83.09436797 24.80401583 83.09336853 26.63961792 C83.08954623 31.47623055 83.07971839 36.31281327 83.06866455 41.14941406 C83.05664805 46.94969565 83.05204682 52.74998724 83.04621124 58.55027771 C83.0365065 67.36687263 83.01734792 76.18340187 83 85 C109.07 85 135.14 85 162 85 C162 85.33 162 85.66 162 86 C135.6 86 109.2 86 82 86 C82 58.94 82 31.88 82 4 C54.94 4 27.88 4 0 4 C0 84.52 0 165.04 0 248 C27.06 248 54.12 248 82 248 C82 274.4 82 300.8 82 328 C108.4 328 134.8 328 162 328 C162 329.32 162 330.64 162 332 C135.6 331.67 109.2 331.34 82 331 C81.505 329.515 81.505 329.515 81 328 C80.34 328 79.68 328 79 328 C78.99191315 327.0795842 78.98382629 326.1591684 78.97549438 325.21086121 C78.89760758 316.54386501 78.81033487 307.87702541 78.71247292 299.21023083 C78.66249138 294.75436209 78.61616156 290.29851728 78.578125 285.8425293 C78.54129558 281.5435965 78.49494213 277.24486296 78.44193649 272.94610023 C78.42338005 271.30466514 78.40827671 269.66318731 78.39665604 268.02168846 C78.37981479 265.72543231 78.35078558 263.42963373 78.31884766 261.13354492 C78.30552399 259.82560471 78.29220032 258.51766449 78.2784729 257.17008972 C78.2416184 253.84268522 78.2416184 253.84268522 76 251 C73.20742638 250.5530165 73.20742638 250.5530165 69.88549805 250.64355469 C68.60043869 250.64055359 67.31537933 250.63755249 65.99137878 250.63446045 C64.5814881 250.64647036 63.17160138 250.65895355 61.76171875 250.671875 C60.3192413 250.67493285 58.8767609 250.67680877 57.4342804 250.67755127 C54.40700014 250.68215902 51.37998519 250.6965979 48.3527832 250.71875 C44.47910835 250.74695686 40.6056432 250.75795367 36.73187542 250.7624321 C33.75067561 250.76659853 30.76951787 250.7764274 27.78833961 250.78830719 C26.36064806 250.79399229 24.93295252 250.79875675 23.50525475 250.80257416 C21.50437369 250.80948102 19.50352341 250.82401751 17.50268555 250.83886719 C16.365103 250.84569519 15.22752045 250.85252319 14.0554657 250.85955811 C11.25757953 250.98816058 8.72203805 251.36300282 6 252 C6 252.66 6 253.32 6 254 C4.68 254 3.36 254 2 254 C2 252.68 2 251.36 2 250 C0.68 249.34 -0.64 248.68 -2 248 C-2.04560513 216.98393469 -2.08100898 185.96787823 -2.10213066 154.95178737 C-2.10463213 151.29175142 -2.10722077 147.63171554 -2.10986328 143.97167969 C-2.1103879 143.24301892 -2.11091252 142.51435816 -2.11145304 141.76361677 C-2.1201605 129.9584314 -2.13593234 118.15326546 -2.15430559 106.34809163 C-2.17299517 94.23886065 -2.18411473 82.12963986 -2.18817699 70.02039504 C-2.19092401 62.54569884 -2.19960662 55.07105759 -2.21583293 47.5963783 C-2.22763426 41.86903797 -2.22891373 36.141733 -2.22621536 30.41438293 C-2.22676717 28.06172598 -2.23076634 25.70906702 -2.23841095 23.35642242 C-2.24831477 20.15227125 -2.24598553 16.94835798 -2.24050903 13.74420166 C-2.24633472 12.80646164 -2.2521604 11.86872162 -2.25816262 10.90256524 C-2.25418052 10.04465253 -2.25019842 9.18673981 -2.24609566 8.30282974 C-2.2468551 7.56313454 -2.24761454 6.82343934 -2.24839699 6.06132913 C-2 4 -2 4 0 0 Z " fill="#F9E7E5" transform="translate(114,28)"/>
<path d="M0 0 C26.4 0 52.8 0 80 0 C80 26.4 80 52.8 80 80 C53.6 80 27.2 80 0 80 C0 53.6 0 27.2 0 0 Z M3.60809326 5.14450073 C1.72690921 8.48492869 1.50954613 10.45503995 1.5300293 14.27148438 C1.52710373 15.51627563 1.52417816 16.76106689 1.52116394 18.0435791 C1.53827992 19.3936434 1.55597901 20.74370042 1.57421875 22.09375 C1.57914709 23.48709648 1.58244308 24.8804496 1.58418274 26.27380371 C1.59180929 29.18909986 1.61232588 32.10390269 1.64331055 35.01904297 C1.68288428 38.74802806 1.7009221 42.4766928 1.71061993 46.20586395 C1.72061505 49.77270227 1.7404735 53.33946352 1.76171875 56.90625 C1.7651145 57.58294235 1.76851025 58.2596347 1.7720089 58.95683289 C1.7836458 60.88076701 1.80316076 62.80464857 1.82299805 64.72851562 C1.83284225 65.82151978 1.84268646 66.91452393 1.85282898 68.04064941 C1.99122026 70.8234548 2.24157941 73.31865758 3 76 C5.88996676 77.44498338 8.39221212 77.12731121 11.62109375 77.12939453 C12.30092316 77.13114685 12.98075256 77.13289917 13.68118286 77.13470459 C15.93331437 77.13911375 18.18536766 77.13618841 20.4375 77.1328125 C21.99926773 77.13348581 23.56103536 77.13445606 25.12280273 77.13571167 C28.39795936 77.13718737 31.67308873 77.13503817 34.94824219 77.13037109 C39.15177072 77.12467388 43.35523541 77.12795356 47.5587616 77.13394356 C50.78430667 77.1375526 54.00983655 77.136409 57.23538208 77.13381577 C58.7855734 77.13314745 60.33576609 77.13397161 61.88595581 77.13629532 C64.05030995 77.13882745 66.21455989 77.13497332 68.37890625 77.12939453 C69.6119751 77.12859894 70.84504395 77.12780334 72.11547852 77.12698364 C74.94190186 77.19881745 74.94190186 77.19881745 77 76 C78.12346231 72.10432267 78.12112071 68.31509716 78.11352539 64.28198242 C78.11367142 63.62776306 78.11381744 62.9735437 78.1139679 62.29949951 C78.11327494 60.15145474 78.10551164 58.00349825 78.09765625 55.85546875 C78.09578988 54.36045886 78.09436701 52.86544835 78.09336853 51.37043762 C78.08956064 47.44628189 78.07974518 43.5221635 78.06866455 39.59802246 C78.05841321 35.58944199 78.05386294 31.58085545 78.04882812 27.57226562 C78.0381213 19.71482666 78.02106572 11.85741798 78 4 C74.6063428 2.86878093 71.96778532 2.84525964 68.38891602 2.80712891 C67.72190674 2.79895142 67.05489746 2.79077393 66.36767578 2.78234863 C64.16309499 2.75755974 61.95857814 2.74099854 59.75390625 2.7265625 C59.00040327 2.72123882 58.24690029 2.71591515 57.47056389 2.71043015 C53.48486219 2.68373125 49.49919152 2.66434302 45.51342773 2.64990234 C42.21431877 2.63654365 38.91582551 2.60865241 35.61694336 2.56787109 C31.63229006 2.51861471 27.64819664 2.49379085 23.66325188 2.48667526 C22.14535342 2.47995555 20.62746781 2.46471452 19.10974312 2.44078445 C16.98598962 2.40920014 14.8644047 2.40908363 12.74047852 2.41650391 C11.53263199 2.40841705 10.32478546 2.4003302 9.08033752 2.39199829 C5.86434594 2.75435497 5.86434594 2.75435497 3.60809326 5.14450073 Z " fill="#D56F6E" transform="translate(196,276)"/>
<path d="M0 0 C1.46925502 0.01496062 2.93845769 0.0356406 4.40757751 0.06056213 C5.60748573 0.07497345 5.60748573 0.07497345 6.83163452 0.0896759 C9.48846415 0.12278415 12.14513533 0.16307106 14.80186462 0.2033844 C16.6388899 0.22767398 18.47592112 0.2515181 20.31295776 0.27493286 C25.15785975 0.33788951 30.00265712 0.40692312 34.84745789 0.47718811 C39.78728962 0.54776725 44.72719577 0.61264647 49.667099 0.67799377 C59.36705057 0.80715528 69.06690122 0.94273159 78.76670837 1.08229065 C80.31429055 4.177455 79.89630728 7.44085139 79.88023376 10.83668518 C79.88037979 11.63677002 79.88052582 12.43685486 79.88067627 13.26118469 C79.87997817 15.91251818 79.87219059 18.56378189 79.86436462 21.21510315 C79.86250008 23.05070457 79.86107635 24.88630648 79.8600769 26.72190857 C79.85625461 31.5585212 79.84642676 36.39510392 79.83537292 41.23170471 C79.82335642 47.0319863 79.81875519 52.83227789 79.81291962 58.63256836 C79.80321487 67.44916328 79.78405629 76.26569252 79.76670837 85.08229065 C105.83670837 85.08229065 131.90670837 85.08229065 158.76670837 85.08229065 C158.76670837 85.41229065 158.76670837 85.74229065 158.76670837 86.08229065 C132.36670837 86.08229065 105.96670837 86.08229065 78.76670837 86.08229065 C78.76670837 59.02229065 78.76670837 31.96229065 78.76670837 4.08229065 C51.70670837 4.08229065 24.64670837 4.08229065 -3.23329163 4.08229065 C-3.23329163 84.27229065 -3.23329163 164.46229065 -3.23329163 247.08229065 C-3.56329163 247.08229065 -3.89329163 247.08229065 -4.23329163 247.08229065 C-4.25608144 215.76036764 -4.27378951 184.43844681 -4.28435696 153.11651749 C-4.28560773 149.42257272 -4.28690205 145.72862797 -4.28822327 142.03468323 C-4.28848558 141.2992543 -4.28874789 140.56382538 -4.28901815 139.80611073 C-4.29337496 127.88250896 -4.30126257 115.95891199 -4.31044442 104.03531308 C-4.31978064 91.80970439 -4.32534717 79.58409822 -4.32738012 67.35848612 C-4.32875541 59.80856105 -4.33310634 52.25864955 -4.34120809 44.70872866 C-4.34709587 38.92920146 -4.34775067 33.14968303 -4.34639931 27.37015343 C-4.34667583 24.99205059 -4.34868349 22.61394727 -4.3524971 20.23584747 C-4.35742763 17.00443109 -4.35629229 13.77307408 -4.35354614 10.54165649 C-4.35645898 9.58739605 -4.35937183 8.63313562 -4.36237293 7.64995819 C-4.34489575 0.11058214 -4.34489575 0.11058214 0 0 Z " fill="#F0C5C5" transform="translate(117.23329162597656,27.917709350585938)"/>
<path d="M0 0 C26.07 0 52.14 0 79 0 C78.67 0.66 78.34 1.32 78 2 C77.0626149 1.99777939 76.1252298 1.99555878 75.15943909 1.99327087 C66.34478215 1.97303857 57.5301299 1.95802744 48.71545506 1.94818783 C44.18325906 1.94295922 39.65108173 1.93586199 35.11889648 1.92456055 C30.7487717 1.91373086 26.37866492 1.90772299 22.00852776 1.90512276 C20.33749037 1.90326865 18.66645403 1.89964832 16.99542427 1.89426994 C14.66302449 1.88705841 12.33070007 1.8860091 9.99829102 1.88647461 C9.3005809 1.88287933 8.60287079 1.87928406 7.88401794 1.87557983 C4.66340619 1.60937534 4.66340619 1.60937534 2 3 C1.89975778 6.03173735 1.86562128 9.04077306 1.87301636 12.07299805 C1.87145637 13.03686526 1.86989638 14.00073248 1.86828911 14.99380779 C1.86427464 18.24979329 1.86747048 21.50573283 1.87060547 24.76171875 C1.86925163 27.0853376 1.86747179 29.40895624 1.86529541 31.73257446 C1.86071905 38.06296434 1.86251147 44.393338 1.8656745 50.72372818 C1.86794175 56.66348107 1.86621565 62.60323191 1.8647473 68.54298484 C1.86189242 81.02426611 1.86517966 93.50554004 1.87054767 105.9868201 C1.87501571 116.70768843 1.87423978 127.42854593 1.86962891 138.14941406 C1.86428329 150.584546 1.86216711 163.0196715 1.86524117 175.45480442 C1.86680442 182.04273806 1.86699639 188.63066424 1.86370468 195.21859741 C1.86082722 201.41055421 1.86279934 207.60249047 1.86859894 213.79444504 C1.86992721 216.07418153 1.86953129 218.35391973 1.86733627 220.63365555 C1.8646274 223.73146146 1.86800266 226.82920038 1.87301636 229.92700195 C1.87078564 230.84167079 1.86855491 231.75633963 1.86625659 232.6987257 C1.48061893 236.66588594 1.48061893 236.66588594 3 240 C5.34258063 240.09492895 7.65542119 240.12558483 9.99829102 240.11352539 C10.74182548 240.11364593 11.48535994 240.11376646 12.25142574 240.11389065 C14.66894921 240.11314159 17.0863965 240.10551371 19.50390625 240.09765625 C20.99214643 240.09618681 22.48038713 240.09516611 23.96862793 240.09460449 C29.49992648 240.08935187 35.03121398 240.07539078 40.5625 240.0625 C52.916875 240.041875 65.27125 240.02125 78 240 C78.33 213.93 78.66 187.86 79 161 C79.33 161 79.66 161 80 161 C80 187.73 80 214.46 80 242 C53.6 242 27.2 242 0 242 C0 162.14 0 82.28 0 0 Z " fill="#CF6969" transform="translate(115,33)"/>
<path d="M0 0 C26.73 0 53.46 0 81 0 C81 26.4 81 52.8 81 80 C107.4 80 133.8 80 161 80 C161 81.32 161 82.64 161 84 C150.58649839 83.89266594 140.17306851 83.78006717 129.75969791 83.66066074 C124.92486463 83.60538873 120.09002535 83.55196203 115.25512695 83.50268555 C110.59317516 83.45510493 105.93129933 83.40276467 101.26943779 83.34705925 C99.48677895 83.32660704 97.70409925 83.3078988 95.92140388 83.29092598 C93.43328399 83.26694514 90.94530902 83.2368824 88.45727539 83.20532227 C87.34057968 83.19668907 87.34057968 83.19668907 86.20132446 83.18788147 C81.11405216 83.11405216 81.11405216 83.11405216 80 82 C79.90495749 79.47458998 79.87442842 76.97662874 79.88647461 74.45092773 C79.88632858 73.66074249 79.88618256 72.87055725 79.8860321 72.056427 C79.88673143 69.43212178 79.89452473 66.80788664 79.90234375 64.18359375 C79.90420786 62.36898335 79.9056318 60.55437244 79.90663147 58.73976135 C79.91045721 53.9540977 79.92028796 49.1684642 79.93133545 44.3828125 C79.9433427 38.64596429 79.94795154 32.90910601 79.95378876 27.17224884 C79.96349969 18.4481449 79.98265585 9.72410716 80 1 C53.6 1 27.2 1 0 1 C0 0.67 0 0.34 0 0 Z " fill="#F1CBC7" transform="translate(115,276)"/>
<path d="M0 0 C1.32 0.33 2.64 0.66 4 1 C3.34 1 2.68 1 2 1 C1.67 26.41 1.34 51.82 1 78 C3.97 77.505 3.97 77.505 7 77 C9.39839036 76.91559248 11.79885908 76.88220438 14.19873047 76.88647461 C15.23879997 76.88625557 15.23879997 76.88625557 16.29988098 76.8860321 C18.57234926 76.88672404 20.84473369 76.8944825 23.1171875 76.90234375 C24.70044917 76.90421049 26.28371142 76.90563318 27.86697388 76.90663147 C32.01962906 76.91043651 36.17224886 76.92024949 40.32489014 76.93133545 C44.56815106 76.94159297 48.81141773 76.94613837 53.0546875 76.95117188 C61.36980784 76.96187367 69.68489951 76.97892576 78 77 C78.33 77.99 78.66 78.98 79 80 C52.93 80 26.86 80 0 80 C0 53.6 0 27.2 0 0 Z " fill="#FAF0EC" transform="translate(197,195)"/>
<path d="M0 0 C0.8353125 0.556875 0.8353125 0.556875 1.6875 1.125 C0.0375 1.455 -1.6125 1.785 -3.3125 2.125 C-3.3125 2.785 -3.3125 3.445 -3.3125 4.125 C-4.6325 4.125 -5.9525 4.125 -7.3125 4.125 C-7.3125 3.135 -7.3125 2.145 -7.3125 1.125 C-2.88173077 -1.09038462 -2.88173077 -1.09038462 0 0 Z " fill="#F9F8F2" transform="translate(123.3125,277.875)"/>
</svg>
