<?xml version="1.0" encoding="UTF-8"?>
<svg xmlns="http://www.w3.org/2000/svg" viewBox="0 0 500 500" width="500" height="500">
  <defs>
    <filter id="markInvert" color-interpolation-filters="sRGB" x="-5%" y="-5%" width="110%" height="110%">
      <feColorMatrix
        in="SourceGraphic"
        type="matrix"
        values="-1 0 0 0 1
                0 -1 0 0 1
                0 0 -1 0 1
                0 0 0 1 0"
      />
    </filter>
  </defs>
  <circle cx="250" cy="250" r="250" fill="#0D0D0D" />
  <g filter="url(#markInvert)">
    <path d="M0 0 C0 0.66 0 1.32 0 2 C0.680625 2.165 1.36125 2.33 2.0625 2.5 C6.39632353 4.71301627 8.97802936 8.25519489 12 12 C12.46148437 11.49210937 12.92296875 10.98421875 13.3984375 10.4609375 C22.52576204 0.82854362 33.70319247 -5.32394698 47.09375 -6.203125 C63.19222722 -6.42466368 74.99282148 -3.05589021 86.625 8.25 C91 12.69230769 91 12.69230769 91 15 C93.90806717 12.63296859 96.64538268 10.38501309 99.1875 7.625 C111.02878661 -3.42686751 124.35358409 -6.29126371 140.11328125 -6.15234375 C158.46450806 -5.43304943 172.26527849 1.99782877 185 15 C199.79410645 32.02767492 203.17843324 52.28849976 202.20703125 74.11035156 C200.99774975 90.98895521 194.04075702 106.98257778 182 119 C180.515 119.495 180.515 119.495 179 120 C179 120.66 179 121.32 179 122 C165.02653845 133.09233546 147.94252094 138.60937569 130.07910156 137.25878906 C120.08704632 136.01506213 110.91153332 132.20191462 103 126 C102.01 125.34 101.02 124.68 100 124 C99.67 149.41 99.34 174.82 99 201 C83.49 201 67.98 201 52 201 C51.97812622 194.28450806 51.97812622 194.28450806 51.95581055 187.43334961 C51.90549665 172.64920404 51.83905744 157.86516354 51.76428509 143.0811224 C51.71934053 134.11667495 51.67992276 125.1522671 51.65356445 116.18774414 C51.63057353 108.37326435 51.59716326 100.55891003 51.55129844 92.74452978 C51.52738095 88.60776862 51.50864253 84.47113161 51.50238609 80.3343029 C51.49632854 76.43791311 51.47630467 72.54184095 51.44572449 68.64556885 C51.43695498 67.21819326 51.43321943 65.79077614 51.43499184 64.36337471 C51.66197349 52.99268714 51.66197349 52.99268714 46.46484375 43.2578125 C40.75916831 39.02598161 37.08274355 38.11077964 30 39 C26.79332805 40.1494603 24.28810443 41.4635332 22 44 C19.53510485 49.62312768 18.55545633 54.15177846 18.56762695 60.25195312 C18.5574353 61.03340698 18.54724365 61.81486084 18.53674316 62.61999512 C18.50682237 65.17382165 18.49737965 67.72727186 18.48828125 70.28125 C18.47141899 72.06344834 18.45326668 73.84563491 18.43388367 75.62780762 C18.38654538 80.29659341 18.35663169 84.96533141 18.33044434 89.63427734 C18.30055689 94.40732252 18.25405481 99.18020332 18.20898438 103.953125 C18.12313542 113.30199706 18.05570859 122.65090312 18 132 C11.75204325 132.02527124 5.50409959 132.04283344 -0.74389648 132.05493164 C-2.87118014 132.05997298 -4.99846031 132.06680591 -7.12573242 132.07543945 C-10.17627826 132.08751379 -13.22677845 132.09323014 -16.27734375 132.09765625 C-17.71327126 132.10539818 -17.71327126 132.10539818 -19.1782074 132.11329651 C-20.49946373 132.11340981 -20.49946373 132.11340981 -21.84741211 132.11352539 C-22.62684677 132.115746 -23.40628143 132.11796661 -24.20933533 132.12025452 C-26 132 -26 132 -27 131 C-27.10380607 128.44569512 -27.14361597 125.91755076 -27.1418457 123.36254883 C-27.14532013 122.5624942 -27.14879456 121.76243958 -27.15237427 120.93814087 C-27.15974563 119.19423434 -27.16508362 117.45031835 -27.16866493 115.70639992 C-27.17581294 112.94478825 -27.19146823 110.18335608 -27.21000671 107.42179871 C-27.26254498 99.56760164 -27.31043334 91.71349973 -27.32592773 83.85913086 C-27.336018 79.05969011 -27.36537391 74.26069578 -27.40724754 69.4614315 C-27.41955277 67.63268094 -27.42467967 65.80386728 -27.42244911 63.97507668 C-27.42009216 61.41104301 -27.44229315 58.84828492 -27.4699707 56.28442383 C-27.46336929 55.53145523 -27.45676788 54.77848663 -27.44996643 54.00270081 C-27.54067697 48.87205996 -28.76157099 45.95038111 -32 42 C-36.92209125 38.48422053 -42.13900799 38.09611325 -48 39 C-50.32989942 40.10288272 -51.96622292 41.37297833 -54 43 C-54.66 43 -55.32 43 -56 43 C-57.6905986 48.14660338 -58.29860233 52.78687311 -58.30297852 58.21435547 C-58.31563751 59.39853813 -58.31563751 59.39853813 -58.32855225 60.60664368 C-58.35416467 63.19349828 -58.36642759 65.78023928 -58.37890625 68.3671875 C-58.39509133 70.1708363 -58.41227238 71.97447641 -58.43040466 73.77810669 C-58.4759489 78.5089925 -58.51083815 83.23988999 -58.54260254 87.97088623 C-58.59462887 95.56433611 -58.65946382 103.15765939 -58.73081779 110.75094986 C-58.7537032 113.40612894 -58.76993383 116.06129161 -58.78553772 118.71652222 C-58.79893619 120.33168729 -58.81255027 121.94685059 -58.82641602 123.56201172 C-58.83033607 124.67623756 -58.83033607 124.67623756 -58.83433533 125.81297302 C-58.88635443 130.88635443 -58.88635443 130.88635443 -60 132 C-75.51 132 -91.02 132 -107 132 C-107 87.45 -107 42.9 -107 -3 C-91.16 -3 -75.32 -3 -59 -3 C-58.505 3.435 -58.505 3.435 -58 10 C-56.68 8.68 -55.36 7.36 -54 6 C-53.34 6 -52.68 6 -52 6 C-52 5.34 -52 4.68 -52 4 C-36.69210597 -8.99180604 -17.40440127 -7.71946439 0 0 Z M106 46 C100.13336797 54.60236718 98.60275977 63.41969671 100.49609375 73.69140625 C102.02255641 79.34018049 104.21414402 83.5346314 108 88 C108.66 88 109.32 88 110 88 C110 88.66 110 89.32 110 90 C111.269553 90.64834654 112.54069706 91.29357815 113.8125 91.9375 C114.52019531 92.29714844 115.22789062 92.65679687 115.95703125 93.02734375 C122.50675515 96.14566354 130.71070663 96.09580488 137.67578125 94.31640625 C146.15741892 90.78605275 151.12909358 85.69299259 155.0546875 77.46484375 C158.0039041 69.77494427 157.84611883 61.68452084 155 54 C153.23393202 50.51129194 151.16888136 47.25332203 149 44 C148.34 44 147.68 44 147 44 C147 43.34 147 42.68 147 42 C145.3970947 41.18501438 143.79262722 40.37310073 142.1875 39.5625 C141.29417969 39.11003906 140.40085937 38.65757812 139.48046875 38.19140625 C127.66334743 32.51546609 114.45191979 36.45479705 106 46 Z " fill="#1C1D1E" transform="translate(211,158)"/>
    <path d="M0 0 C3.15835107 1.39750048 5.32272825 3.05198234 7.75 5.5 C8.67039062 6.41265625 8.67039062 6.41265625 9.609375 7.34375 C11 9 11 9 11 11 C10.01 11.33 9.02 11.66 8 12 C7.731875 11.38125 7.46375 10.7625 7.1875 10.125 C6.04443152 7.7004767 6.04443152 7.7004767 3 6 C2.67 5.67 2.34 5.34 2 5 C1.01 5 0.02 5 -1 5 C-0.67 3.35 -0.34 1.7 0 0 Z " fill="#5F5F61" transform="translate(387,166)"/>
    <path d="M0 0 C1.16781006 0.00523682 2.33562012 0.01047363 3.53881836 0.01586914 C4.79887695 0.0190918 6.05893555 0.02231445 7.35717773 0.02563477 C8.6976732 0.03399136 10.03816799 0.04245632 11.37866211 0.05102539 C12.72306153 0.05603879 14.06746271 0.06060197 15.41186523 0.06469727 C18.71334151 0.07653051 22.01473014 0.09301568 25.31616211 0.11352539 C25.31616211 0.44352539 25.31616211 0.77352539 25.31616211 1.11352539 C24.20374146 1.14325439 24.20374146 1.14325439 23.06884766 1.17358398 C19.71342377 1.26875467 16.35862925 1.37846633 13.00366211 1.48852539 C11.83641602 1.51946289 10.66916992 1.55040039 9.46655273 1.58227539 C7.78916016 1.6402832 7.78916016 1.6402832 6.07788086 1.69946289 C4.53040161 1.74659424 4.53040161 1.74659424 2.95166016 1.79467773 C0.08772975 1.94027168 0.08772975 1.94027168 -2.68383789 4.11352539 C-3.01383789 3.12352539 -3.34383789 2.13352539 -3.68383789 1.11352539 C-2.68383789 0.11352539 -2.68383789 0.11352539 0 0 Z " fill="#101112" transform="translate(111.683837890625,155.886474609375)"/>
    <path d="M0 0 C0.66 0.33 1.32 0.66 2 1 C2 1.66 2 2.32 2 3 C2.99 2.67 3.98 2.34 5 2 C4.34 3.98 3.68 5.96 3 8 C0.97954558 7.39816251 -1.02111039 6.72693904 -3 6 C-3.33 5.34 -3.66 4.68 -4 4 C-2.68 3.34 -1.36 2.68 0 2 C0 1.34 0 0.68 0 0 Z " fill="#444546" transform="translate(322,282)"/>
    <path d="M0 0 C2.50298434 2.93828597 3.46930939 5.17902761 4 9 C3.01 9 2.02 9 1 9 C0.01 9.33 -0.98 9.66 -2 10 C-3.39195915 5.82412255 -1.82323219 3.86525224 0 0 Z " fill="#414243" transform="translate(404,186)"/>
    <path d="M0 0 C-1.75 2.5 -1.75 2.5 -4 5 C-5.32 5 -6.64 5 -8 5 C-8 4.01 -8 3.02 -8 2 C-8.99 1.67 -9.98 1.34 -11 1 C-7.32589215 -0.17571451 -3.83070817 -0.07366746 0 0 Z " fill="#4E4F51" transform="translate(184,153)"/>
    <path d="M0 0 C1.485 0.99 1.485 0.99 3 2 C3.99 1.34 4.98 0.68 6 0 C7.4606285 2.64738916 8 3.89448334 8 7 C4.54074837 5.7508258 1.85306797 4.32472205 -1 2 C-0.67 1.34 -0.34 0.68 0 0 Z " fill="#545555" transform="translate(174,194)"/>
    <path d="M0 0 C-1.5 2 -1.5 2 -4 4 C-6.75871627 4.35800135 -9.20097524 4.18660165 -12 4 C-4.75 -1.69642857 -4.75 -1.69642857 0 0 Z " fill="#717172" transform="translate(249,155)"/>
    <path d="M0 0 C0.66 0.33 1.32 0.66 2 1 C1.01 2.1446875 1.01 2.1446875 0 3.3125 C-2.29850538 5.84277939 -2.29850538 5.84277939 -2 9 C-3.32 9.33 -4.64 9.66 -6 10 C-4.79157144 5.56909529 -3.48331435 3.01887244 0 0 Z " fill="#6E6E70" transform="translate(157,164)"/>
    <path d="M0 0 C0.66 0.33 1.32 0.66 2 1 C0.10019993 4.51463012 -1.56635317 6.89550678 -5 9 C-5.66 9 -6.32 9 -7 9 C-7 8.34 -7 7.68 -7 7 C-5.01739574 5.31267723 -3.0167658 3.64633943 -1 2 C-0.67 1.34 -0.34 0.68 0 0 Z " fill="#9B9C9C" transform="translate(309,166)"/>
    <path d="M0 0 C1.25541557 3.76624671 0.37061958 5.37188934 -1 9 C-2.32 7.68 -3.64 6.36 -5 5 C-3.35 3.35 -1.7 1.7 0 0 Z " fill="#616263" transform="translate(227,166)"/>
    <path d="M0 0 C2.97 0.495 2.97 0.495 6 1 C4.25 4.875 4.25 4.875 2 6 C2 5.34 2 4.68 2 4 C1.01 3.67 0.02 3.34 -1 3 C-0.67 2.01 -0.34 1.02 0 0 Z " fill="#535456" transform="translate(394,266)"/>
    <path d="M0 0 C0.66 0.33 1.32 0.66 2 1 C1.34 2.32 0.68 3.64 0 5 C-2.97 5 -5.94 5 -9 5 C-6.06626269 3.04417512 -3.21783702 1.43775696 0 0 Z " fill="#6D6E70" transform="translate(355,248)"/>
    <path d="M0 0 C3.53600465 1.91135386 5.78972846 3.62642766 8 7 C7.01 7.33 6.02 7.66 5 8 C5 7.01 5 6.02 5 5 C4.360625 4.731875 3.72125 4.46375 3.0625 4.1875 C1 3 1 3 0 0 Z " fill="#6F6F71" transform="translate(288,159)"/>
    <path d="M0 0 C-1 2 -1 2 -4.0625 3.125 C-5.031875 3.41375 -6.00125 3.7025 -7 4 C-7 3.01 -7 2.02 -7 1 C-3.375 -1.125 -3.375 -1.125 0 0 Z " fill="#6A6B6C" transform="translate(379,286)"/>
  </g>
</svg>
