<?xml version="1.0" encoding="UTF-8"?>
<svg version="1.1" xmlns="http://www.w3.org/2000/svg" width="376" height="338">
<path d="M0 0 C124.08 0 248.16 0 376 0 C376 111.54 376 223.08 376 338 C251.92 338 127.84 338 0 338 C0 226.46 0 114.92 0 0 Z " fill="#FEFEFE" transform="translate(0,0)"/>
<path d="M0 0 C0.96990618 1.87292227 1.92747883 3.75413973 2.796875 5.67578125 C4.57845177 9.11746365 6.97864387 11.966629 9.41015625 14.96875 C11 17 11 17 12.5 19.6875 C13.98402451 21.97537113 15.27194764 23.12464252 17.375 24.8125 C20.69174694 27.51863244 22.56031413 30.30163491 24.67578125 33.984375 C26.57022002 36.86794552 28.99822233 39.03692907 31.49609375 41.39453125 C33.36133316 43.38573488 34.10035772 45.45101354 35 48 C35.99 48.33 36.98 48.66 38 49 C38 49.66 38 50.32 38 51 C39.06323486 50.92668457 40.12646973 50.85336914 41.22192383 50.77783203 C45.2141841 50.5220396 49.205749 50.36293269 53.20385742 50.23095703 C54.92450109 50.16106846 56.64432859 50.0658966 58.36206055 49.94384766 C72.19948244 48.98621276 72.19948244 48.98621276 76.86175537 52.33874512 C80.64031883 56.06712464 83.40292019 60.39923232 86 65 C88.31941488 68.97702985 90.69434165 71.77121742 94 75 C95.1198553 76.19380801 96.22376657 77.40274266 97.3125 78.625 C97.82425781 79.19476563 98.33601562 79.76453125 98.86328125 80.3515625 C100 82 100 82 100 85 C88.78 85 77.56 85 66 85 C69.13981889 90.8445672 69.13981889 90.8445672 73.1875 95.25 C76 98 76 98 77 101 C78.99371825 102.34270821 80.9934562 103.67653494 83 105 C83 105.66 83 106.32 83 107 C83.66 107 84.32 107 85 107 C85.33 108.98 85.66 110.96 86 113 C26.93 113 -32.14 113 -93 113 C-91.85291919 108.41167676 -90.09430512 105.52647064 -87 102 C-86.13375 101.484375 -85.2675 100.96875 -84.375 100.4375 C-81.22789995 98.53267628 -80.40481327 96.32718932 -79 93 C-78.34 93 -77.68 93 -77 93 C-76.72954141 92.44681784 -76.45908281 91.89363567 -76.1804285 91.32369041 C-70.34233177 79.83131339 -70.34233177 79.83131339 -65.44500923 78.09321213 C-62.31882549 77.76793286 -59.3313111 77.76177641 -56.18969727 77.86474609 C-54.43252129 77.86255569 -54.43252129 77.86255569 -52.6398468 77.86032104 C-48.78012736 77.8672706 -44.92527843 77.9449589 -41.06640625 78.0234375 C-38.38589809 78.04209589 -35.70565722 78.05681862 -33.02513123 78.0663147 C-26.69923818 78.09733167 -20.37508426 78.17929772 -14.04995531 78.27980959 C-6.84582353 78.39179126 0.35839368 78.44661679 7.56317985 78.49676394 C22.37634059 78.60114171 37.18813993 78.7769024 52 79 C48.36041101 71.32648313 48.36041101 71.32648313 42 66 C41.525625 65.175 41.05125 64.35 40.5625 63.5 C39.18680459 60.70844517 39.18680459 60.70844517 36 60 C36 59.34 36 58.68 36 58 C7.62 58 -20.76 58 -50 58 C-50 56.35 -50 54.7 -50 53 C-49.38125 52.938125 -48.7625 52.87625 -48.125 52.8125 C-45.72238859 52.171081 -45.72238859 52.171081 -44.75 49.4375 C-44.5025 48.633125 -44.255 47.82875 -44 47 C-43.34 47 -42.68 47 -42 47 C-41.731875 46.401875 -41.46375 45.80375 -41.1875 45.1875 C-39.99427577 42.98945536 -38.75321129 41.75321129 -37 40 C-34.04774713 35.6358001 -32.07053951 30.82425196 -30 26 C-29.01 26 -28.02 26 -27 26 C-27 25.01 -27 24.02 -27 23 C-26.34 23 -25.68 23 -25 23 C-24.7834375 22.071875 -24.7834375 22.071875 -24.5625 21.125 C-24 19 -24 19 -23 17 C-22.01 16.67 -21.02 16.34 -20 16 C-19.505 15.175 -19.01 14.35 -18.5 13.5 C-17 11 -17 11 -14 10 C-13.67 9.34 -13.34 8.68 -13 8 C-12.34 8 -11.68 8 -11 8 C-10.896875 7.4225 -10.79375 6.845 -10.6875 6.25 C-9.88463029 3.62242639 -8.82965102 2.04076459 -7 0 C-3.87711542 -1.04096153 -2.95905735 -1.20042894 0 0 Z " fill="#2540E7" transform="translate(183,115)"/>
<path d="M0 0 C0.99 0.33 1.98 0.66 3 1 C3 1.66 3 2.32 3 3 C4.59485229 2.89002686 4.59485229 2.89002686 6.22192383 2.77783203 C10.2141841 2.5220396 14.205749 2.36293269 18.20385742 2.23095703 C19.92450109 2.16106846 21.64432859 2.0658966 23.36206055 1.94384766 C37.19948244 0.98621276 37.19948244 0.98621276 41.86175537 4.33874512 C45.64031883 8.06712464 48.40292019 12.39923232 51 17 C53.31941488 20.97702985 55.69434165 23.77121742 59 27 C60.1198553 28.19380801 61.22376657 29.40274266 62.3125 30.625 C62.82425781 31.19476563 63.33601562 31.76453125 63.86328125 32.3515625 C65 34 65 34 65 37 C53.78 37 42.56 37 31 37 C34.13981889 42.8445672 34.13981889 42.8445672 38.1875 47.25 C41 50 41 50 42 53 C43.99371825 54.34270821 45.9934562 55.67653494 48 57 C48 57.66 48 58.32 48 59 C48.66 59 49.32 59 50 59 C50.33 60.98 50.66 62.96 51 65 C-8.07 65 -67.14 65 -128 65 C-126.85729984 60.42919934 -125.15215259 57.46649468 -122 54 C-119.1875 52.5625 -119.1875 52.5625 -117 52 C-118.66666667 55.33333333 -120.33333333 58.66666667 -122 62 C-120.33710937 61.89171875 -120.33710937 61.89171875 -118.640625 61.78125 C-117.17708759 61.6874335 -115.71354569 61.59368718 -114.25 61.5 C-113.52039063 61.45230469 -112.79078125 61.40460938 -112.0390625 61.35546875 C-62.08118185 58.17633089 -11.06870347 61 39 61 C39.99 58.03 39.99 58.03 41 55 C40.34 55 39.68 55 39 55 C39 53.68 39 52.36 39 51 C38.05125 50.773125 37.1025 50.54625 36.125 50.3125 C33 49 33 49 31.625 46.5625 C31 44 31 44 31 41 C30.34 41 29.68 41 29 41 C28.34 38.69 27.68 36.38 27 34 C26.38125 33.938125 25.7625 33.87625 25.125 33.8125 C24.42375 33.544375 23.7225 33.27625 23 33 C22.27544365 31.35767228 21.62225605 29.68375165 21 28 C19.73036645 26.19832954 18.39923393 24.46782743 17.0234375 22.74609375 C16 21 16 21 16 17 C15.34 17 14.68 17 14 17 C14 16.34 14 15.68 14 15 C13.38125 14.87625 12.7625 14.7525 12.125 14.625 C10 14 10 14 8 12 C7.01 9.03 7.01 9.03 6 6 C22.335 6.495 22.335 6.495 39 7 C39 6.34 39 5.68 39 5 C20.685 4.505 20.685 4.505 2 4 C1.01 2.02 1.01 2.02 0 0 Z " fill="#5A6EC9" transform="translate(218,163)"/>
<path d="M0 0 C5.02037239 1.91686946 8.62631585 6.17316237 10.9453125 10.9453125 C11.19023437 11.56148437 11.43515625 12.17765625 11.6875 12.8125 C12.75076908 16.23697366 12.75076908 16.23697366 16 18 C16 18.99 16 19.98 16 21 C16.8971875 21.0928125 16.8971875 21.0928125 17.8125 21.1875 C20.92215331 22.34251409 21.34688602 24.12235715 23 27 C25.25106529 29.73917894 27.63175369 32.36195347 30 35 C31.1511776 36.28690596 32.29743281 37.57824111 33.4375 38.875 C34.17806641 39.70644531 34.17806641 39.70644531 34.93359375 40.5546875 C36 42 36 42 36 44 C13.23 44 -9.54 44 -33 44 C-31.35 41.36 -29.7 38.72 -28 36 C-27.443125 35.01 -26.88625 34.02 -26.3125 33 C-25.879375 32.34 -25.44625 31.68 -25 31 C-24.34 31 -23.68 31 -23 31 C-22.73703125 30.41734375 -22.4740625 29.8346875 -22.203125 29.234375 C-20.94288449 26.89392833 -19.54380311 25.20540699 -17.75 23.25 C-11.66722646 16.52113374 -11.66722646 16.52113374 -6.95703125 8.828125 C-6 7 -6 7 -4 6 C-3.67 5.175 -3.34 4.35 -3 3.5 C-2 1 -2 1 0 0 Z " fill="#FBFCFC" transform="translate(178,122)"/>
<path d="M0 0 C0.96990618 1.87292227 1.92747883 3.75413973 2.796875 5.67578125 C4.57845177 9.11746365 6.97864387 11.966629 9.41015625 14.96875 C11 17 11 17 12.5 19.6875 C13.98402451 21.97537113 15.27194764 23.12464252 17.375 24.8125 C20.69174694 27.51863244 22.56031413 30.30163491 24.67578125 33.984375 C26.56795454 36.86449717 28.99453218 39.03068702 31.484375 41.390625 C33.36985028 43.39272762 34.27920803 45.35709611 35 48 C34.01 48 33.02 48 32 48 C32 49.32 32 50.64 32 52 C8.24 52 -15.52 52 -40 52 C-40 50.68 -40 49.36 -40 48 C-40.66 48 -41.32 48 -42 48 C-42 48.99 -42 49.98 -42 51 C-42.99 51 -43.98 51 -45 51 C-45 51.99 -45 52.98 -45 54 C-45.99 54 -46.98 54 -48 54 C-48 54.66 -48 55.32 -48 56 C-19.95 56.33 8.1 56.66 37 57 C37.33 57.99 37.66 58.98 38 60 C37.34 60 36.68 60 36 60 C36 59.34 36 58.68 36 58 C7.62 58 -20.76 58 -50 58 C-50 56.35 -50 54.7 -50 53 C-49.38125 52.938125 -48.7625 52.87625 -48.125 52.8125 C-45.72238859 52.171081 -45.72238859 52.171081 -44.75 49.4375 C-44.5025 48.633125 -44.255 47.82875 -44 47 C-43.34 47 -42.68 47 -42 47 C-41.731875 46.401875 -41.46375 45.80375 -41.1875 45.1875 C-39.99427577 42.98945536 -38.75321129 41.75321129 -37 40 C-34.04774713 35.6358001 -32.07053951 30.82425196 -30 26 C-29.01 26 -28.02 26 -27 26 C-27 25.01 -27 24.02 -27 23 C-26.34 23 -25.68 23 -25 23 C-24.7834375 22.071875 -24.7834375 22.071875 -24.5625 21.125 C-24 19 -24 19 -23 17 C-22.01 16.67 -21.02 16.34 -20 16 C-19.505 15.175 -19.01 14.35 -18.5 13.5 C-17 11 -17 11 -14 10 C-13.67 9.34 -13.34 8.68 -13 8 C-12.34 8 -11.68 8 -11 8 C-10.896875 7.4225 -10.79375 6.845 -10.6875 6.25 C-9.88463029 3.62242639 -8.82965102 2.04076459 -7 0 C-3.87711542 -1.04096153 -2.95905735 -1.20042894 0 0 Z M-6.5625 8.3125 C-8.22493787 10.05070854 -8.22493787 10.05070854 -9 13 C-9.99 13.66 -10.98 14.32 -12 15 C-12.88205639 16.59448655 -13.76178431 18.19031147 -14.62890625 19.79296875 C-17.95891213 25.15323463 -22.21978845 30.33588519 -26.77734375 34.703125 C-28.22865991 35.94548181 -28.22865991 35.94548181 -28 38 C-28.66 38 -29.32 38 -30 38 C-30.40992188 38.77085937 -30.81984375 39.54171875 -31.2421875 40.3359375 C-32.05042969 41.84027344 -32.05042969 41.84027344 -32.875 43.375 C-33.40867188 44.37273437 -33.94234375 45.37046875 -34.4921875 46.3984375 C-36 49 -36 49 -38 51 C-15.23 51 7.54 51 31 51 C28.54063011 46.08126022 25.18810947 42.80199959 21.41015625 38.8515625 C19.01588487 36.0187941 17.57461009 33.33723333 16 30 C15.34 29.34 14.68 28.68 14 28 C13.01 28 12.02 28 11 28 C10.814375 27.0409375 10.814375 27.0409375 10.625 26.0625 C10.41875 25.381875 10.2125 24.70125 10 24 C9.34 23.67 8.68 23.34 8 23 C7.443125 21.824375 6.88625 20.64875 6.3125 19.4375 C4.01782747 14.64899467 0.89859101 10.61051778 -3 7 C-5.08486562 6.78560264 -5.08486562 6.78560264 -6.5625 8.3125 Z " fill="#4252C1" transform="translate(183,115)"/>
<path d="M0 0 C0.66 0 1.32 0 2 0 C2 1.32 2 2.64 2 4 C25.76 4 49.52 4 74 4 C74 2.68 74 1.36 74 0 C75.9375 0.3125 75.9375 0.3125 78 1 C78.495 2.485 78.495 2.485 79 4 C79.9787207 3.99476318 80.95744141 3.98952637 81.96582031 3.98413086 C85.60366905 3.96600439 89.24151381 3.95454003 92.87939453 3.94506836 C94.45264355 3.94004563 96.02588792 3.93322625 97.59912109 3.92456055 C99.86296743 3.91240471 102.12675193 3.90675104 104.390625 3.90234375 C105.09181458 3.89718246 105.79300415 3.89202118 106.51544189 3.88670349 C109.82485751 3.88632498 112.83587763 3.97485273 116 5 C116 5.66 116 6.32 116 7 C105.44 7 94.88 7 84 7 C86.43481675 12.76268781 86.43481675 12.76268781 91 15 C91 15.66 91 16.32 91 17 C91.66 17 92.32 17 93 17 C93.4640625 18.175625 93.4640625 18.175625 93.9375 19.375 C94.92875038 21.92330128 94.92875038 21.92330128 96 24 C95.01 24 94.02 24 93 24 C92.67 24.66 92.34 25.32 92 26 C91.59007812 25.50628906 91.18015625 25.01257813 90.7578125 24.50390625 C90.21898437 23.86324219 89.68015625 23.22257812 89.125 22.5625 C88.59132813 21.92441406 88.05765625 21.28632813 87.5078125 20.62890625 C86.0777243 18.89194996 86.0777243 18.89194996 84 18 C82.10510547 15.07870427 80.56012228 12.12024456 79 9 C50.62 9 22.24 9 -7 9 C-6.67 8.01 -6.34 7.02 -6 6 C-5.01 6 -4.02 6 -3 6 C-3 5.01 -3 4.02 -3 3 C-2.01 3 -1.02 3 0 3 C0 2.01 0 1.02 0 0 Z " fill="#3042CC" transform="translate(141,163)"/>
<path d="M0 0 C0.99 0.33 1.98 0.66 3 1 C3 1.99 3 2.98 3 4 C-4.27225429 7.49125073 -10.30453482 8.56921266 -18.32470703 8.45410156 C-19.40881363 8.45468567 -20.49292023 8.45526978 -21.60987854 8.45587158 C-25.15952638 8.4531059 -28.70831306 8.42208474 -32.2578125 8.390625 C-34.7321629 8.38315725 -37.20651924 8.37746684 -39.68087769 8.37347412 C-46.16809649 8.35826005 -52.65495254 8.31901428 -59.14202881 8.2746582 C-65.77172233 8.23361439 -72.40146244 8.21544368 -79.03125 8.1953125 C-92.02098738 8.15251626 -105.01047432 8.08509359 -118 8 C-118.33 9.32 -118.66 10.64 -119 12 C-119.99 12 -120.98 12 -122 12 C-122.6496875 13.4540625 -122.6496875 13.4540625 -123.3125 14.9375 C-125 18 -125 18 -128 19 C-128 19.66 -128 20.32 -128 21 C-128.66 21 -129.32 21 -130 21 C-130.33 21.99 -130.66 22.98 -131 24 C-131.66 23.67 -132.32 23.34 -133 23 C-132.01 21.02 -131.02 19.04 -130 17 C-129.34 17 -128.68 17 -128 17 C-127.59431211 16.17022676 -127.59431211 16.17022676 -127.1804285 15.32369041 C-121.34233177 3.83131339 -121.34233177 3.83131339 -116.44500923 2.09321213 C-113.31882549 1.76793286 -110.3313111 1.76177641 -107.18969727 1.86474609 C-105.43252129 1.86255569 -105.43252129 1.86255569 -103.6398468 1.86032104 C-99.78012736 1.8672706 -95.92527843 1.9449589 -92.06640625 2.0234375 C-89.38589809 2.04209589 -86.70565722 2.05681862 -84.02513123 2.0663147 C-77.69923818 2.09733167 -71.37508426 2.17929772 -65.04995531 2.27980959 C-57.84582353 2.39179126 -50.64160632 2.44661679 -43.43682015 2.49676394 C-28.62365941 2.60114171 -13.81186007 2.7769024 1 3 C0.67 2.01 0.34 1.02 0 0 Z " fill="#2A43D8" transform="translate(234,191)"/>
<path d="M0 0 C4.10627682 -0.29947601 8.20824798 -0.51555839 12.32299805 -0.65917969 C13.71767916 -0.71908286 15.11162046 -0.80066059 16.50366211 -0.90527344 C21.18377803 -1.24784382 25.42499303 -1.2605959 30 0 C34.69599236 4.17525328 37.99628492 8.98885477 40 15 C40.680625 15.680625 41.36125 16.36125 42.0625 17.0625 C43.0215625 18.0215625 43.0215625 18.0215625 44 19 C44 19.66 44 20.32 44 21 C34.43 21 24.86 21 15 21 C15 19.68 15 18.36 15 17 C14.4225 16.7525 13.845 16.505 13.25 16.25 C10.62776908 14.79320504 8.90746919 13.31621258 7 11 C7 9.68 7 8.36 7 7 C6.34 7 5.68 7 5 7 C5 6.34 5 5.68 5 5 C4.34 5 3.68 5 3 5 C1.375 2.5 1.375 2.5 0 0 Z " fill="#F5F9FB" transform="translate(227,173)"/>
<path d="M0 0 C0.495 1.98 0.495 1.98 1 4 C0.34 4 -0.32 4 -1 4 C-1 3.01 -1 2.02 -1 1 C-2.65 1 -4.3 1 -6 1 C-6.433125 1.86625 -6.433125 1.86625 -6.875 2.75 C-8.4375 5.875 -8.4375 5.875 -10 9 C-10.66 9 -11.32 9 -12 9 C-12.0825 9.61875 -12.165 10.2375 -12.25 10.875 C-12.4975 11.57625 -12.745 12.2775 -13 13 C-13.61101562 13.27972656 -14.22203125 13.55945313 -14.8515625 13.84765625 C-17.58051457 15.31136691 -18.51695376 16.93995338 -20.125 19.5625 C-22.80555556 23.90277778 -22.80555556 23.90277778 -25 25 C-26.3749149 27.90259811 -27 29.76138705 -27 33 C-23.04 28.545 -23.04 28.545 -19 24 C-19 28.14673024 -20.75777937 29.52949719 -23.375 32.6875 C-24.18710938 33.68136719 -24.99921875 34.67523438 -25.8359375 35.69921875 C-26.55007812 36.45847656 -27.26421875 37.21773437 -28 38 C-28.66 38 -29.32 38 -30 38 C-30.2475 38.680625 -30.495 39.36125 -30.75 40.0625 C-32.21690363 43.50972352 -34.1412887 46.74725523 -36 50 C-3.33 50.495 -3.33 50.495 30 51 C30 51.33 30 51.66 30 52 C6.9 52 -16.2 52 -40 52 C-40 50.68 -40 49.36 -40 48 C-40.66 48 -41.32 48 -42 48 C-42 48.99 -42 49.98 -42 51 C-42.99 51 -43.98 51 -45 51 C-45 51.99 -45 52.98 -45 54 C-45.99 54 -46.98 54 -48 54 C-48 54.66 -48 55.32 -48 56 C-19.95 56.33 8.1 56.66 37 57 C37.33 57.99 37.66 58.98 38 60 C37.34 60 36.68 60 36 60 C36 59.34 36 58.68 36 58 C7.62 58 -20.76 58 -50 58 C-50 56.35 -50 54.7 -50 53 C-49.38125 52.938125 -48.7625 52.87625 -48.125 52.8125 C-45.72238859 52.171081 -45.72238859 52.171081 -44.75 49.4375 C-44.5025 48.633125 -44.255 47.82875 -44 47 C-43.34 47 -42.68 47 -42 47 C-41.731875 46.401875 -41.46375 45.80375 -41.1875 45.1875 C-39.99427577 42.98945536 -38.75321129 41.75321129 -37 40 C-34.04774713 35.6358001 -32.07053951 30.82425196 -30 26 C-29.01 26 -28.02 26 -27 26 C-27 25.01 -27 24.02 -27 23 C-26.34 23 -25.68 23 -25 23 C-24.7834375 22.071875 -24.7834375 22.071875 -24.5625 21.125 C-24 19 -24 19 -23 17 C-22.01 16.67 -21.02 16.34 -20 16 C-19.505 15.175 -19.01 14.35 -18.5 13.5 C-17 11 -17 11 -14 10 C-13.67 9.34 -13.34 8.68 -13 8 C-12.34 8 -11.68 8 -11 8 C-10.896875 7.4225 -10.79375 6.845 -10.6875 6.25 C-9.88463029 3.62242639 -8.82965102 2.04076459 -7 0 C-3.86650268 -1.04449911 -3.01031744 -0.93423645 0 0 Z " fill="#92A1DF" transform="translate(183,115)"/>
<path d="M0 0 C1.98 0.495 1.98 0.495 4 1 C3.34 2.32 2.68 3.64 2 5 C-57.4 5 -116.8 5 -178 5 C-178 4.34 -178 3.68 -178 3 C-118.93 3 -59.86 3 1 3 C0.67 2.01 0.34 1.02 0 0 Z " fill="#DCE9F9" transform="translate(268,225)"/>
<path d="M0 0 C0.99 0.33 1.98 0.66 3 1 C3 1.66 3 2.32 3 3 C4.59485229 2.89002686 4.59485229 2.89002686 6.22192383 2.77783203 C10.2141841 2.5220396 14.205749 2.36293269 18.20385742 2.23095703 C19.92450109 2.16106846 21.64432859 2.0658966 23.36206055 1.94384766 C37.19948244 0.98621276 37.19948244 0.98621276 41.86175537 4.33874512 C45.63995772 8.06676832 48.40423646 12.3988657 51 17 C52.7439542 20.00652765 54.08779462 22.08779462 56.5625 24.5625 C58.70847194 26.70847194 59.8726615 28.23289641 61 31 C59.02 30.34 57.04 29.68 55 29 C55 29.99 55 30.98 55 32 C50.49774209 32.12361526 45.99647151 32.21434063 41.49291992 32.2746582 C39.96116939 32.29980078 38.42953883 32.33392047 36.89819336 32.37719727 C34.69615116 32.43786942 32.49569426 32.46620891 30.29296875 32.48828125 C29.60849167 32.51408768 28.92401459 32.5398941 28.21879578 32.56648254 C26.27807617 32.56762695 26.27807617 32.56762695 23 32 C20.61367382 29.14123426 20 27.72988343 20 24 C22 25.25 22 25.25 24 27 C24 28.32 24 29.64 24 31 C33.57 31 43.14 31 53 31 C51.35143175 26.87596527 51.35143175 26.87596527 48 25 C47.02108509 23.30321416 46.0461245 21.6035606 45.1171875 19.87890625 C43.97749659 17.96215336 42.7116658 16.36800277 41.25 14.6875 C39 12 39 12 39 10 C29.43 10.33 19.86 10.66 10 11 C10.66 12.32 11.32 13.64 12 15 C7.64808179 12.38884907 7.81551549 11.44654648 6 6 C22.335 6.495 22.335 6.495 39 7 C39 6.34 39 5.68 39 5 C20.685 4.505 20.685 4.505 2 4 C1.34 2.68 0.68 1.36 0 0 Z " fill="#7C8ED8" transform="translate(218,163)"/>
<path d="M0 0 C0.99 0.33 1.98 0.66 3 1 C3 1.99 3 2.98 3 4 C-3.05796739 5.06033289 -8.96315903 5.14501285 -15.10424805 5.1418457 C-16.74937378 5.14705734 -16.74937378 5.14705734 -18.42773438 5.15237427 C-20.80014735 5.15970475 -23.17256706 5.1650645 -25.54498863 5.16866493 C-29.29785567 5.17585044 -33.05059349 5.19152987 -36.80342102 5.21000671 C-47.4702591 5.26239941 -58.13699603 5.31093934 -68.80395508 5.32592773 C-75.33493531 5.33519838 -81.86564174 5.36525125 -88.39649391 5.40724754 C-90.88560298 5.41958167 -93.37475869 5.42467443 -95.86389732 5.42244911 C-99.33760571 5.42010617 -102.81035627 5.44218386 -106.28393555 5.4699707 C-107.31519058 5.46336929 -108.34644562 5.45676788 -109.40895081 5.44996643 C-114.87941044 5.43572373 -114.87941044 5.43572373 -119.59724426 7.90153503 C-121.40173037 10.60097213 -122.6881074 13.32141582 -123.97265625 16.29296875 C-125 18 -125 18 -128 19 C-128 19.66 -128 20.32 -128 21 C-128.66 21 -129.32 21 -130 21 C-130.33 21.99 -130.66 22.98 -131 24 C-131.66 23.67 -132.32 23.34 -133 23 C-132.01 21.02 -131.02 19.04 -130 17 C-129.34 17 -128.68 17 -128 17 C-127.59431211 16.17022676 -127.59431211 16.17022676 -127.1804285 15.32369041 C-121.34233177 3.83131339 -121.34233177 3.83131339 -116.44500923 2.09321213 C-113.31882549 1.76793286 -110.3313111 1.76177641 -107.18969727 1.86474609 C-105.43252129 1.86255569 -105.43252129 1.86255569 -103.6398468 1.86032104 C-99.78012736 1.8672706 -95.92527843 1.9449589 -92.06640625 2.0234375 C-89.38589809 2.04209589 -86.70565722 2.05681862 -84.02513123 2.0663147 C-77.69923818 2.09733167 -71.37508426 2.17929772 -65.04995531 2.27980959 C-57.84582353 2.39179126 -50.64160632 2.44661679 -43.43682015 2.49676394 C-28.62365941 2.60114171 -13.81186007 2.7769024 1 3 C0.67 2.01 0.34 1.02 0 0 Z " fill="#5A70DF" transform="translate(234,191)"/>
<path d="M0 0 C28.38 0 56.76 0 86 0 C86 0.99 86 1.98 86 3 C87.1446875 2.8453125 87.1446875 2.8453125 88.3125 2.6875 C89.199375 2.790625 90.08625 2.89375 91 3 C92.625 5.4375 92.625 5.4375 94 8 C94.99 8.33 95.98 8.66 97 9 C97 9.66 97 10.32 97 11 C97.66 11 98.32 11 99 11 C99.309375 11.78375 99.61875 12.5675 99.9375 13.375 C100.92875038 15.92330128 100.92875038 15.92330128 102 18 C101.01 18 100.02 18 99 18 C98.67 18.66 98.34 19.32 98 20 C97.59007812 19.50628906 97.18015625 19.01257813 96.7578125 18.50390625 C96.21898437 17.86324219 95.68015625 17.22257812 95.125 16.5625 C94.59132813 15.92441406 94.05765625 15.28632813 93.5078125 14.62890625 C92.0777243 12.89194996 92.0777243 12.89194996 90 12 C88.10510547 9.07870427 86.56012228 6.12024456 85 3 C56.62 3 28.24 3 -1 3 C-0.67 2.01 -0.34 1.02 0 0 Z " fill="#5062CB" transform="translate(135,169)"/>
<path d="M0 0 C0 3.52032428 -0.70351351 4.4385343 -3 7 C-3.66 7 -4.32 7 -5 7 C-5.33 8.32 -5.66 9.64 -6 11 C49.44 10.67 104.88 10.34 162 10 C162 9.01 162 8.02 162 7 C162.33 6.34 162.66 5.68 163 5 C163.99 5.495 163.99 5.495 165 6 C165.99 8.97 165.99 8.97 167 12 C108.92 12 50.84 12 -9 12 C-6.05882353 3.17647059 -6.05882353 3.17647059 -1.8125 0.75 C-1.214375 0.5025 -0.61625 0.255 0 0 Z " fill="#3C52BD" transform="translate(100,215)"/>
<path d="M0 0 C2.5 1.375 2.5 1.375 5 3 C5 3.66 5 4.32 5 5 C5.66 5 6.32 5 7 5 C7.33 6.98 7.66 8.96 8 11 C-51.07 11 -110.14 11 -171 11 C-170.67 9.68 -170.34 8.36 -170 7 C-169.67 7.66 -169.34 8.32 -169 9 C-111.58 9 -54.16 9 5 9 C4.67 7.35 4.34 5.7 4 4 C2.03241727 2.63979849 2.03241727 2.63979849 0 2 C0 1.34 0 0.68 0 0 Z " fill="#889BDA" transform="translate(261,217)"/>
<path d="M0 0 C1.1446875 1.175625 1.1446875 1.175625 2.3125 2.375 C4.90891805 5.07257717 4.90891805 5.07257717 8 7 C8.33 6.34 8.66 5.68 9 5 C13.64819635 8.53637993 16.7716718 11.92871602 19.67578125 16.984375 C21.56795454 19.86449717 23.99453218 22.03068702 26.484375 24.390625 C28.36985028 26.39272762 29.27920803 28.35709611 30 31 C29.01 31 28.02 31 27 31 C27 32.32 27 33.64 27 35 C25 34 25 34 24.18359375 32.2734375 C22.06134172 28.1970326 18.56612245 25.15161553 15.41015625 21.8515625 C13.0203628 19.02409213 11.60224437 16.31384074 10 13 C7.94996045 11.80767387 7.94996045 11.80767387 6 11 C5.67 10.01 5.34 9.02 5 8 C4.01 7.34 3.02 6.68 2 6 C0.8125 2.875 0.8125 2.875 0 0 Z " fill="#6272D2" transform="translate(188,132)"/>
<path d="M0 0 C3 2 3 2 3.6875 4.625 C3.790625 5.40875 3.89375 6.1925 4 7 C3.38800467 6.9959358 2.77600935 6.9918716 2.14546871 6.98768425 C-12.76163931 6.89213352 -27.6681291 6.8519555 -42.57548618 6.87302971 C-49.78482197 6.881893 -56.99322971 6.8721747 -64.20239258 6.81835938 C-70.48772319 6.77148784 -76.77197602 6.75984041 -83.05742592 6.7900821 C-86.38464681 6.80487112 -89.70929615 6.79704661 -93.03637886 6.75750351 C-96.75588926 6.71628814 -100.47023859 6.7373443 -104.18969727 6.77294922 C-105.8350798 6.73304619 -105.8350798 6.73304619 -107.51370239 6.69233704 C-112.09846101 6.79201309 -114.87282003 6.87831071 -118.21348381 10.20270157 C-120.00297698 12.73339318 -121.53261866 15.27267696 -123 18 C-123.66 18.99 -124.32 19.98 -125 21 C-125.66 21 -126.32 21 -127 21 C-127.2475 21.928125 -127.495 22.85625 -127.75 23.8125 C-129.06454245 27.16458325 -129.97963384 28.1877803 -133 30 C-131.25 24.25 -131.25 24.25 -129 22 C-128.896875 21.360625 -128.79375 20.72125 -128.6875 20.0625 C-128 18 -128 18 -125.5 16.5625 C-122.74538088 15.22232165 -122.74538088 15.22232165 -122.1875 12.3125 C-122.125625 11.549375 -122.06375 10.78625 -122 10 C-121.01 9.67 -120.02 9.34 -119 9 C-118.34 8.01 -117.68 7.02 -117 6 C-114.89543724 5.63085651 -114.89543724 5.63085651 -112.24179077 5.63923645 C-110.73574028 5.63305046 -110.73574028 5.63305046 -109.19926453 5.6267395 C-108.09371719 5.63752533 -106.98816986 5.64831116 -105.84912109 5.65942383 C-104.68815414 5.65898575 -103.52718719 5.65854767 -102.33103943 5.65809631 C-98.47833672 5.660193 -94.62606456 5.68356605 -90.7734375 5.70703125 C-88.10827903 5.71262408 -85.44314469 5.71704315 -82.77798462 5.71989441 C-76.47039275 5.72922774 -70.16295641 5.75385879 -63.85543311 5.78394288 C-56.67537601 5.81744695 -49.49531158 5.83396282 -42.3151958 5.84902918 C-27.54338423 5.88040733 -12.77169482 5.93319274 2 6 C1.01 3.03 1.01 3.03 0 0 Z " fill="#CDD7F6" transform="translate(231,187)"/>
<path d="M0 0 C0.66 0.33 1.32 0.66 2 1 C1.67 1.66 1.34 2.32 1 3 C2.66289063 2.89171875 2.66289063 2.89171875 4.359375 2.78125 C5.82291241 2.6874335 7.28645431 2.59368718 8.75 2.5 C9.47960937 2.45230469 10.20921875 2.40460938 10.9609375 2.35546875 C16.32582868 2.01406658 21.65098791 2.00103772 27.02374268 2.03796387 C28.25770782 2.04637802 29.49167297 2.05479218 30.76303101 2.0634613 C32.12750246 2.07290395 33.49197389 2.08234923 34.85644531 2.09179688 C36.29544059 2.10166074 37.73443596 2.11151253 39.1734314 2.12135315 C43.07802953 2.14808911 46.98262648 2.17499405 50.88722324 2.20192909 C54.96849565 2.23005423 59.04976912 2.2580243 63.13104248 2.28601074 C70.85867409 2.33902489 78.58630473 2.39217872 86.31393504 2.4453826 C95.11192502 2.50594899 103.90991606 2.56635987 112.7079072 2.62675762 C130.80527266 2.75099858 148.90263677 2.87543506 167 3 C167 3.33 167 3.66 167 4 C111.56 4 56.12 4 -1 4 C-0.67 2.68 -0.34 1.36 0 0 Z " fill="#3148CC" transform="translate(95,222)"/>
<path d="M0 0 C3.7237169 3.42179391 5.79341641 6.49089439 8 11 C9.31442362 12.35197858 10.6434836 13.69026002 12 15 C12 15.66 12 16.32 12 17 C2.43 17 -7.14 17 -17 17 C-17 16.67 -17 16.34 -17 16 C-11.39 16 -5.78 16 0 16 C0.78769545 10.3110884 1.07931689 5.63643263 0 0 Z " fill="#E5ECF8" transform="translate(259,177)"/>
<path d="M0 0 C2.71928517 0.37507382 3.84218661 0.84218661 5.8125 2.8125 C7 5 7 5 6.6875 7.25 C6.460625 7.8275 6.23375 8.405 6 9 C6 8.01 6 7.02 6 6 C-19.08 5.67 -44.16 5.34 -70 5 C-70 4.67 -70 4.34 -70 4 C-46.9 4 -23.8 4 0 4 C0 2.68 0 1.36 0 0 Z " fill="#3848CE" transform="translate(215,163)"/>
<path d="M0 0 C3.465 2.475 3.465 2.475 7 5 C7.33 4.34 7.66 3.68 8 3 C10.96404505 5.80804268 13.44499019 8.18315774 15 12 C13.02 11.34 11.04 10.68 9 10 C9 10.99 9 11.98 9 13 C4.49774209 13.12361526 -0.00352849 13.21434063 -4.50708008 13.2746582 C-6.03883061 13.29980078 -7.57046117 13.33392047 -9.10180664 13.37719727 C-11.30384884 13.43786942 -13.50430574 13.46620891 -15.70703125 13.48828125 C-16.39150833 13.51408768 -17.07598541 13.5398941 -17.78120422 13.56648254 C-19.72192383 13.56762695 -19.72192383 13.56762695 -23 13 C-25.38632618 10.14123426 -26 8.72988343 -26 5 C-24 6.25 -24 6.25 -22 8 C-22 9.32 -22 10.64 -22 12 C-12.43 12 -2.86 12 7 12 C5.35143175 7.87596527 5.35143175 7.87596527 2 6 C0.8125 2.875 0.8125 2.875 0 0 Z " fill="#6D81D6" transform="translate(264,182)"/>
<path d="M0 0 C0.33 1.32 0.66 2.64 1 4 C1.99 3.67 2.98 3.34 4 3 C2.7901748 7.57045074 0.48209072 9.46911082 -3.046875 12.30859375 C-6.39262307 15.20601158 -9.16876755 18.60940552 -12 22 C-12.625 20.125 -12.625 20.125 -13 18 C-12.34 17.34 -11.68 16.68 -11 16 C-10.71125 15.21625 -10.4225 14.4325 -10.125 13.625 C-8.84069876 10.6282971 -7.32930208 9.2627506 -5 7 C-3.26125746 4.71139871 -1.63673381 2.36417106 0 0 Z " fill="#4D5DC5" transform="translate(167,128)"/>
<path d="M0 0 C0 2.97 0 5.94 0 9 C-0.64799561 8.18958252 -1.29599121 7.37916504 -1.96362305 6.54418945 C-5.9569392 3.19817775 -8.53671144 3.26764536 -13.58203125 3.29296875 C-14.80329964 3.27028679 -14.80329964 3.27028679 -16.04924011 3.24714661 C-18.63727636 3.20432563 -21.22414505 3.19543753 -23.8125 3.1875 C-25.57229654 3.16435117 -27.33206541 3.13898502 -29.09179688 3.11132812 C-33.39463419 3.04853168 -37.696745 3.01615265 -42 3 C-42.33 2.01 -42.66 1.02 -43 0 C-41.81857422 0.2475 -41.81857422 0.2475 -40.61328125 0.5 C-35.27188535 1.2391337 -29.98934257 1.04242002 -24.60742188 0.9609375 C-18.98028507 0.90950898 -13.58272438 1.27746338 -8 2 C-8 1.34 -8 0.68 -8 0 C-2.25 -1.125 -2.25 -1.125 0 0 Z " fill="#EEFBFD" transform="translate(263,163)"/>
<path d="M0 0 C1.66666667 1.66666667 3.33333333 3.33333333 5 5 C5.763125 5.721875 6.52625 6.44375 7.3125 7.1875 C9 9 9 9 9 11 C-13.77 11 -36.54 11 -60 11 C-56.45140647 8.63427098 -55.07154998 8.78100699 -50.8762207 8.86474609 C-49.61513992 8.88491791 -48.35405914 8.90508972 -47.05476379 8.9258728 C-45.67843113 8.95817581 -44.30210371 8.99070264 -42.92578125 9.0234375 C-41.51760969 9.04960899 -40.10942105 9.07487566 -38.70121765 9.09927368 C-34.99712485 9.16588223 -31.29339184 9.24478378 -27.58959961 9.32623291 C-23.80922238 9.40719467 -20.02863426 9.47654878 -16.24804688 9.546875 C-8.83177573 9.68654585 -1.41584633 9.8392019 6 10 C5.19175781 9.23300781 4.38351563 8.46601563 3.55078125 7.67578125 C0.92336501 4.91960954 0.31732412 3.7021147 0 0 Z " fill="#EEFDF9" transform="translate(205,155)"/>
<path d="M0 0 C1.32 0 2.64 0 4 0 C4 1.32 4 2.64 4 4 C4.99 3.67 5.98 3.34 7 3 C7.33 5.31 7.66 7.62 8 10 C8.66 10 9.32 10 10 10 C10.2784375 10.928125 10.2784375 10.928125 10.5625 11.875 C12.71437233 15.05602866 15.37533763 15.19451947 19 16 C18.67 17.65 18.34 19.3 18 21 C18.66 21 19.32 21 20 21 C20 21.66 20 22.32 20 23 C20.66 23 21.32 23 22 23 C22 23.99 22 24.98 22 26 C22.66 26 23.32 26 24 26 C24 26.99 24 27.98 24 29 C24.99 28.67 25.98 28.34 27 28 C27 29.65 27 31.3 27 33 C22.03330992 29.12598174 18.86610925 25.48377896 15.5390625 20.1640625 C13.57161384 17.39764992 11.23945264 15.56237314 8.6015625 13.46484375 C5.9324456 11.02357829 4.63634023 8.21423973 3 5 C2.00522955 3.33020674 1.00739746 1.66220581 0 0 Z " fill="#DCE5F8" transform="translate(187,123)"/>
<path d="M0 0 C0.495 1.98 0.495 1.98 1 4 C0.34 4 -0.32 4 -1 4 C-1 3.01 -1 2.02 -1 1 C-2.65 1 -4.3 1 -6 1 C-6.433125 1.86625 -6.433125 1.86625 -6.875 2.75 C-7.91666667 4.83333333 -8.95833333 6.91666667 -10 9 C-10.66 9 -11.32 9 -12 9 C-12.0825 9.61875 -12.165 10.2375 -12.25 10.875 C-12.4975 11.57625 -12.745 12.2775 -13 13 C-13.61488281 13.28488281 -14.22976562 13.56976563 -14.86328125 13.86328125 C-17.52426584 15.27890559 -18.38391078 16.75187511 -19.9375 19.3125 C-22.29386231 23.03150617 -24.83711511 25.92259848 -28 29 C-29.05287814 30.63377642 -30.0727001 32.29181597 -31 34 C-32 32 -32 32 -31.0625 28.875 C-30.711875 27.92625 -30.36125 26.9775 -30 26 C-29.01 26 -28.02 26 -27 26 C-27 25.01 -27 24.02 -27 23 C-26.34 23 -25.68 23 -25 23 C-24.7834375 22.071875 -24.7834375 22.071875 -24.5625 21.125 C-24 19 -24 19 -23 17 C-22.01 16.67 -21.02 16.34 -20 16 C-19.505 15.175 -19.01 14.35 -18.5 13.5 C-17 11 -17 11 -14 10 C-13.67 9.34 -13.34 8.68 -13 8 C-12.34 8 -11.68 8 -11 8 C-10.896875 7.4225 -10.79375 6.845 -10.6875 6.25 C-9.88463029 3.62242639 -8.82965102 2.04076459 -7 0 C-3.86650268 -1.04449911 -3.01031744 -0.93423645 0 0 Z " fill="#B0BEEB" transform="translate(183,115)"/>
<path d="M0 0 C1.1446875 1.175625 1.1446875 1.175625 2.3125 2.375 C4.90891805 5.07257717 4.90891805 5.07257717 8 7 C8.33 6.34 8.66 5.68 9 5 C10.13199353 5.9080162 11.25532363 6.82683826 12.375 7.75 C13.00148437 8.26046875 13.62796875 8.7709375 14.2734375 9.296875 C16.08312318 11.08199481 17.00117455 12.67949644 18 15 C16.68 14.67 15.36 14.34 14 14 C13.67 14.66 13.34 15.32 13 16 C13.66 16 14.32 16 15 16 C17.04169485 18.90548882 18 20.40142046 18 24 C12.45139319 17.76904025 12.45139319 17.76904025 10.3125 14.125 C9.11795489 11.68322807 9.11795489 11.68322807 6 11 C5.67 10.01 5.34 9.02 5 8 C4.01 7.34 3.02 6.68 2 6 C0.8125 2.875 0.8125 2.875 0 0 Z " fill="#6172D1" transform="translate(188,132)"/>
<path d="M0 0 C1.32 0 2.64 0 4 0 C4 1.32 4 2.64 4 4 C4.99 4 5.98 4 7 4 C6.67 4.99 6.34 5.98 6 7 C3.69 7 1.38 7 -1 7 C-1.2475 7.928125 -1.495 8.85625 -1.75 9.8125 C-3.06974749 13.17785609 -3.90515949 14.25915221 -7 16 C-7.66 16 -8.32 16 -9 16 C-9 14.68 -9 13.36 -9 12 C-8.34 12 -7.68 12 -7 12 C-6.67 10.68 -6.34 9.36 -6 8 C-5.34 8 -4.68 8 -4 8 C-3.896875 7.4225 -3.79375 6.845 -3.6875 6.25 C-2.87465516 3.58978053 -1.93155261 2.00309159 0 0 Z " fill="#495BC5" transform="translate(177,116)"/>
<path d="M0 0 C2.55395487 -0.26711404 4.86274374 -0.34849029 7.4140625 -0.29296875 C8.14370209 -0.28872391 8.87334167 -0.28447906 9.62509155 -0.28010559 C11.95876759 -0.26329353 14.2915844 -0.22563868 16.625 -0.1875 C18.20571671 -0.17245634 19.78644693 -0.15876738 21.3671875 -0.14648438 C25.24512344 -0.11338201 29.12241598 -0.06158404 33 0 C33 0.33 33 0.66 33 1 C32.06728271 0.9779248 31.13456543 0.95584961 30.17358398 0.93310547 C26.68474199 0.87454966 23.2016337 0.86130287 19.71264648 0.87792969 C18.20828491 0.87599253 16.70383224 0.85642816 15.19995117 0.81835938 C6.21870492 0.37922612 6.21870492 0.37922612 -1.51904297 4.19628906 C-3.29587695 6.7309379 -4.68408811 9.2037222 -6 12 C-6.99 13.485 -6.99 13.485 -8 15 C-8.66 15 -9.32 15 -10 15 C-10.2475 15.928125 -10.495 16.85625 -10.75 17.8125 C-12.06454245 21.16458325 -12.97963384 22.1877803 -16 24 C-14.25 18.25 -14.25 18.25 -12 16 C-11.896875 15.360625 -11.79375 14.72125 -11.6875 14.0625 C-11 12 -11 12 -8.5 10.5625 C-5.74538088 9.22232165 -5.74538088 9.22232165 -5.1875 6.3125 C-5.125625 5.549375 -5.06375 4.78625 -5 4 C-4.01 3.67 -3.02 3.34 -2 3 C-1.34 2.01 -0.68 1.02 0 0 Z " fill="#D5DDF5" transform="translate(114,193)"/>
<path d="M0 0 C6.36861874 4.05275738 9.97064089 7.14719338 12.75 14.25 C13.39195312 15.86648437 13.39195312 15.86648437 14.046875 17.515625 C14.51867187 18.74539062 14.51867187 18.74539062 15 20 C12.69 20 10.38 20 8 20 C8.99 16.535 8.99 16.535 10 13 C9.34 13 8.68 13 8 13 C8 11.68 8 10.36 8 9 C7.05125 8.814375 6.1025 8.62875 5.125 8.4375 C2 7 2 7 0.625 3.375 C0.41875 2.26125 0.2125 1.1475 0 0 Z " fill="#3149D3" transform="translate(249,205)"/>
<path d="M0 0 C11.22 0 22.44 0 34 0 C34 0.33 34 0.66 34 1 C32.88757935 1.029729 32.88757935 1.029729 31.75268555 1.06005859 C28.39726166 1.15522928 25.04246714 1.26494094 21.6875 1.375 C19.93663086 1.42140625 19.93663086 1.42140625 18.15039062 1.46875 C16.47299805 1.52675781 16.47299805 1.52675781 14.76171875 1.5859375 C13.2142395 1.63306885 13.2142395 1.63306885 11.63549805 1.68115234 C8.77156764 1.82674629 8.77156764 1.82674629 6 4 C5.74969023 6.58380177 5.74969023 6.58380177 6 9 C1.125 4.5 1.125 4.5 0 0 Z " fill="#C2D2EE" transform="translate(249,200)"/>
<path d="M0 0 C1.32 0.33 2.64 0.66 4 1 C4.33 2.65 4.66 4.3 5 6 C-2.92 6 -10.84 6 -19 6 C-19 5.34 -19 4.68 -19 4 C-12.73 4 -6.46 4 0 4 C0 2.68 0 1.36 0 0 Z " fill="#3247CC" transform="translate(274,192)"/>
<path d="M0 0 C0 3.52032428 -0.70351351 4.4385343 -3 7 C-3.66 7 -4.32 7 -5 7 C-5.33 8.32 -5.66 9.64 -6 11 C1.59 11 9.18 11 17 11 C17 11.33 17 11.66 17 12 C8.42 12 -0.16 12 -9 12 C-6.05882353 3.17647059 -6.05882353 3.17647059 -1.8125 0.75 C-1.214375 0.5025 -0.61625 0.255 0 0 Z " fill="#4253B5" transform="translate(100,215)"/>
<path d="M0 0 C0.66 0 1.32 0 2 0 C2 0.66 2 1.32 2 2 C2.66 2 3.32 2 4 2 C4.309375 2.78375 4.61875 3.5675 4.9375 4.375 C5.92875038 6.92330128 5.92875038 6.92330128 7 9 C6.01 9 5.02 9 4 9 C3.67 9.66 3.34 10.32 3 11 C2.59007812 10.50628906 2.18015625 10.01257813 1.7578125 9.50390625 C1.21898437 8.86324219 0.68015625 8.22257813 0.125 7.5625 C-0.40867188 6.92441406 -0.94234375 6.28632813 -1.4921875 5.62890625 C-2.9222757 3.89194996 -2.9222757 3.89194996 -5 3 C-4.67 2.34 -4.34 1.68 -4 1 C-2.68 1.66 -1.36 2.32 0 3 C0 2.01 0 1.02 0 0 Z " fill="#5A6CD0" transform="translate(230,178)"/>
<path d="M0 0 C2.5 1.375 2.5 1.375 5 3 C5 3.66 5 4.32 5 5 C5.66 5 6.32 5 7 5 C7.33 6.98 7.66 8.96 8 11 C-0.91 11 -9.82 11 -19 11 C-19 10.67 -19 10.34 -19 10 C-11.08 9.67 -3.16 9.34 5 9 C4.67 7.35 4.34 5.7 4 4 C2.03241727 2.63979849 2.03241727 2.63979849 0 2 C0 1.34 0 0.68 0 0 Z " fill="#93A3DD" transform="translate(261,217)"/>
<path d="M0 0 C4.00262312 0.91488528 5.61661144 2.52875206 7.75 5.875 C9.36106832 8.55671499 10.36751259 10.93381104 11 14 C7.77570648 13.04142625 6.27437696 12.37236872 4.25 9.625 C3.17963425 7.37723192 2.45122303 5.43660436 2 3 C1.34 3 0.68 3 0 3 C0 2.01 0 1.02 0 0 Z " fill="#4051C4" transform="translate(201,145)"/>
<path d="M0 0 C1.38294718 0.01329757 2.76582404 0.03715018 4.1484375 0.0703125 C4.85484375 0.07933594 5.56125 0.08835938 6.2890625 0.09765625 C8.03399848 0.12123647 9.77876045 0.15710789 11.5234375 0.1953125 C11.1934375 0.8553125 10.8634375 1.5153125 10.5234375 2.1953125 C7.94140625 2.8984375 7.94140625 2.8984375 4.7109375 3.4453125 C3.12345703 3.73148438 3.12345703 3.73148438 1.50390625 4.0234375 C-1.59852865 4.20234593 -2.91082408 3.86024688 -5.4765625 2.1953125 C-3.4765625 0.1953125 -3.4765625 0.1953125 0 0 Z " fill="#F3FAFC" transform="translate(136.4765625,172.8046875)"/>
<path d="M0 0 C0.3125 2.1875 0.3125 2.1875 0 5 C-2.47447864 7.87574545 -4.8442602 9.89617347 -8 12 C-7.75988734 5.8771271 -7.75988734 5.8771271 -5.6328125 3.421875 C-1.52262931 0 -1.52262931 0 0 0 Z " fill="#4E5CC3" transform="translate(153,150)"/>
<path d="M0 0 C0.66 0.33 1.32 0.66 2 1 C0.6875 3.9375 0.6875 3.9375 -1 7 C-1.99 7.33 -2.98 7.66 -4 8 C-4 8.66 -4 9.32 -4 10 C-4.66 10 -5.32 10 -6 10 C-6.33 10.99 -6.66 11.98 -7 13 C-7.66 12.67 -8.32 12.34 -9 12 C-8.01 10.02 -7.02 8.04 -6 6 C-5.34 6 -4.68 6 -4 6 C-3.71125 5.38125 -3.4225 4.7625 -3.125 4.125 C-2 2 -2 2 0 0 Z " fill="#314CD0" transform="translate(110,202)"/>
<path d="M0 0 C3.80443255 0.54349036 5.6081779 2.03084153 8 5 C8.75 7.75 8.75 7.75 9 10 C4.71095765 8.4114658 2.67654474 5.56872632 0 2 C0 1.34 0 0.68 0 0 Z " fill="#4858C7" transform="translate(262,177)"/>
<path d="M0 0 C1.06927734 0.10828125 1.06927734 0.10828125 2.16015625 0.21875 C7.46793427 0.73309726 12.66791429 1.11849079 18 1 C18 1.66 18 2.32 18 3 C13.38 3 8.76 3 4 3 C4 3.99 4 4.98 4 6 C3.01 5.67 2.02 5.34 1 5 C0.67 3.35 0.34 1.7 0 0 Z " fill="#2B41CE" transform="translate(221,167)"/>
<path d="M0 0 C0 2.97 0 5.94 0 9 C-0.763125 8.21625 -1.52625 7.4325 -2.3125 6.625 C-4.90891805 3.92742283 -4.90891805 3.92742283 -8 2 C-8 1.34 -8 0.68 -8 0 C-2.25 -1.125 -2.25 -1.125 0 0 Z " fill="#E8ECF6" transform="translate(263,163)"/>
<path d="M0 0 C1.32 0 2.64 0 4 0 C4 1.32 4 2.64 4 4 C4.99 3.67 5.98 3.34 7 3 C7.33 5.31 7.66 7.62 8 10 C8.66 10 9.32 10 10 10 C10.66 11.98 11.32 13.96 12 16 C7.51217447 12.88345449 5.45849629 9.7068647 3 5 C2.00522955 3.33020674 1.00739746 1.66220581 0 0 Z " fill="#B0BEEE" transform="translate(187,123)"/>
<path d="M0 0 C0.99 0.33 1.98 0.66 3 1 C3.66 2.98 4.32 4.96 5 7 C-3.25 7 -11.5 7 -20 7 C-20 6.67 -20 6.34 -20 6 C-10.1 5.505 -10.1 5.505 0 5 C0 4.01 0 3.02 0 2 C0 1.34 0 0.68 0 0 Z " fill="#3F51B3" transform="translate(262,220)"/>
<path d="M0 0 C2.71928517 0.37507382 3.84218661 0.84218661 5.8125 2.8125 C7 5 7 5 6.6875 7.25 C6.460625 7.8275 6.23375 8.405 6 9 C6 8.01 6 7.02 6 6 C2.7 6 -0.6 6 -4 6 C-2.68 5.34 -1.36 4.68 0 4 C0 2.68 0 1.36 0 0 Z " fill="#314BD7" transform="translate(215,163)"/>
<path d="M0 0 C2.125 0.9375 2.125 0.9375 4 2 C4 2.99 4 3.98 4 5 C2.68 4.34 1.36 3.68 0 3 C-0.2475 3.969375 -0.495 4.93875 -0.75 5.9375 C-1.1625 6.948125 -1.575 7.95875 -2 9 C-4.0625 9.6875 -4.0625 9.6875 -6 10 C-6.33 10.99 -6.66 11.98 -7 13 C-7.66 12.67 -8.32 12.34 -9 12 C-6.25 7.125 -6.25 7.125 -4 6 C-3.67 5.175 -3.34 4.35 -3 3.5 C-2 1 -2 1 0 0 Z " fill="#B9C9F3" transform="translate(178,122)"/>
<path d="M0 0 C0.33 1.32 0.66 2.64 1 4 C1.99 3.67 2.98 3.34 4 3 C2.73058503 6.91402949 1.48832306 8.79072873 -2 11 C-1.67 9.35 -1.34 7.7 -1 6 C-1.99 6.33 -2.98 6.66 -4 7 C-2.92598892 4.08482708 -2.22189824 2.22189824 0 0 Z " fill="#6778D1" transform="translate(167,128)"/>
<path d="M0 0 C1.32 0.66 2.64 1.32 4 2 C4 4.31 4 6.62 4 9 C3.0925 8.814375 2.185 8.62875 1.25 8.4375 C-1.68314324 8.04265379 -3.2644657 8.05308428 -6 9 C-6 8.34 -6 7.68 -6 7 C-6.66 6.67 -7.32 6.34 -8 6 C-4.7 6 -1.4 6 2 6 C1.34 4.02 0.68 2.04 0 0 Z " fill="#E7EEF8" transform="translate(281,195)"/>
<path d="M0 0 C3.74281699 2.38179263 6.97727468 4.74475735 10 8 C9.67 8.66 9.34 9.32 9 10 C4.24352332 8.50259067 4.24352332 8.50259067 2 7 C0.5625 3.3125 0.5625 3.3125 0 0 Z " fill="#4D61D6" transform="translate(249,205)"/>
<path d="M0 0 C0.99 0.33 1.98 0.66 3 1 C3 1.66 3 2.32 3 3 C3.66 3 4.32 3 5 3 C6.36363208 4.97946592 7.69418644 6.9819245 9 9 C10.62351109 10.79394446 10.62351109 10.79394446 12 12 C11.67 12.99 11.34 13.98 11 15 C10.62488281 14.48050781 10.24976563 13.96101562 9.86328125 13.42578125 C7.44433038 10.12942754 5.08906847 6.95317995 2.125 4.125 C1.42375 3.42375 0.7225 2.7225 0 2 C0 1.34 0 0.68 0 0 Z " fill="#BDCAF2" transform="translate(269,180)"/>
<path d="M0 0 C0.66 0.33 1.32 0.66 2 1 C0.71937515 2.7074998 -0.61767557 4.37373596 -2 6 C-2.66 6 -3.32 6 -4 6 C-4.2475 6.928125 -4.495 7.85625 -4.75 8.8125 C-6.06454245 12.16458325 -6.97963384 13.1877803 -10 15 C-8.25 9.25 -8.25 9.25 -6 7 C-5.8453125 6.0409375 -5.8453125 6.0409375 -5.6875 5.0625 C-5 3 -5 3 -2.5625 1.1875 C-1.716875 0.795625 -0.87125 0.40375 0 0 Z " fill="#9BAAE9" transform="translate(108,202)"/>
<path d="M0 0 C0.99 0 1.98 0 3 0 C1.66666667 2.66666667 0.33333333 5.33333333 -1 8 C-1.66 8 -2.32 8 -3 8 C-3.33 8.99 -3.66 9.98 -4 11 C-6 8 -6 8 -6 5 C-4.68 5.33 -3.36 5.66 -2 6 C-1.855625 5.38125 -1.71125 4.7625 -1.5625 4.125 C-1 2 -1 2 0 0 Z " fill="#E2EDFC" transform="translate(173,115)"/>
<path d="M0 0 C2.66666667 2.66666667 5.33333333 5.33333333 8 8 C7.67 8.66 7.34 9.32 7 10 C5.68 9.34 4.36 8.68 3 8 C3.66 9.65 4.32 11.3 5 13 C3.35 11.35 1.7 9.7 0 8 C0.99 7.67 1.98 7.34 3 7 C2.505 6.21625 2.01 5.4325 1.5 4.625 C0 2 0 2 0 0 Z " fill="#717ED6" transform="translate(259,169)"/>
<path d="M0 0 C2.64 0 5.28 0 8 0 C7.505 0.391875 7.01 0.78375 6.5 1.1875 C4.54406857 3.55091715 4.75792027 5.01435003 5 8 C2.5 5.6875 2.5 5.6875 0 3 C0 2.01 0 1.02 0 0 Z " fill="#D6E1F7" transform="translate(250,201)"/>
<path d="M0 0 C3.3 0 6.6 0 10 0 C10 0.66 10 1.32 10 2 C7.69 2.33 5.38 2.66 3 3 C3 4.65 3 6.3 3 8 C1.5268006 5.25002779 0.77595125 3.10380501 0 0 Z " fill="#364DDA" transform="translate(245,196)"/>
<path d="M0 0 C1.66666667 1.66666667 3.33333333 3.33333333 5 5 C5.763125 5.721875 6.52625 6.44375 7.3125 7.1875 C9 9 9 9 9 11 C7.0625 10.6875 7.0625 10.6875 5 10 C4.67 9.01 4.34 8.02 4 7 C3.319375 6.525625 2.63875 6.05125 1.9375 5.5625 C1.298125 5.046875 0.65875 4.53125 0 4 C0 2.68 0 1.36 0 0 Z " fill="#C2D1F2" transform="translate(205,155)"/>
<path d="M0 0 C0.99 0 1.98 0 3 0 C2.82374165 2.37948772 2.30280227 3.70225849 0.59765625 5.37890625 C-0.90649092 6.62115486 -2.45129851 7.81376056 -4 9 C-3.47557578 5.2241456 -2.67345333 2.77627845 0 0 Z " fill="#3851BD" transform="translate(158,141)"/>
<path d="M0 0 C1.32 0 2.64 0 4 0 C4 1.32 4 2.64 4 4 C4.99 4 5.98 4 7 4 C6.67 4.99 6.34 5.98 6 7 C5.34 7 4.68 7 4 7 C4 6.34 4 5.68 4 5 C2.35 5 0.7 5 -1 5 C-0.67 3.35 -0.34 1.7 0 0 Z " fill="#354AC2" transform="translate(177,116)"/>
<path d="M0 0 C0.99 0 1.98 0 3 0 C7 4.34285714 7 4.34285714 7 7 C5.68 7.33 4.36 7.66 3 8 C2.67 7.01 2.34 6.02 2 5 C1.34 4.67 0.68 4.34 0 4 C0 2.68 0 1.36 0 0 Z " fill="#394FCB" transform="translate(234,187)"/>
<path d="M0 0 C0.99 0.99 1.98 1.98 3 3 C2.1875 5.4375 2.1875 5.4375 1 8 C0.01 8.33 -0.98 8.66 -2 9 C-2.33 7.02 -2.66 5.04 -3 3 C-2.01 2.67 -1.02 2.34 0 2 C0 1.34 0 0.68 0 0 Z " fill="#F1F1F0" transform="translate(202,152)"/>
<path d="M0 0 C0.33 0.99 0.66 1.98 1 3 C1.99 3 2.98 3 4 3 C4.99 4.98 5.98 6.96 7 9 C6.34 9 5.68 9 5 9 C4.01 10.485 4.01 10.485 3 12 C2.01 10.35 1.02 8.7 0 7 C0.99 6.01 1.98 5.02 3 4 C2.01 4 1.02 4 0 4 C0 2.68 0 1.36 0 0 Z " fill="#5D6AD8" transform="translate(181,116)"/>
<path d="M0 0 C0.33 0.99 0.66 1.98 1 3 C-0.62339805 4.70884005 -2.29319053 6.37446717 -4 8 C-4.66 8 -5.32 8 -6 8 C-6.28875 8.639375 -6.5775 9.27875 -6.875 9.9375 C-8 12 -8 12 -10 13 C-7.83825589 7.89042302 -3.99182242 3.78172651 0 0 Z " fill="#DDEAF8" transform="translate(172,132)"/>
<path d="M0 0 C0 3 0 3 -2.3125 5.375 C-3.199375 6.24125 -4.08625 7.1075 -5 8 C-6.05287814 9.63377642 -7.0727001 11.29181597 -8 13 C-9 11 -9 11 -8.0625 7.875 C-7.711875 6.92625 -7.36125 5.9775 -7 5 C-6.01 5 -5.02 5 -4 5 C-4 4.01 -4 3.02 -4 2 C-2.68 1.34 -1.36 0.68 0 0 Z " fill="#C4CFF6" transform="translate(160,136)"/>
<path d="M0 0 C0 3.5934292 -0.58617491 4.41970421 -3 7 C-5.6875 8.25 -5.6875 8.25 -8 9 C-6.64531705 4.12314139 -4.28324091 2.51407619 0 0 Z " fill="#6777D3" transform="translate(100,215)"/>
<path d="M0 0 C0.33 0.99 0.66 1.98 1 3 C-0.21484375 4.82421875 -0.21484375 4.82421875 -1.9375 6.6875 C-2.50339844 7.31011719 -3.06929688 7.93273437 -3.65234375 8.57421875 C-4.09707031 9.04472656 -4.54179688 9.51523438 -5 10 C-5.66 8.68 -6.32 7.36 -7 6 C-6.34 6 -5.68 6 -5 6 C-5 5.34 -5 4.68 -5 4 C-4.34 4 -3.68 4 -3 4 C-3 3.34 -3 2.68 -3 2 C-2.01 2 -1.02 2 0 2 C0 1.34 0 0.68 0 0 Z " fill="#DEE6FA" transform="translate(99,211)"/>
<path d="M0 0 C6.93 0.33 13.86 0.66 21 1 C21 1.33 21 1.66 21 2 C17.8765076 2.25427918 14.75153179 2.47412319 11.625 2.6875 C10.29082031 2.79674805 10.29082031 2.79674805 8.9296875 2.90820312 C7.65351563 2.99038086 7.65351563 2.99038086 6.3515625 3.07421875 C5.56604004 3.13182373 4.78051758 3.18942871 3.97119141 3.2487793 C2.99545166 3.12563354 2.99545166 3.12563354 2 3 C1.34 2.01 0.68 1.02 0 0 Z " fill="#4358D0" transform="translate(224,169)"/>
<path d="M0 0 C1.65 0 3.3 0 5 0 C5 1.32 5 2.64 5 4 C5.66 4 6.32 4 7 4 C7.33 5.32 7.66 6.64 8 8 C7.01 8 6.02 8 5 8 C4.67 6.02 4.34 4.04 4 2 C2.68 2 1.36 2 0 2 C0 1.34 0 0.68 0 0 Z " fill="#273EDA" transform="translate(242,200)"/>
<path d="M0 0 C0.66 0 1.32 0 2 0 C2.66 3.3 3.32 6.6 4 10 C3.34 10 2.68 10 2 10 C0.02 6.535 0.02 6.535 -2 3 C-1.34 3 -0.68 3 0 3 C0 2.01 0 1.02 0 0 Z " fill="#E0EAF6" transform="translate(216,153)"/>
<path d="M0 0 C1.32 0.33 2.64 0.66 4 1 C3.01 1.33 2.02 1.66 1 2 C-0.40393393 3.63125378 -0.40393393 3.63125378 -1.625 5.5625 C-2.39538602 6.72274804 -3.1818915 7.87289369 -4 9 C-4.33 9 -4.66 9 -5 9 C-5 7.35 -5 5.7 -5 4 C-4.01 3.67 -3.02 3.34 -2 3 C-1.34 2.01 -0.68 1.02 0 0 Z " fill="#BFCCF6" transform="translate(114,193)"/>
<path d="M0 0 C2.475 0.99 2.475 0.99 5 2 C5 2.99 5 3.98 5 5 C5.99 4.67 6.98 4.34 8 4 C8 5.65 8 7.3 8 9 C6.84775972 8.07038578 5.70340824 7.1309875 4.5625 6.1875 C3.60537109 5.40439453 3.60537109 5.40439453 2.62890625 4.60546875 C1 3 1 3 0 0 Z " fill="#C2CEF3" transform="translate(206,147)"/>
<path d="M0 0 C2 1.3125 2 1.3125 4 3 C4 3.99 4 4.98 4 6 C1.5625 5.1875 1.5625 5.1875 -1 4 C-1.33 3.01 -1.66 2.02 -2 1 C-1.34 0.67 -0.68 0.34 0 0 Z " fill="#3F54C3" transform="translate(226,175)"/>
<path d="M0 0 C0.99 0 1.98 0 3 0 C3 0.66 3 1.32 3 2 C4.98 2 6.96 2 9 2 C6.08291076 3.98362069 4.87619096 3.9876191 1.25 3.625 C0.1775 3.41875 -0.895 3.2125 -2 3 C-1.34 2.01 -0.68 1.02 0 0 Z " fill="#F7F8F0" transform="translate(133,173)"/>
<path d="M0 0 C1.24546405 2.49092811 0.7767578 3.41080733 0 6 C0.99 6 1.98 6 3 6 C3 6.66 3 7.32 3 8 C0.69 7.67 -1.62 7.34 -4 7 C-2.68 4.69 -1.36 2.38 0 0 Z " fill="#DBE2F5" transform="translate(152,155)"/>
<path d="M0 0 C3.28788824 3.11016455 5.83735988 6.01618925 8 10 C7.01 10.495 7.01 10.495 6 11 C5.67 10.01 5.34 9.02 5 8 C4.01 7.34 3.02 6.68 2 6 C0.8125 2.875 0.8125 2.875 0 0 Z " fill="#98A6E4" transform="translate(188,132)"/>
<path d="M0 0 C3.73884332 2.65654657 5.64978174 4.58110387 7 9 C6.01 9 5.02 9 4 9 C4 7.68 4 6.36 4 5 C2.68 4.67 1.36 4.34 0 4 C0 2.68 0 1.36 0 0 Z " fill="#C8D6F2" transform="translate(183,127)"/>
<path d="M0 0 C0.99 0.66 1.98 1.32 3 2 C3 2.99 3 3.98 3 5 C1.02 5 -0.96 5 -3 5 C-2.01 3.35 -1.02 1.7 0 0 Z " fill="#2843D6" transform="translate(250,220)"/>
<path d="M0 0 C0.99 0.66 1.98 1.32 3 2 C3 2.99 3 3.98 3 5 C1.35 4.67 -0.3 4.34 -2 4 C-2 3.01 -2 2.02 -2 1 C-1.34 0.67 -0.68 0.34 0 0 Z " fill="#4E60C1" transform="translate(259,171)"/>
<path d="M0 0 C0.66 0 1.32 0 2 0 C1.74438677 2.3431213 1.40729228 4.67843403 1 7 C0.01 7.495 0.01 7.495 -1 8 C-1.04241723 5.66705225 -1.04092937 3.33297433 -1 1 C-0.67 0.67 -0.34 0.34 0 0 Z " fill="#F4FBEF" transform="translate(174,131)"/>
<path d="M0 0 C0.33 1.32 0.66 2.64 1 4 C-0.32 4.99 -1.64 5.98 -3 7 C-3.1875 4.625 -3.1875 4.625 -3 2 C-2.01 1.34 -1.02 0.68 0 0 Z " fill="#3F4CBF" transform="translate(148,155)"/>
<path d="M0 0 C2.78388975 1.70625501 3.85384206 2.47626739 4.75 5.6875 C4.8325 6.450625 4.915 7.21375 5 8 C4.34 8 3.68 8 3 8 C3 7.34 3 6.68 3 6 C2.34 6 1.68 6 1 6 C0.67 4.02 0.34 2.04 0 0 Z " fill="#C3D0F1" transform="translate(196,143)"/>
<path d="M0 0 C0.66 0.33 1.32 0.66 2 1 C-0.75 6.875 -0.75 6.875 -3 8 C-2.45276317 4.62537285 -1.9451 2.91765 0 0 Z " fill="#E7EFF8" transform="translate(151,143)"/>
<path d="M0 0 C0.99 0.33 1.98 0.66 3 1 C4.1875 4.0625 4.1875 4.0625 5 7 C3.35 6.67 1.7 6.34 0 6 C0.33 5.34 0.66 4.68 1 4 C0.60061233 1.90178785 0.60061233 1.90178785 0 0 Z " fill="#475BB4" transform="translate(262,220)"/>
<path d="M0 0 C0.66 0 1.32 0 2 0 C2 1.32 2 2.64 2 4 C1.34 4 0.68 4 0 4 C-0.33 4.99 -0.66 5.98 -1 7 C-1.66 6.67 -2.32 6.34 -3 6 C-2.01 4.02 -1.02 2.04 0 0 Z " fill="#4255CA" transform="translate(104,208)"/>
<path d="M0 0 C0.66 0 1.32 0 2 0 C2 0.66 2 1.32 2 2 C2.99 2.33 3.98 2.66 5 3 C5 3.99 5 4.98 5 6 C3.0625 5.25 3.0625 5.25 1 4 C0.25 1.875 0.25 1.875 0 0 Z " fill="#3B49BE" transform="translate(266,181)"/>
<path d="M0 0 C4.8 3.44615385 4.8 3.44615385 5.8125 6.25 C5.874375 6.8275 5.93625 7.405 6 8 C4.125 7.375 4.125 7.375 2 6 C0.75 2.875 0.75 2.875 0 0 Z " fill="#97A8E4" transform="translate(264,182)"/>
<path d="M0 0 C0.33 0.66 0.66 1.32 1 2 C-0.25 4.625 -0.25 4.625 -2 7 C-2.99 7 -3.98 7 -5 7 C-5 6.34 -5 5.68 -5 5 C-4.34 5 -3.68 5 -3 5 C-2.5359375 4.0409375 -2.5359375 4.0409375 -2.0625 3.0625 C-1 1 -1 1 0 0 Z " fill="#C5D3F3" transform="translate(158,148)"/>
</svg>
