<?xml version="1.0" encoding="UTF-8"?>
<svg version="1.1" xmlns="http://www.w3.org/2000/svg" width="400" height="400">
<path d="M0 0 C132 0 264 0 400 0 C400 132 400 264 400 400 C268 400 136 400 0 400 C0 268 0 136 0 0 Z " fill="#441F9B" transform="translate(0,0)"/>
<path d="M0 0 C2 0.375 2 0.375 4 1 C4.99 0.67 5.98 0.34 7 0 C13.32210122 -0.76064729 18.83637369 0.06141769 24 4 C24.495 5.485 24.495 5.485 25 7 C24.67 7.66 24.34 8.32 24 9 C22.741875 8.67 21.48375 8.34 20.1875 8 C14.77206832 6.77549156 9.52504829 6.81411052 4 7 C4.66 9.31 5.32 11.62 6 14 C9.3 14.33 12.6 14.66 16 15 C16 15.66 16 16.32 16 17 C16.763125 17.12375 17.52625 17.2475 18.3125 17.375 C21 18 21 18 24 20 C24.29296875 22.1640625 24.29296875 22.1640625 24.1875 24.625 C24.14689453 25.85089844 24.14689453 25.85089844 24.10546875 27.1015625 C24.07066406 27.72804687 24.03585938 28.35453125 24 29 C18.921875 31.9296875 18.921875 31.9296875 17 33 C16.38898438 33.36996094 15.77796875 33.73992187 15.1484375 34.12109375 C8.40634532 36.87922237 -0.89831155 35.073483 -7.9765625 34.12109375 C-10.20559903 33.86167963 -10.20559903 33.86167963 -13 35 C-14.66710346 36.49985609 -14.66710346 36.49985609 -16 38 C-16.66 37.67 -17.32 37.34 -18 37 C-21.56904913 36.90024397 -25.13270098 36.80103583 -28.703125 36.83398438 C-30.94080188 36.77010606 -32.84915798 36.62583586 -35 36 C-37.76201486 33.05385082 -38.83921675 31.09303109 -39.42578125 27.10546875 C-39.38839844 26.14253906 -39.35101563 25.17960937 -39.3125 24.1875 C-39.27769531 23.15496094 -39.24289063 22.12242187 -39.20703125 21.05859375 C-38.93317094 17.01269526 -38.53598848 13.0199136 -38 9 C-37.34 9 -36.68 9 -36 9 C-35.979375 8.4225 -35.95875 7.845 -35.9375 7.25 C-34.73576955 4.36584692 -33.03273496 3.19008101 -30.296875 1.765625 C-25.12641418 0.04213806 -19.00244147 -0.19206396 -13.89453125 1.8359375 C-12.25 2.875 -12.25 2.875 -10 5 C-10 5.66 -10 6.32 -10 7 C-9.34 7 -8.68 7 -8 7 C-7.97421875 7.91523438 -7.9484375 8.83046875 -7.921875 9.7734375 C-7.86515625 10.96195313 -7.8084375 12.15046875 -7.75 13.375 C-7.70359375 14.55835938 -7.6571875 15.74171875 -7.609375 16.9609375 C-7.40828125 17.96382812 -7.2071875 18.96671875 -7 20 C-5.01997861 21.2181959 -5.01997861 21.2181959 -3 22 C-3.01571045 21.44014404 -3.0314209 20.88028809 -3.04760742 20.3034668 C-3.10999848 17.7649141 -3.14900218 15.22652271 -3.1875 12.6875 C-3.21263672 11.80642578 -3.23777344 10.92535156 -3.26367188 10.01757812 C-3.27333984 9.17001953 -3.28300781 8.32246094 -3.29296875 7.44921875 C-3.3086792 6.66893311 -3.32438965 5.88864746 -3.34057617 5.0847168 C-2.91357337 2.47096989 -2.10076033 1.56703122 0 0 Z " fill="#4E3196" transform="translate(118,182)"/>
<path d="M0 0 C3.5 0.125 3.5 0.125 4.5 1.125 C4.5927833 2.50660115 4.61747043 3.89288038 4.61352539 5.27758789 C4.61344986 6.15842545 4.61337433 7.039263 4.61329651 7.9467926 C4.60813522 8.90407761 4.60297394 9.86136261 4.59765625 10.84765625 C4.5962413 11.82286728 4.59482635 12.79807831 4.59336853 13.80284119 C4.58775133 16.93109143 4.57519593 20.05927123 4.5625 23.1875 C4.55748722 25.30273334 4.55292393 27.41796781 4.54882812 29.53320312 C4.53777631 34.73049296 4.52102146 39.92774145 4.5 45.125 C1.86 45.125 -0.78 45.125 -3.5 45.125 C-3.995 42.65 -3.995 42.65 -4.5 40.125 C-5.49 40.125 -6.48 40.125 -7.5 40.125 C-7.644375 40.764375 -7.78875 41.40375 -7.9375 42.0625 C-8.5 44.125 -8.5 44.125 -9.5 45.125 C-11.828125 45.3984375 -11.828125 45.3984375 -14.75 45.5 C-15.70390625 45.54898438 -16.6578125 45.59796875 -17.640625 45.6484375 C-20.5 45.125 -20.5 45.125 -23.31640625 43.3515625 C-26.6327018 38.45127605 -26.26689879 33.91075518 -26.1875 28.125 C-26.21521484 27.04476562 -26.24292969 25.96453125 -26.27148438 24.8515625 C-26.24841416 17.37681177 -26.24841416 17.37681177 -24.39257812 14.27270508 C-21.65841079 11.66201925 -19.32481146 11.10288023 -15.6328125 10.63671875 C-14.29599214 10.66948395 -12.95957729 10.72844232 -11.625 10.8125 C-10.93664062 10.83505859 -10.24828125 10.85761719 -9.5390625 10.88085938 C-7.85841755 10.9392151 -6.17890847 11.02887929 -4.5 11.125 C-4.51160156 10.41472656 -4.52320313 9.70445312 -4.53515625 8.97265625 C-4.54417969 8.05355469 -4.55320313 7.13445312 -4.5625 6.1875 C-4.57410156 5.27097656 -4.58570313 4.35445312 -4.59765625 3.41015625 C-4.43788027 -0.3286017 -3.88087844 0.1386028 0 0 Z " fill="#F7F1FC" transform="translate(247.5,171.875)"/>
<path d="M0 0 C2.7302389 -0.1083667 5.45614543 -0.18746694 8.1875 -0.25 C8.95642578 -0.28351563 9.72535156 -0.31703125 10.51757812 -0.3515625 C14.45818136 -0.41921234 16.51964069 -0.28382014 19.98828125 1.765625 C22.86685957 4.96280325 23.09405955 7.91655144 23.31640625 12.109375 C23.35830078 12.86347656 23.40019531 13.61757812 23.44335938 14.39453125 C23.48267578 15.17183594 23.52199219 15.94914063 23.5625 16.75 C23.60568359 17.54277344 23.64886719 18.33554688 23.69335938 19.15234375 C23.79902991 21.10137815 23.89997966 23.05066748 24 25 C25.32 25.66 26.64 26.32 28 27 C28 29.31 28 31.62 28 34 C23.42409231 34.31199371 21.49497103 33.91247585 18 31 C15.85266073 30.29485154 15.85266073 30.29485154 14 30 C14 30.66 14 31.32 14 32 C10.46763908 34.35490728 8.75279632 34.32743705 4.5625 34.375 C3.42941406 34.40335938 2.29632813 34.43171875 1.12890625 34.4609375 C-2 34 -2 34 -4.39453125 32.3359375 C-6.40384583 29.41240924 -6.4172286 27.76180057 -6.25 24.25 C-6.21390625 23.26515625 -6.1778125 22.2803125 -6.140625 21.265625 C-6.09421875 20.51796875 -6.0478125 19.7703125 -6 19 C-4.68 18.67 -3.36 18.34 -2 18 C-2 17.34 -2 16.68 -2 16 C1.42232972 14.85922343 4.08673217 14.90184883 7.6875 14.9375 C9.45673828 14.95103516 9.45673828 14.95103516 11.26171875 14.96484375 C12.16535156 14.97644531 13.06898438 14.98804688 14 15 C13.67 12.69 13.34 10.38 13 8 C10.36 7.67 7.72 7.34 5 7 C5 7.66 5 8.32 5 9 C1.5647952 11.29013653 0.014669 11.17842973 -4 11 C-4.6875 8.75 -4.6875 8.75 -5 6 C-3.6875 3.6875 -3.6875 3.6875 -2 2 C-1.34 2 -0.68 2 0 2 C0 1.34 0 0.68 0 0 Z " fill="#EBE2F7" transform="translate(266,183)"/>
<path d="M0 0 C1.28648437 -0.01933594 2.57296875 -0.03867188 3.8984375 -0.05859375 C8.15315284 0.50780965 10.34616951 1.71190871 13.625 4.4375 C13.625 5.0975 13.625 5.7575 13.625 6.4375 C14.285 6.4375 14.945 6.4375 15.625 6.4375 C15.625 13.3675 15.625 20.2975 15.625 27.4375 C17.605 27.7675 19.585 28.0975 21.625 28.4375 C21.625 30.4175 21.625 32.3975 21.625 34.4375 C14.04265071 34.81040242 14.04265071 34.81040242 11.875 32.875 C11.4625 32.400625 11.05 31.92625 10.625 31.4375 C8.33896869 31.65872884 6.84893451 32.30603845 4.875 33.46484375 C2.01059592 34.70310176 -0.32378865 34.77391622 -3.4375 34.8125 C-4.48035156 34.84085938 -5.52320313 34.86921875 -6.59765625 34.8984375 C-9.375 34.4375 -9.375 34.4375 -11.2265625 32.796875 C-12.67904165 29.81287022 -12.74034885 27.62165133 -12.6875 24.3125 C-12.68363281 23.25804687 -12.67976563 22.20359375 -12.67578125 21.1171875 C-12.375 18.4375 -12.375 18.4375 -10.375 16.4375 C-8.49560547 16.21044922 -8.49560547 16.21044922 -6.2421875 16.2421875 C-5.03369141 16.25185547 -5.03369141 16.25185547 -3.80078125 16.26171875 C-2.53814453 16.28685547 -2.53814453 16.28685547 -1.25 16.3125 C0.02423828 16.32603516 0.02423828 16.32603516 1.32421875 16.33984375 C3.42459884 16.36344353 5.52483444 16.39931517 7.625 16.4375 C7.480625 15.138125 7.33625 13.83875 7.1875 12.5 C7.06568359 11.40365234 7.06568359 11.40365234 6.94140625 10.28515625 C6.80613386 8.42609771 6.80613386 8.42609771 5.625 7.4375 C2.83312362 7.25737894 0.37666866 7.10124721 -2.375 7.4375 C-3.39519573 8.4168879 -4.39649805 9.41645449 -5.375 10.4375 C-9.0625 10.625 -9.0625 10.625 -12.375 10.4375 C-11.88830029 3.98872889 -11.88830029 3.98872889 -9.7890625 1.734375 C-6.44552288 -0.06183075 -3.77913081 0.00377159 0 0 Z " fill="#E7DDF5" transform="translate(346.375,182.5625)"/>
<path d="M0 0 C3.92622294 5.01684042 2.59305785 10.6999587 2.25 16.875 C-5.67 16.875 -13.59 16.875 -21.75 16.875 C-21.75 19.515 -21.75 22.155 -21.75 24.875 C-21.09 24.875 -20.43 24.875 -19.75 24.875 C-19.75 25.535 -19.75 26.195 -19.75 26.875 C-18.14620659 26.92916188 -16.54188594 26.96786638 -14.9375 27 C-14.04417969 27.02320313 -13.15085937 27.04640625 -12.23046875 27.0703125 C-9.49597286 27.05785827 -9.49597286 27.05785827 -6.75 24.875 C-3.5625 24.75 -3.5625 24.75 -0.75 24.875 C-0.9375 27.1875 -0.9375 27.1875 -1.75 29.875 C-5.82110992 33.14422463 -9.54584319 33.24972451 -14.5625 33.0625 C-15.60180664 33.04219727 -15.60180664 33.04219727 -16.66210938 33.02148438 C-18.35841265 32.98638845 -20.05431136 32.93258943 -21.75 32.875 C-21.75 32.215 -21.75 31.555 -21.75 30.875 C-22.389375 30.565625 -23.02875 30.25625 -23.6875 29.9375 C-25.75 28.875 -25.75 28.875 -26.75 27.875 C-27.13955715 20.81714105 -26.68248069 13.86860519 -25.75 6.875 C-25.09 6.875 -24.43 6.875 -23.75 6.875 C-23.729375 6.2975 -23.70875 5.72 -23.6875 5.125 C-22.48576955 2.24084692 -20.78273496 1.06508101 -18.046875 -0.359375 C-12.05702285 -2.35599238 -5.9547036 -1.78641108 0 0 Z " fill="#ECE0F8" transform="translate(105.75,184.125)"/>
<path d="M0 0 C1.134375 0.020625 2.26875 0.04125 3.4375 0.0625 C3.4375 3.6925 3.4375 7.3225 3.4375 11.0625 C8.0575 11.0625 12.6775 11.0625 17.4375 11.0625 C17.4375 13.0425 17.4375 15.0225 17.4375 17.0625 C12.8175 17.0625 8.1975 17.0625 3.4375 17.0625 C3.55131897 20.00082645 3.67806551 22.9376065 3.8125 25.875 C3.85890625 27.12506836 3.85890625 27.12506836 3.90625 28.40039062 C3.94492187 29.20283203 3.98359375 30.00527344 4.0234375 30.83203125 C4.07056885 31.93961792 4.07056885 31.93961792 4.11865234 33.06958008 C4.34584614 35.37599588 4.34584614 35.37599588 6.4375 38.0625 C9.0931728 38.64598752 9.0931728 38.64598752 12.0625 38.75 C13.06539063 38.81574219 14.06828125 38.88148438 15.1015625 38.94921875 C15.87242187 38.98660156 16.64328125 39.02398437 17.4375 39.0625 C17.4375 41.0425 17.4375 43.0225 17.4375 45.0625 C3.4743538 45.75109351 3.4743538 45.75109351 -0.4375 43.1875 C-1.489375 42.135625 -1.489375 42.135625 -2.5625 41.0625 C-2.5625 40.4025 -2.5625 39.7425 -2.5625 39.0625 C-3.2225 39.0625 -3.8825 39.0625 -4.5625 39.0625 C-4.5625 31.8025 -4.5625 24.5425 -4.5625 17.0625 C-7.2025 17.0625 -9.8425 17.0625 -12.5625 17.0625 C-12.5625 15.4125 -12.5625 13.7625 -12.5625 12.0625 C-9.9225 12.0625 -7.2825 12.0625 -4.5625 12.0625 C-4.57410156 11.28003906 -4.58570313 10.49757812 -4.59765625 9.69140625 C-4.60667969 8.67949219 -4.61570312 7.66757813 -4.625 6.625 C-4.63660156 5.61566406 -4.64820313 4.60632813 -4.66015625 3.56640625 C-4.50618986 -0.38129207 -4.09874205 0.07190776 0 0 Z " fill="#EFE7FA" transform="translate(308.5625,171.9375)"/>
<path d="M0 0 C1.53125 1.16796875 1.53125 1.16796875 2.53125 4.16796875 C2.20125 4.82796875 1.87125 5.48796875 1.53125 6.16796875 C0.273125 5.83796875 -0.985 5.50796875 -2.28125 5.16796875 C-7.69668168 3.94346031 -12.94370171 3.98207927 -18.46875 4.16796875 C-17.80875 6.47796875 -17.14875 8.78796875 -16.46875 11.16796875 C-13.16875 11.49796875 -9.86875 11.82796875 -6.46875 12.16796875 C-6.46875 12.82796875 -6.46875 13.48796875 -6.46875 14.16796875 C-5.705625 14.29171875 -4.9425 14.41546875 -4.15625 14.54296875 C-1.46875 15.16796875 -1.46875 15.16796875 1.53125 17.16796875 C1.82421875 19.33203125 1.82421875 19.33203125 1.71875 21.79296875 C1.69167969 22.61023438 1.66460937 23.4275 1.63671875 24.26953125 C1.60191406 24.89601562 1.56710938 25.5225 1.53125 26.16796875 C-3.546875 29.09765625 -3.546875 29.09765625 -5.46875 30.16796875 C-6.066875 30.53921875 -6.665 30.91046875 -7.28125 31.29296875 C-10.32111657 32.50891538 -12.95976989 32.35814835 -16.21875 32.29296875 C-17.38921875 32.27492187 -18.5596875 32.256875 -19.765625 32.23828125 C-20.65765625 32.21507812 -21.5496875 32.191875 -22.46875 32.16796875 C-22.46875 31.50796875 -22.46875 30.84796875 -22.46875 30.16796875 C-23.4278125 30.01328125 -23.4278125 30.01328125 -24.40625 29.85546875 C-25.086875 29.62859375 -25.7675 29.40171875 -26.46875 29.16796875 C-26.79875 28.17796875 -27.12875 27.18796875 -27.46875 26.16796875 C-27.13875 25.50796875 -26.80875 24.84796875 -26.46875 24.16796875 C-23.34584365 24.65375418 -20.47294641 25.16656995 -17.46875 26.16796875 C-12.93270485 26.31429279 -8.89421179 26.2743342 -4.46875 25.16796875 C-5.12875 23.18796875 -5.78875 21.20796875 -6.46875 19.16796875 C-7.26539063 19.1421875 -8.06203125 19.11640625 -8.8828125 19.08984375 C-18.64899957 18.56707948 -18.64899957 18.56707948 -22.21875 16.73046875 C-25.20712777 13.32703851 -25.20603402 11.00351178 -24.92578125 6.578125 C-24.27566823 3.14975119 -23.09566407 1.43989444 -20.46875 -0.83203125 C-13.85121711 -4.80255098 -6.49089797 -3.36135788 0 0 Z " fill="#E9DDF8" transform="translate(140.46875,184.83203125)"/>
<path d="M0 0 C1.32 0 2.64 0 4 0 C4 3.63 4 7.26 4 11 C8.62 11 13.24 11 18 11 C17.67 12.98 17.34 14.96 17 17 C12.38 17 7.76 17 3 17 C2.93941406 18.00160156 2.87882813 19.00320312 2.81640625 20.03515625 C2.73191595 21.37761331 2.64727232 22.72006072 2.5625 24.0625 C2.48128906 25.37347656 2.40007812 26.68445313 2.31640625 28.03515625 C2.02101751 31.73663238 1.56734612 35.33370448 1 39 C5.29 39 9.58 39 14 39 C14 40.65 14 42.3 14 44 C12.14234332 45.85765668 9.24167111 45.25942629 6.75 45.3125 C5.61046875 45.34988281 4.4709375 45.38726562 3.296875 45.42578125 C-0.80937552 44.89547165 -2.34995331 44.19680354 -5 41 C-5.62520888 38.01697974 -5.51709208 35.15793086 -5.375 32.125 C-5.35373047 30.93970703 -5.35373047 30.93970703 -5.33203125 29.73046875 C-5.22405557 25.40424298 -4.83491134 21.25667914 -4 17 C-6.64 16.67 -9.28 16.34 -12 16 C-11.67 14.35 -11.34 12.7 -11 11 C-8.03 11 -5.06 11 -2 11 C-1.93941406 10.28972656 -1.87882813 9.57945312 -1.81640625 8.84765625 C-1.73261719 7.92855469 -1.64882812 7.00945312 -1.5625 6.0625 C-1.48128906 5.14597656 -1.40007812 4.22945312 -1.31640625 3.28515625 C-1 1 -1 1 0 0 Z " fill="#DBCDF2" transform="translate(163,172)"/>
<path d="M0 0 C3.3125 2.0625 3.3125 2.0625 5 5 C5.3125 8.8125 5.3125 8.8125 5 12 C3.35 12 1.7 12 0 12 C-0.33 10.35 -0.66 8.7 -1 7 C-7.63489792 6.61672598 -7.63489792 6.61672598 -14 8.1875 C-17.1247055 11.01926436 -17.90280396 13.88653357 -18.265625 18.04296875 C-18.25789063 19.59951172 -18.25789063 19.59951172 -18.25 21.1875 C-18.25515625 22.23292969 -18.2603125 23.27835938 -18.265625 24.35546875 C-18.26611691 27.15581521 -18.26611691 27.15581521 -16 29 C-11.15766924 29.73706273 -7.19666032 29.83245935 -3.125 27 C-2.42375 26.34 -1.7225 25.68 -1 25 C0.32 25 1.64 25 3 25 C3 26.32 3 27.64 3 29 C2.34 29 1.68 29 1 29 C0.87625 29.928125 0.87625 29.928125 0.75 30.875 C0 33 0 33 -1.5859375 34.109375 C-4.90428364 35.33361921 -7.84403259 35.3397608 -11.375 35.375 C-12.66148438 35.40335938 -13.94796875 35.43171875 -15.2734375 35.4609375 C-19.75207642 34.90697587 -21.79809643 34.20679198 -25 31 C-25.80423976 27.84802229 -25.70297146 24.85830809 -25.5625 21.625 C-25.56056641 20.78710938 -25.55863281 19.94921875 -25.55664062 19.0859375 C-25.43365809 13.29209373 -24.54405612 8.78918652 -20.5 4.35546875 C-14.04836587 -0.66806929 -7.99315864 -0.87034393 0 0 Z " fill="#C4B6E0" transform="translate(33,182)"/>
<path d="M0 0 C5.77686575 0.56635939 9.7002739 1.3112655 13.5703125 5.8359375 C19.03789636 12.94115518 20.34305896 17.45178343 20.3125 26.375 C20.32861328 27.30828125 20.34472656 28.2415625 20.36132812 29.203125 C20.36514615 34.59417889 19.9738017 38.32992478 17 43 C16.5771875 43.67546875 16.154375 44.3509375 15.71875 45.046875 C15.3165625 45.60890625 14.914375 46.1709375 14.5 46.75 C14.0978125 47.32234375 13.695625 47.8946875 13.28125 48.484375 C12 50 12 50 9 52 C8.01 52 7.02 52 6 52 C6 52.66 6 53.32 6 54 C3.69 54 1.38 54 -1 54 C-0.9375 51.75 -0.9375 51.75 0 49 C1.73368161 48.05138176 3.46969605 47.10631414 5.22558594 46.19946289 C8.5037381 43.9835078 9.75939294 40.66367371 11 37 C11.50899485 33.6022631 11.51719577 30.30448899 11.4375 26.875 C11.44458984 26.00746094 11.45167969 25.13992187 11.45898438 24.24609375 C11.40816305 19.10923051 10.92088782 15.39448889 8 11 C5.9844421 9.04995737 3.86702495 7.41685158 1.64453125 5.7109375 C0 4 0 4 0 0 Z " fill="#797183" transform="translate(374,173)"/>
<path d="M0 0 C0 1.32 0 2.64 0 4 C-0.928125 4.226875 -1.85625 4.45375 -2.8125 4.6875 C-6.65131473 6.26818842 -7.27252129 7.29825991 -9 11 C-9.51433594 12.01707031 -10.02867187 13.03414062 -10.55859375 14.08203125 C-12.44871325 18.52488831 -12.44281167 22.73057915 -12.375 27.5 C-12.38660156 28.31597656 -12.39820313 29.13195312 -12.41015625 29.97265625 C-12.3841257 35.37833341 -11.70395886 39.27851776 -9 44 C-6.8184091 45.84740324 -6.8184091 45.84740324 -4.3125 46.9375 C-3.50425781 47.33839844 -2.69601563 47.73929688 -1.86328125 48.15234375 C-1.24839844 48.43207031 -0.63351563 48.71179688 0 49 C0 50.98 0 52.96 0 55 C-6.16857998 54.6298852 -8.75775103 53.24224897 -13 49 C-13.69748583 47.68252676 -14.36959957 46.35085807 -15 45 C-15.99 44.38125 -15.99 44.38125 -17 43.75 C-21.00089203 40.24921947 -20.89644226 35.30620833 -21.29296875 30.3046875 C-21.77292999 19.9524845 -20.06606147 12.3847841 -13.6875 3.9375 C-9.46777833 0.89537507 -5.22876306 0 0 0 Z " fill="#77727E" transform="translate(213,173)"/>
<path d="M0 0 C0 0.66 0 1.32 0 2 C4.455 2.99 4.455 2.99 9 4 C9 4.66 9 5.32 9 6 C9.66 6 10.32 6 11 6 C11.19916016 6.84304687 11.19916016 6.84304687 11.40234375 7.703125 C12.02437111 10.09366153 12.77115041 12.41035775 13.5625 14.75 C13.83191406 15.54921875 14.10132813 16.3484375 14.37890625 17.171875 C14.58386719 17.77515625 14.78882813 18.3784375 15 19 C12.35813211 17.67906606 11.91397387 16.22690297 10.5625 13.625 C8.44347952 9.54638378 6.93039174 6.73871684 2.51953125 5.05078125 C1.62621094 4.80714844 0.73289062 4.56351563 -0.1875 4.3125 C-1.08855469 4.06113281 -1.98960937 3.80976563 -2.91796875 3.55078125 C-3.94857422 3.27814453 -3.94857422 3.27814453 -5 3 C-3.79609454 7.96611002 -0.73272674 10.14949239 3.125 13.15625 C7.22682828 17.18971447 7.29639414 21.68438167 7.37109375 27.15820312 C7.37302734 28.47208008 7.37302734 28.47208008 7.375 29.8125 C7.39949219 30.67681641 7.42398437 31.54113281 7.44921875 32.43164062 C7.47647394 38.45049485 6.42144599 42.98538453 3 48 C0.29119745 50.57666584 -1.46314783 51.82104928 -5 53 C-5.73323796 55.01508358 -5.73323796 55.01508358 -6 57 C-3.69 57 -1.38 57 1 57 C1 56.34 1 55.68 1 55 C1.94875 54.7525 2.8975 54.505 3.875 54.25 C7.04330513 53.33652717 7.04330513 53.33652717 8.1875 51.125 C8.455625 50.42375 8.72375 49.7225 9 49 C9.7425 48.0409375 9.7425 48.0409375 10.5 47.0625 C14.3393937 41.78333366 14.3993192 36.49245722 14.625 30.1875 C14.66367187 29.30384766 14.70234375 28.42019531 14.7421875 27.50976562 C14.83600784 25.34017028 14.91907326 23.17011453 15 21 C17.65147064 23.65147064 17.28937297 25.66903888 17.32226562 29.28125 C17.31904297 30.0959375 17.31582031 30.910625 17.3125 31.75 C17.32861328 32.54921875 17.34472656 33.3484375 17.36132812 34.171875 C17.36550864 39.25537913 16.62532267 42.52229229 14 47 C13.5359375 48.60875 13.5359375 48.60875 13.0625 50.25 C12 53 12 53 10.0625 54.125 C9.381875 54.41375 8.70125 54.7025 8 55 C7.505 55.680625 7.01 56.36125 6.5 57.0625 C4.69817466 59.38985774 3.82257752 59.48680409 1 60 C-0.3479743 60.63654342 -1.68596724 61.29605388 -3 62 C-5.31 60.35 -7.62 58.7 -10 57 C-9.53256152 52.88654141 -9.11081018 49.88860945 -6 47 C-3.3125 46.75 -3.3125 46.75 -1 47 C-0.67 44.36 -0.34 41.72 0 39 C1.485 38.505 1.485 38.505 3 38 C3.19504458 35.89651926 3.38078496 33.79217415 3.5625 31.6875 C3.66691406 30.51574219 3.77132813 29.34398437 3.87890625 28.13671875 C4.18577434 24.96967425 4.18577434 24.96967425 3 22 C2.96045766 19.66700175 2.95598268 17.33291811 3 15 C2.21625 14.855625 1.4325 14.71125 0.625 14.5625 C-2 14 -2 14 -4 13 C-4 12.34 -4 11.68 -4 11 C-4.99 10.67 -5.98 10.34 -7 10 C-8.56864191 7.17644456 -9.04378901 5.48167913 -8.75 2.25 C-8.5025 1.5075 -8.255 0.765 -8 0 C-5.13822943 -1.43088528 -3.06624227 -0.59991697 0 0 Z " fill="#4C2C97" transform="translate(379,170)"/>
<path d="M0 0 C3.3 0 6.6 0 10 0 C10.495 19.8 10.495 19.8 11 40 C13.40453197 37.59546803 13.4511672 36.29299683 14 33 C14.62801245 29.94965384 15.19050645 28.71424032 17 26 C16.7728986 24.02097348 16.5392961 22.04153131 16.2265625 20.07421875 C15.91893189 17.25780746 16.38171909 14.74791514 17 12 C24.71677037 9.29349181 31.64759264 7.29012568 39.5 10.375 C42 12 42 12 43 14 C42.01 13.67 41.02 13.34 40 13 C38.66636297 12.85596652 37.32781954 12.75409577 35.98828125 12.68359375 C35.23095703 12.64169922 34.47363281 12.59980469 33.69335938 12.55664062 C32.51483398 12.49766602 32.51483398 12.49766602 31.3125 12.4375 C30.51521484 12.39431641 29.71792969 12.35113281 28.89648438 12.30664062 C26.93118553 12.20072632 24.96561504 12.09987449 23 12 C23 12.66 23 13.32 23 14 C22.34 14.61875 21.68 15.2375 21 15.875 C18.5430902 17.9991076 18.5430902 17.9991076 19 22 C22.34252724 22.07427838 24.8035914 22.06546953 28 21 C28 20.34 28 19.68 28 19 C34.15234375 18.90234375 34.15234375 18.90234375 36 19 C37 20 37 20 37 27 C31.72 27.33 26.44 27.66 21 28 C21 28.66 21 29.32 21 30 C20.01 30.33 19.02 30.66 18 31 C17.95101562 31.74765625 17.90203125 32.4953125 17.8515625 33.265625 C17.77679688 34.25046875 17.70203125 35.2353125 17.625 36.25 C17.55539062 37.22453125 17.48578125 38.1990625 17.4140625 39.203125 C16.83876709 43.08908268 15.76564654 45.23435346 13 48 C9.7421875 47.9765625 9.7421875 47.9765625 5.875 47.625 C4.59367187 47.51414063 3.31234375 47.40328125 1.9921875 47.2890625 C0.51105469 47.14597656 0.51105469 47.14597656 -1 47 C-1 45.35 -1 43.7 -1 42 C-1.66 41.67 -2.32 41.34 -3 41 C-2.01 41 -1.02 41 0 41 C0.33 42.32 0.66 43.64 1 45 C3.64 45.33 6.28 45.66 9 46 C8.67 31.48 8.34 16.96 8 2 C5.69 2 3.38 2 1 2 C0.67 5.3 0.34 8.6 0 12 C-8.415 12.495 -8.415 12.495 -17 13 C-17 12.34 -17 11.68 -17 11 C-11.72 11 -6.44 11 -1 11 C-1.020625 9.370625 -1.04125 7.74125 -1.0625 6.0625 C-1.08386068 4.37500659 -1.07205511 2.68608966 -1 1 C-0.67 0.67 -0.34 0.34 0 0 Z " fill="#6B50A9" transform="translate(243,171)"/>
<path d="M0 0 C1.98 0 3.96 0 6 0 C6 1.65 6 3.3 6 5 C6.66 5 7.32 5 8 5 C8.28875 4.360625 8.5775 3.72125 8.875 3.0625 C10 1 10 1 12 0 C14.2421875 -0.203125 14.2421875 -0.203125 16.875 -0.25 C18.17050781 -0.28867188 18.17050781 -0.28867188 19.4921875 -0.328125 C22.58295511 0.0762745 23.88579081 0.70554717 26 3 C26.390625 5.69921875 26.390625 5.69921875 26.25 8.6875 C26.21390625 9.68136719 26.1778125 10.67523438 26.140625 11.69921875 C26.07101563 12.83810547 26.07101563 12.83810547 26 14 C24.02 14 22.04 14 20 14 C20 11.36 20 8.72 20 6 C18.2282281 6.06016203 16.45741321 6.14899328 14.6875 6.25 C13.70136719 6.29640625 12.71523438 6.3428125 11.69921875 6.390625 C8.93664996 6.75105542 8.93664996 6.75105542 7.390625 8.69921875 C5.77465438 11.37283306 5.41178913 13.32752177 5.05078125 16.421875 C4.92509766 17.44667969 4.79941406 18.47148437 4.66992188 19.52734375 C4.55197266 20.59082031 4.43402344 21.65429688 4.3125 22.75 C4.18294922 23.82894531 4.05339844 24.90789062 3.91992188 26.01953125 C3.60224671 28.67859003 3.29604389 31.33846068 3 34 C0.69 34 -1.62 34 -4 34 C-4.02698189 32.37509046 -4.04638757 30.75005367 -4.0625 29.125 C-4.07410156 28.22007812 -4.08570313 27.31515625 -4.09765625 26.3828125 C-4 24 -4 24 -3 22 C-2.71205148 20.33665893 -2.4673067 18.66571153 -2.24609375 16.9921875 C-2.11396484 16.00605469 -1.98183594 15.01992187 -1.84570312 14.00390625 C-1.71099609 12.97136719 -1.57628906 11.93882812 -1.4375 10.875 C-1.29892578 9.83472656 -1.16035156 8.79445312 -1.01757812 7.72265625 C-0.67519019 5.1488435 -0.3361382 2.57463517 0 0 Z " fill="#C8BAE2" transform="translate(48,183)"/>
<path d="M0 0 C6.75 0.875 6.75 0.875 9 2 C9.375 4.75 9.375 4.75 9 8 C6.25 10 6.25 10 3 12 C0.71760829 14.92321965 0.71760829 14.92321965 -1 18 C-1.35964844 18.56847656 -1.71929687 19.13695312 -2.08984375 19.72265625 C-3.39688045 22.99305281 -3.30206664 25.92841305 -3.3125 29.4375 C-3.32925781 30.73558594 -3.34601563 32.03367188 -3.36328125 33.37109375 C-2.79927057 39.00513592 -0.18989362 42.33384308 4 46 C5.485 46.495 5.485 46.495 7 47 C9.6510695 50.21915582 10.0336357 51.5896445 9.6875 55.8125 C9.460625 56.864375 9.23375 57.91625 9 59 C-0.76374745 59.38289206 -0.76374745 59.38289206 -5 57 C-5.33 56.34 -5.66 55.68 -6 55 C-6.65484375 54.73445313 -7.3096875 54.46890625 -7.984375 54.1953125 C-10 53 -10 53 -10.828125 50.6171875 C-10.96734375 49.71226562 -11.1065625 48.80734375 -11.25 47.875 C-11.39953125 46.96492188 -11.5490625 46.05484375 -11.703125 45.1171875 C-11.80109375 44.41851562 -11.8990625 43.71984375 -12 43 C-12.66 43 -13.32 43 -14 43 C-14.08708752 38.7501291 -14.14042181 34.50048761 -14.1875 30.25 C-14.21263672 29.0434375 -14.23777344 27.836875 -14.26367188 26.59375 C-14.27333984 25.43359375 -14.28300781 24.2734375 -14.29296875 23.078125 C-14.3086792 22.00981445 -14.32438965 20.94150391 -14.34057617 19.84082031 C-13.95647956 16.63698646 -13.07489262 15.40034618 -11 13 C-10.87625 12.360625 -10.7525 11.72125 -10.625 11.0625 C-9.64687449 7.83468583 -7.48413717 6.18840656 -5 4 C-4.01 3.67 -3.02 3.34 -2 3 C-1.34 2.01 -0.68 1.02 0 0 Z M-6.8125 8.0625 C-13.45476531 16.98211342 -13.91670228 26.26464317 -13 37 C-12.1937577 41.33862765 -11.37955908 44.7928858 -8 47.75 C-7.01 48.36875 -7.01 48.36875 -6 49 C-5.54625 49.804375 -5.0925 50.60875 -4.625 51.4375 C-2.54225724 54.72182513 -0.4055931 56.16097972 3 58 C5.75258812 58.33709062 5.75258812 58.33709062 8 58 C8 56.02 8 54.04 8 52 C7.38511719 51.72027344 6.77023438 51.44054687 6.13671875 51.15234375 C5.32847656 50.75144531 4.52023438 50.35054687 3.6875 49.9375 C2.88699219 49.55464844 2.08648437 49.17179687 1.26171875 48.77734375 C-2.44177209 45.86700121 -3.71350143 42.30635132 -4.27758789 37.76538086 C-4.40205823 35.33556899 -4.40958613 32.93255756 -4.375 30.5 C-4.38660156 29.68402344 -4.39820313 28.86804688 -4.41015625 28.02734375 C-4.38395188 22.5855703 -3.45529952 18.85521634 -1 14 C-0.3503125 12.6078125 -0.3503125 12.6078125 0.3125 11.1875 C2.51629663 8.3307266 4.55751147 7.8414972 8 7 C8 5.68 8 4.36 8 3 C2.49269965 3 -2.39036923 4.8196041 -6.8125 8.0625 Z " fill="#4C3488" transform="translate(205,170)"/>
<path d="M0 0 C1.3303125 0.00773438 1.3303125 0.00773438 2.6875 0.015625 C3.574375 0.01046875 4.46125 0.0053125 5.375 0 C7.6875 0.265625 7.6875 0.265625 9.6875 2.265625 C9.83257695 5.01048093 9.87402423 7.65043043 9.8125 10.390625 C9.80347656 11.14472656 9.79445312 11.89882812 9.78515625 12.67578125 C9.7615687 14.53919754 9.72569719 16.40245093 9.6875 18.265625 C2.86803037 21.83056154 2.86803037 21.83056154 -1.3125 21.265625 C-2.3025 20.605625 -3.2925 19.945625 -4.3125 19.265625 C-4.58820606 16.34847699 -4.6847561 13.6769424 -4.625 10.765625 C-4.62822266 9.98058594 -4.63144531 9.19554687 -4.63476562 8.38671875 C-4.56058763 0.52385128 -4.56058763 0.52385128 0 0 Z " fill="#482299" transform="translate(234.3125,188.734375)"/>
<path d="M0 0 C3.9375 0.3125 3.9375 0.3125 5.9375 2.3125 C6.20741906 5.00089385 6.02487357 7.60391936 5.9375 10.3125 C4.00583984 10.40337891 4.00583984 10.40337891 2.03515625 10.49609375 C0.35675841 10.58048247 -1.32162636 10.6651313 -3 10.75 C-4.27520508 10.80897461 -4.27520508 10.80897461 -5.57617188 10.86914062 C-6.38505859 10.91103516 -7.19394531 10.95292969 -8.02734375 10.99609375 C-8.7762085 11.03275146 -9.52507324 11.06940918 -10.29663086 11.10717773 C-12.08711326 11.13021063 -12.08711326 11.13021063 -13.0625 12.3125 C-13.18798989 14.26780764 -13.23825363 16.22820479 -13.25 18.1875 C-13.26417969 19.25742188 -13.27835937 20.32734375 -13.29296875 21.4296875 C-13.2819778 24.51046434 -13.2819778 24.51046434 -11.0625 27.3125 C-8.17654054 27.89731121 -8.17654054 27.89731121 -4.9375 28 C-3.84179688 28.06574219 -2.74609375 28.13148438 -1.6171875 28.19921875 C-0.77414062 28.23660156 0.06890625 28.27398437 0.9375 28.3125 C0.9375 28.6425 0.9375 28.9725 0.9375 29.3125 C-3.6825 29.6425 -8.3025 29.9725 -13.0625 30.3125 C-13.0625 29.3225 -13.0625 28.3325 -13.0625 27.3125 C-14.0525 27.3125 -15.0425 27.3125 -16.0625 27.3125 C-17.04021193 24.3793642 -17.19669011 22.43071006 -17.1875 19.375 C-17.19007813 18.52035156 -17.19265625 17.66570312 -17.1953125 16.78515625 C-17.07180254 14.48569148 -16.70670687 12.51609652 -16.0625 10.3125 C-14.4125 9.9825 -12.7625 9.6525 -11.0625 9.3125 C-11.5575 8.85875 -12.0525 8.405 -12.5625 7.9375 C-14.0625 6.3125 -14.0625 6.3125 -14.0625 4.3125 C-12.969375 4.209375 -11.87625 4.10625 -10.75 4 C-7.13791198 3.70772828 -7.13791198 3.70772828 -5.625 1.75 C-3.63550939 -0.08033136 -2.66132604 0.05723282 0 0 Z " fill="#826CB9" transform="translate(348.0625,188.6875)"/>
<path d="M0 0 C5.77686575 0.56635939 9.7002739 1.3112655 13.5703125 5.8359375 C19.03789636 12.94115518 20.34305896 17.45178343 20.3125 26.375 C20.32861328 27.30828125 20.34472656 28.2415625 20.36132812 29.203125 C20.36510561 34.53693851 20.06361315 38.42321539 17 43 C16.01 43.495 16.01 43.495 15 44 C16.875 37.125 16.875 37.125 18 36 C18.56360244 28.77802455 17.7026416 22.00819443 16 15 C15.01 15.495 15.01 15.495 14 16 C14.02356567 16.93851807 14.02356567 16.93851807 14.04760742 17.89599609 C14.10984675 20.72223931 14.14895462 23.54833861 14.1875 26.375 C14.22520508 27.85226563 14.22520508 27.85226563 14.26367188 29.359375 C14.27817383 30.77089844 14.27817383 30.77089844 14.29296875 32.2109375 C14.31653442 33.51490479 14.31653442 33.51490479 14.34057617 34.84521484 C14.17199097 35.9118335 14.17199097 35.9118335 14 37 C13.01 37.66 12.02 38.32 11 39 C11.01571045 38.36497559 11.0314209 37.72995117 11.04760742 37.07568359 C11.1102859 34.1755477 11.14909417 31.27555476 11.1875 28.375 C11.21263672 27.37597656 11.23777344 26.37695312 11.26367188 25.34765625 C11.31855746 19.82250722 11.26563433 15.69434935 8 11 C5.9844421 9.04995737 3.86702495 7.41685158 1.64453125 5.7109375 C0 4 0 4 0 0 Z " fill="#73658F" transform="translate(374,173)"/>
<path d="M0 0 C1.60875 -0.04125 3.2175 -0.0825 4.875 -0.125 C6.23238281 -0.15980469 6.23238281 -0.15980469 7.6171875 -0.1953125 C10 0 10 0 12 2 C12.56520003 4.65537372 12.73788198 7.29144713 13 10 C16.3 10.66 19.6 11.32 23 12 C23 12.33 23 12.66 23 13 C18.38 13 13.76 13 9 13 C9 9.37 9 5.74 9 2 C6.69 2.33 4.38 2.66 2 3 C1.67 6.63 1.34 10.26 1 14 C-1.64 14 -4.28 14 -7 14 C-7 15.65 -7 17.3 -7 19 C-4.36 19 -1.72 19 1 19 C1 26.26 1 33.52 1 41 C1.66 41 2.32 41 3 41 C3.66 41.99 4.32 42.98 5 44 C8.50916244 46.41049944 12.08399733 46.39355541 16.25 46.625 C17.51328125 46.69976562 18.7765625 46.77453125 20.078125 46.8515625 C21.04234375 46.90054688 22.0065625 46.94953125 23 47 C23 47.33 23 47.66 23 48 C17.39 48 11.78 48 6 48 C6 47.34 6 46.68 6 46 C4.68 45.67 3.36 45.34 2 45 C2 44.34 2 43.68 2 43 C1.34 43 0.68 43 0 43 C0 35.74 0 28.48 0 21 C-2.97 21 -5.94 21 -9 21 C-10 20 -10 20 -10.125 16.5 C-10 13 -10 13 -9 12 C-5.99668982 11.85806663 -3.00782866 11.95763622 0 12 C0 8.04 0 4.08 0 0 Z M14 7 C14 10 14 10 14 10 Z " fill="#8973BD" transform="translate(303,170)"/>
<path d="M0 0 C1.32 0 2.64 0 4 0 C4 3.63 4 7.26 4 11 C8.62 11 13.24 11 18 11 C18 12.32 18 13.64 18 15 C12.39 15 6.78 15 1 15 C1.04125 16.4025 1.0825 17.805 1.125 19.25 C1.22880021 22.77920727 0.78409802 24.93753253 -1 28 C-1.33 28 -1.66 28 -2 28 C-2.33 24.04 -2.66 20.08 -3 16 C-5.31 15.34 -7.62 14.68 -10 14 C-10 13.34 -10 12.68 -10 12 C-6.535 11.505 -6.535 11.505 -3 11 C-2.86722656 10.28972656 -2.73445312 9.57945312 -2.59765625 8.84765625 C-2.42105469 7.92855469 -2.24445313 7.00945312 -2.0625 6.0625 C-1.88847656 5.14597656 -1.71445313 4.22945312 -1.53515625 3.28515625 C-1 1 -1 1 0 0 Z " fill="#E5D9EE" transform="translate(163,172)"/>
<path d="M0 0 C1.65322266 0.01740234 1.65322266 0.01740234 3.33984375 0.03515625 C4.99693359 0.04869141 4.99693359 0.04869141 6.6875 0.0625 C7.54214844 0.07410156 8.39679688 0.08570313 9.27734375 0.09765625 C9.27734375 2.73765625 9.27734375 5.37765625 9.27734375 8.09765625 C10.59734375 8.42765625 11.91734375 8.75765625 13.27734375 9.09765625 C12.94734375 9.75765625 12.61734375 10.41765625 12.27734375 11.09765625 C10.95734375 10.76765625 9.63734375 10.43765625 8.27734375 10.09765625 C8.27734375 10.75765625 8.27734375 11.41765625 8.27734375 12.09765625 C4.70775864 14.47737965 2.95016073 14.39595966 -1.28515625 14.41015625 C-3.01958984 14.43529297 -3.01958984 14.43529297 -4.7890625 14.4609375 C-5.75714844 14.34105469 -6.72523438 14.22117188 -7.72265625 14.09765625 C-8.38265625 13.10765625 -9.04265625 12.11765625 -9.72265625 11.09765625 C-7.08265625 11.09765625 -4.44265625 11.09765625 -1.72265625 11.09765625 C-1.72265625 10.10765625 -1.72265625 9.11765625 -1.72265625 8.09765625 C-2.38265625 8.09765625 -3.04265625 8.09765625 -3.72265625 8.09765625 C-3.76507348 5.7647085 -3.76358562 3.43063058 -3.72265625 1.09765625 C-2.72265625 0.09765625 -2.72265625 0.09765625 0 0 Z " fill="#DCCEF2" transform="translate(271.72265625,202.90234375)"/>
<path d="M0 0 C0.33 0 0.66 0 1 0 C1.042721 1.66611905 1.04063832 3.33382885 1 5 C0.67 5.33 0.34 5.66 0 6 C-0.27977136 9.03255202 -0.23188148 12.08108937 -0.25 15.125 C-0.270625 15.96804687 -0.29125 16.81109375 -0.3125 17.6796875 C-0.34693883 23.22433849 0.19737387 27.16469997 3 32 C5.1815909 33.84740324 5.1815909 33.84740324 7.6875 34.9375 C8.49574219 35.33839844 9.30398437 35.73929688 10.13671875 36.15234375 C10.75160156 36.43207031 11.36648437 36.71179688 12 37 C12 38.98 12 40.96 12 43 C5.83142002 42.6298852 3.24224897 41.24224897 -1 37 C-1.69748583 35.68252676 -2.36959957 34.35085807 -3 33 C-3.70125 32.505 -4.4025 32.01 -5.125 31.5 C-5.74375 31.005 -6.3625 30.51 -7 30 C-7 28.68 -7 27.36 -7 26 C-6.34 26 -5.68 26 -5 26 C-5 26.99 -5 27.98 -5 29 C-4.01 29.33 -3.02 29.66 -2 30 C-2.165 29.01 -2.33 28.02 -2.5 27 C-3.03207201 22.6338797 -3.18159178 18.26922226 -3.25 13.875 C-3.27126953 13.194375 -3.29253906 12.51375 -3.31445312 11.8125 C-3.34639247 7.12197964 -2.37901879 4.01928964 0 0 Z " fill="#766C87" transform="translate(201,185)"/>
<path d="M0 0 C1.98 0 3.96 0 6 0 C6.33 2.64 6.66 5.28 7 8 C5.02 8.99 5.02 8.99 3 10 C3.02320313 10.73863281 3.04640625 11.47726563 3.0703125 12.23828125 C3.19786295 19.40843864 2.54331505 25.99996389 1 33 C-0.32 33 -1.64 33 -3 33 C-2.21889502 10.40510967 -2.21889502 10.40510967 0 0 Z " fill="#F1E7FA" transform="translate(48,183)"/>
<path d="M0 0 C2.33294775 -0.04241723 4.66702567 -0.04092937 7 0 C8 1 8 1 8.12025452 2.79066467 C8.1169236 3.95981667 8.1169236 3.95981667 8.11352539 5.15258789 C8.11344986 6.03342545 8.11337433 6.914263 8.11329651 7.8217926 C8.10813522 8.77907761 8.10297394 9.73636261 8.09765625 10.72265625 C8.0962413 11.69786728 8.09482635 12.67307831 8.09336853 13.67784119 C8.08775133 16.80609143 8.07519593 19.93427123 8.0625 23.0625 C8.05748722 25.17773334 8.05292393 27.29296781 8.04882812 29.40820312 C8.03777631 34.60549296 8.02102146 39.80274145 8 45 C5.36 45 2.72 45 0 45 C-0.495 42.525 -0.495 42.525 -1 40 C-1.99 40 -2.98 40 -4 40 C-4.144375 40.639375 -4.28875 41.27875 -4.4375 41.9375 C-5 44 -5 44 -6 45 C-7.85287502 45.07226502 -9.70833878 45.0838122 -11.5625 45.0625 C-12.57441406 45.05347656 -13.58632812 45.04445312 -14.62890625 45.03515625 C-15.80259766 45.01775391 -15.80259766 45.01775391 -17 45 C-17.33 44.34 -17.66 43.68 -18 43 C-14.37 43 -10.74 43 -7 43 C-6.34 41.68 -5.68 40.36 -5 39 C-6.11375 39.061875 -7.2275 39.12375 -8.375 39.1875 C-9.57125 39.125625 -10.7675 39.06375 -12 39 C-12.66 38.01 -13.32 37.02 -14 36 C-12.783125 36.20625 -11.56625 36.4125 -10.3125 36.625 C-6.65193227 37.09963844 -4.32388488 36.76581384 -1 35 C0.76462683 38.08809695 1 39.23312136 1 43 C2.65 43 4.3 43 6 43 C6 29.14 6 15.28 6 1 C4.02 1 2.04 1 0 1 C0 0.67 0 0.34 0 0 Z " fill="#C9BAE9" transform="translate(244,172)"/>
<path d="M0 0 C0.66 0 1.32 0 2 0 C1.90460938 1.16917969 1.80921875 2.33835938 1.7109375 3.54296875 C1.59834603 5.09110142 1.48640086 6.6392812 1.375 8.1875 C1.31054688 8.95642578 1.24609375 9.72535156 1.1796875 10.51757812 C0.88003643 14.88124681 0.90549817 18.01085338 3 22 C3.66 22 4.32 22 5 22 C4.34 21.01 3.68 20.02 3 19 C2.8046875 16.73828125 2.8046875 16.73828125 2.875 14.3125 C2.89304687 13.50425781 2.91109375 12.69601563 2.9296875 11.86328125 C2.96449219 10.94095703 2.96449219 10.94095703 3 10 C3.33 10 3.66 10 4 10 C4 12.64 4 15.28 4 18 C4.66 18 5.32 18 6 18 C6 18.66 6 19.32 6 20 C7.60379341 20.05416188 9.20811406 20.09286638 10.8125 20.125 C11.70582031 20.14820313 12.59914063 20.17140625 13.51953125 20.1953125 C16.25402714 20.18285827 16.25402714 20.18285827 19 18 C22.1875 17.875 22.1875 17.875 25 18 C24.8125 20.3125 24.8125 20.3125 24 23 C19.92889008 26.26922463 16.20415681 26.37472451 11.1875 26.1875 C10.14819336 26.16719727 10.14819336 26.16719727 9.08789062 26.14648438 C7.39158735 26.11138845 5.69568864 26.05758943 4 26 C4 25.34 4 24.68 4 24 C3.360625 23.690625 2.72125 23.38125 2.0625 23.0625 C0 22 0 22 -1 21 C-1.38955715 13.94214105 -0.93248069 6.99360519 0 0 Z " fill="#CBBDE9" transform="translate(80,191)"/>
<path d="M0 0 C2 2 2 2 2 10 C-3.28 10 -8.56 10 -14 10 C-14 4 -14 4 -12.625 1.625 C-8.66329809 -0.82748213 -4.55228544 -0.68204973 0 0 Z " fill="#5C4795" transform="translate(100,187)"/>
<path d="M0 0 C6.75 0.875 6.75 0.875 9 2 C9 3.98 9 5.96 9 8 C6.36 8.99 3.72 9.98 1 11 C1.33 10.01 1.66 9.02 2 8 C3.98 7.67 5.96 7.34 8 7 C8 5.68 8 4.36 8 3 C-1.24711355 4.84615525 -1.24711355 4.84615525 -8 11 C-13.19646997 19.74108194 -13.27686882 30.12879226 -11.45703125 39.921875 C-10.16681517 44.28437358 -8.91930943 46.51777069 -5 49 C-4.25 51.1875 -4.25 51.1875 -4 53 C-7.79598549 51.50871999 -9.71720399 49.34266559 -12 46 C-12 45.01 -12 44.02 -12 43 C-12.66 43 -13.32 43 -14 43 C-14.08708752 38.7501291 -14.14042181 34.50048761 -14.1875 30.25 C-14.21263672 29.0434375 -14.23777344 27.836875 -14.26367188 26.59375 C-14.27333984 25.43359375 -14.28300781 24.2734375 -14.29296875 23.078125 C-14.3086792 22.00981445 -14.32438965 20.94150391 -14.34057617 19.84082031 C-13.95647956 16.63698646 -13.07489262 15.40034618 -11 13 C-10.87625 12.360625 -10.7525 11.72125 -10.625 11.0625 C-9.64687449 7.83468583 -7.48413717 6.18840656 -5 4 C-4.01 3.67 -3.02 3.34 -2 3 C-1.34 2.01 -0.68 1.02 0 0 Z " fill="#5C4889" transform="translate(205,170)"/>
<path d="M0 0 C1.9375 0.3125 1.9375 0.3125 4 1 C4.94137255 3.82411765 5.11725382 5.52918032 5.09765625 8.44921875 C5.09443359 9.29677734 5.09121094 10.14433594 5.08789062 11.01757812 C5.07951172 11.89865234 5.07113281 12.77972656 5.0625 13.6875 C5.05798828 14.58017578 5.05347656 15.47285156 5.04882812 16.39257812 C5.03704983 18.59511987 5.02060164 20.79752599 5 23 C6.65 23 8.3 23 10 23 C10.05395478 24.62463842 10.09277195 26.24978541 10.125 27.875 C10.14820313 28.77992188 10.17140625 29.68484375 10.1953125 30.6171875 C10 33 10 33 8 35 C5.27130593 34.96712417 2.7033382 34.43602229 0 34 C-0.33 33.01 -0.66 32.02 -1 31 C-3.86724686 31.57344937 -4.8614515 31.8614515 -7 34 C-10.2578125 33.9765625 -10.2578125 33.9765625 -14.125 33.625 C-15.40632813 33.51414063 -16.68765625 33.40328125 -18.0078125 33.2890625 C-18.99523437 33.19367188 -19.98265625 33.09828125 -21 33 C-21 32.67 -21 32.34 -21 32 C-20.16855469 31.93941406 -19.33710938 31.87882812 -18.48046875 31.81640625 C-16.85044922 31.69072266 -16.85044922 31.69072266 -15.1875 31.5625 C-14.10855469 31.48128906 -13.02960938 31.40007812 -11.91796875 31.31640625 C-8.94010095 31.09787539 -8.94010095 31.09787539 -6 30 C-6 29.34 -6 28.68 -6 28 C-2.62537285 28.54723683 -0.91765 29.0549 2 31 C3.9896995 31.39013716 5.99019869 31.73202649 8 32 C8 29.69 8 27.38 8 25 C7.360625 24.855625 6.72125 24.71125 6.0625 24.5625 C4 24 4 24 3 23 C2.76156265 19.50670355 2.60471792 16.02034449 2.48242188 12.52148438 C2.27504834 8.0101319 1.67606058 4.25461532 0 0 Z " fill="#6748A8" transform="translate(286,185)"/>
<path d="M0 0 C0 0.66 0 1.32 0 2 C-1.98 2.99 -1.98 2.99 -4 4 C-4 6.31 -4 8.62 -4 11 C-0.04 11 3.92 11 8 11 C7 14 7 14 5 15.1875 C1.00718476 16.26888746 -2.88773841 16.52365878 -7 16 C-7.99 15.34 -8.98 14.68 -10 14 C-10.43359375 11.50390625 -10.43359375 11.50390625 -10.4375 8.5625 C-10.45683594 7.59441406 -10.47617187 6.62632812 -10.49609375 5.62890625 C-10 3 -10 3 -8.17578125 1.1640625 C-5.34176261 -0.35216291 -3.16485671 -0.21578569 0 0 Z " fill="#F7F0FD" transform="translate(345,200)"/>
<path d="M0 0 C0.5625 1.9375 0.5625 1.9375 1 4 C0.67 4.33 0.34 4.66 0 5 C-0.33 7.31 -0.66 9.62 -1 12 C4.28 12 9.56 12 15 12 C15.33 12.66 15.66 13.32 16 14 C9.4 14.33 2.8 14.66 -4 15 C-3.59263776 23.39090008 -3.59263776 23.39090008 -1 28 C-2.875 27.8125 -2.875 27.8125 -5 27 C-7.31382004 22.79090074 -7.13780439 19.21455638 -6.8125 14.5 C-6.69841797 12.56640625 -6.69841797 12.56640625 -6.58203125 10.59375 C-5.98996335 6.93802872 -5.22167674 4.92688677 -3 2 C-2.01 1.34 -1.02 0.68 0 0 Z " fill="#FBF2FE" transform="translate(87,186)"/>
<path d="M0 0 C0.33 0 0.66 0 1 0 C1.33 2.31 1.66 4.62 2 7 C6.95 7.33 11.9 7.66 17 8 C17 9.65 17 11.3 17 13 C15.13559425 14.86440575 12.1175383 14.17374427 9.625 14.1875 C7.88089844 14.20876953 7.88089844 14.20876953 6.1015625 14.23046875 C3 14 3 14 0 12 C-1.29449495 8.11651516 -1.13203312 5.09302664 -1 1 C-0.67 0.67 -0.34 0.34 0 0 Z " fill="#F2E7FB" transform="translate(160,203)"/>
<path d="M0 0 C1.16843838 3.50531515 0.89701835 5.83268772 0.5625 9.5 C0.13940737 14.24364094 0.13940737 14.24364094 0 19 C1.43793392 18.68950274 2.8753318 18.3765224 4.3125 18.0625 C5.11300781 17.88847656 5.91351563 17.71445313 6.73828125 17.53515625 C9.145401 17.00113841 9.145401 17.00113841 12 16 C13.99961564 15.96079185 16.00049364 15.95556653 18 16 C17.443125 16.2475 16.88625 16.495 16.3125 16.75 C13.86918111 17.92837359 13.86918111 17.92837359 11.875 20.125 C7.8062366 22.77854135 3.74785812 22.8932411 -1 22 C-2.78125 20.8359375 -2.78125 20.8359375 -4 19 C-4.94316384 12.59203394 -4.70127033 6.47788008 -1 1 C-0.67 0.67 -0.34 0.34 0 0 Z " fill="#574292" transform="translate(18,190)"/>
<path d="M0 0 C6.93 0 13.86 0 21 0 C21 0.33 21 0.66 21 1 C18.36 1 15.72 1 13 1 C12.67 3.31 12.34 5.62 12 8 C8.04 8 4.08 8 0 8 C0 5.36 0 2.72 0 0 Z " fill="#3E2482" transform="translate(87,202)"/>
<path d="M0 0 C1.53125 1.16796875 1.53125 1.16796875 2.53125 4.16796875 C2.20125 4.82796875 1.87125 5.48796875 1.53125 6.16796875 C0.99757812 6.02359375 0.46390625 5.87921875 -0.0859375 5.73046875 C-5.97103763 4.26428464 -11.41884776 3.94062378 -17.46875 4.16796875 C-17.13875 3.50796875 -16.80875 2.84796875 -16.46875 2.16796875 C-13.96484375 1.75390625 -13.96484375 1.75390625 -10.90625 1.54296875 C-9.89433594 1.46820313 -8.88242188 1.3934375 -7.83984375 1.31640625 C-7.05738281 1.26742187 -6.27492187 1.2184375 -5.46875 1.16796875 C-5.46875 0.50796875 -5.46875 -0.15203125 -5.46875 -0.83203125 C-14.22702538 -0.80899452 -14.22702538 -0.80899452 -21.46875 3.16796875 C-22.34651794 6.81975142 -22.46875 10.42699423 -22.46875 14.16796875 C-23.12875 14.16796875 -23.78875 14.16796875 -24.46875 14.16796875 C-25.09051166 5.27332281 -25.09051166 5.27332281 -22.78125 1.16796875 C-15.8766012 -4.8036194 -7.71387751 -3.99468657 0 0 Z " fill="#C2AFE0" transform="translate(140.46875,184.83203125)"/>
<path d="M0 0 C1.3303125 0.00773438 1.3303125 0.00773438 2.6875 0.015625 C3.574375 0.01046875 4.46125 0.0053125 5.375 0 C7.6875 0.265625 7.6875 0.265625 9.6875 2.265625 C9.83257695 5.01048093 9.87402423 7.65043043 9.8125 10.390625 C9.80347656 11.14472656 9.79445312 11.89882812 9.78515625 12.67578125 C9.7615687 14.53919754 9.72569719 16.40245093 9.6875 18.265625 C2.86803037 21.83056154 2.86803037 21.83056154 -1.3125 21.265625 C-2.3025 20.605625 -3.2925 19.945625 -4.3125 19.265625 C-4.58820606 16.34847699 -4.6847561 13.6769424 -4.625 10.765625 C-4.62822266 9.98058594 -4.63144531 9.19554687 -4.63476562 8.38671875 C-4.56058763 0.52385128 -4.56058763 0.52385128 0 0 Z M-3.3125 3.265625 C-3.48413731 5.82854817 -3.54514558 8.26908357 -3.5 10.828125 C-3.49935547 11.52615234 -3.49871094 12.22417969 -3.49804688 12.94335938 C-3.7673138 16.39412543 -3.7673138 16.39412543 -2.3125 19.265625 C-0.43928052 19.42616315 -0.43928052 19.42616315 1.6875 19.390625 C2.409375 19.39320313 3.13125 19.39578125 3.875 19.3984375 C5.70839415 19.46257776 5.70839415 19.46257776 6.6875 18.265625 C6.76063567 15.73513098 6.77997527 13.23257663 6.75 10.703125 C6.74548828 9.99220703 6.74097656 9.28128906 6.73632812 8.54882812 C6.72450864 6.78772487 6.70657263 5.02666464 6.6875 3.265625 C6.0275 3.265625 5.3675 3.265625 4.6875 3.265625 C4.6875 2.605625 4.6875 1.945625 4.6875 1.265625 C0.19445418 0.84059054 0.19445418 0.84059054 -3.3125 3.265625 Z " fill="#7E6AB6" transform="translate(234.3125,188.734375)"/>
<path d="M0 0 C3.63 0 7.26 0 11 0 C11 0.33 11 0.66 11 1 C8.36 1.66 5.72 2.32 3 3 C3 5.64 3 8.28 3 11 C3.66 11 4.32 11 5 11 C5 11.99 5 12.98 5 14 C6.32 14.33 7.64 14.66 9 15 C7.02013918 14.88652381 5.04108402 14.7589065 3.0625 14.625 C1.96035156 14.55539063 0.85820312 14.48578125 -0.27734375 14.4140625 C-1.17582031 14.27742187 -2.07429688 14.14078125 -3 14 C-4.50934217 10.98131566 -4.17510672 8.32702771 -4 5 C-3.34 4.01 -2.68 3.02 -2 2 C-1.34 2 -0.68 2 0 2 C0 1.34 0 0.68 0 0 Z " fill="#F9F3FB" transform="translate(265,200)"/>
<path d="M0 0 C0.66 0 1.32 0 2 0 C1.94199219 1.18078125 1.88398438 2.3615625 1.82421875 3.578125 C1.77731357 5.13537711 1.73181421 6.69267201 1.6875 8.25 C1.6246582 9.41595703 1.6246582 9.41595703 1.56054688 10.60546875 C1.44923442 15.52795704 1.44923442 15.52795704 4.25 19.5 C6.82013444 20.90189151 8.4302671 21.55459438 11.3125 21.75 C12.529375 21.8325 13.74625 21.915 15 22 C14.67 22.66 14.34 23.32 14 24 C12.39592672 24.02708567 10.7917215 24.04643483 9.1875 24.0625 C7.84751953 24.07990234 7.84751953 24.07990234 6.48046875 24.09765625 C4 24 4 24 1 23 C0.3125 20.9375 0.3125 20.9375 0 19 C-0.66 19 -1.32 19 -2 19 C-2.22262303 12.2718373 -1.95021536 6.46008837 0 0 Z " fill="#F8EFFD" transform="translate(11,192)"/>
<path d="M0 0 C1.24546405 2.49092811 0.7767578 3.41080733 0 6 C3.79547921 5.03223902 3.79547921 5.03223902 7 3 C8.64230364 2.8754514 10.29052276 2.82431476 11.9375 2.8125 C12.83339844 2.79832031 13.72929687 2.78414062 14.65234375 2.76953125 C17 3 17 3 19 5 C19.33333333 10.33333333 19.33333333 10.33333333 18 13 C15.28553021 13.31241455 12.66090639 13.51336592 9.9375 13.625 C9.17888672 13.66367188 8.42027344 13.70234375 7.63867188 13.7421875 C5.75952805 13.83673562 3.87979664 13.91946756 2 14 C2 14.66 2 15.32 2 16 C1.34 16 0.68 16 0 16 C-0.96070434 18.88211302 -1.10581883 20.69850044 -1.0625 23.6875 C-1.05347656 24.49574219 -1.04445313 25.30398437 -1.03515625 26.13671875 C-1.02355469 26.75160156 -1.01195312 27.36648437 -1 28 C-1.66 27.67 -2.32 27.34 -3 27 C-3 23.37 -3 19.74 -3 16 C-1.68 15.67 -0.36 15.34 1 15 C1 14.34 1 13.68 1 13 C4.42232972 11.85922343 7.08673217 11.90184883 10.6875 11.9375 C12.45673828 11.95103516 12.45673828 11.95103516 14.26171875 11.96484375 C15.16535156 11.97644531 16.06898438 11.98804688 17 12 C16.67 9.69 16.34 7.38 16 5 C13.36 4.67 10.72 4.34 8 4 C8 4.66 8 5.32 8 6 C4.5647952 8.29013653 3.014669 8.17842973 -1 8 C-1.625 5.6875 -1.625 5.6875 -2 3 C-1.34 2.01 -0.68 1.02 0 0 Z " fill="#C1B1E2" transform="translate(263,186)"/>
<path d="M0 0 C1.8454602 3.11421408 2.46369062 5.38321316 2 9 C0.49093257 10.90374661 -0.54059717 11.85739371 -2.875 12.58203125 C-9.19452797 13.26742123 -14.82070968 12.39755912 -21 11 C-21.33 9.68 -21.66 8.36 -22 7 C-20.68 7.33 -19.36 7.66 -18 8 C-18 8.66 -18 9.32 -18 10 C-12.39 10 -6.78 10 -1 10 C-1 7.69 -1 5.38 -1 3 C-4.63 3 -8.26 3 -12 3 C-12.33 2.34 -12.66 1.68 -13 1 C-8.62426048 0.40667939 -4.42471556 -0.13827236 0 0 Z " fill="#4B2C92" transform="translate(327,208)"/>
<path d="M0 0 C2.65147064 2.65147064 2.28937297 4.66903888 2.32226562 8.28125 C2.31904297 9.0959375 2.31582031 9.910625 2.3125 10.75 C2.32861328 11.54921875 2.34472656 12.3484375 2.36132812 13.171875 C2.36551319 18.26091874 1.60756986 21.50881284 -1 26 C-1.20625 27.03125 -1.4125 28.0625 -1.625 29.125 C-3.51680998 33.08060268 -5.95124486 33.75650363 -9.90625 35.3359375 C-12 36 -12 36 -14 36 C-14 35.34 -14 34.68 -14 34 C-13.05125 33.7525 -12.1025 33.505 -11.125 33.25 C-7.95669487 32.33652717 -7.95669487 32.33652717 -6.8125 30.125 C-6.544375 29.42375 -6.27625 28.7225 -6 28 C-5.505 27.360625 -5.01 26.72125 -4.5 26.0625 C-0.6606063 20.78333366 -0.6006808 15.49245722 -0.375 9.1875 C-0.33632813 8.30384766 -0.29765625 7.42019531 -0.2578125 6.50976562 C-0.16399216 4.34017028 -0.08092674 2.17011453 0 0 Z " fill="#57418C" transform="translate(394,191)"/>
<path d="M0 0 C1.51400391 0.01740234 1.51400391 0.01740234 3.05859375 0.03515625 C4.07050781 0.04417969 5.08242188 0.05320313 6.125 0.0625 C7.29869141 0.07990234 7.29869141 0.07990234 8.49609375 0.09765625 C8.49609375 2.07765625 8.49609375 4.05765625 8.49609375 6.09765625 C7.83609375 6.09765625 7.17609375 6.09765625 6.49609375 6.09765625 C6.49609375 6.75765625 6.49609375 7.41765625 6.49609375 8.09765625 C3.19609375 8.09765625 -0.10390625 8.09765625 -3.50390625 8.09765625 C-3.54632348 5.7647085 -3.54483562 3.43063058 -3.50390625 1.09765625 C-2.50390625 0.09765625 -2.50390625 0.09765625 0 0 Z " fill="#5D41A4" transform="translate(271.50390625,202.90234375)"/>
<path d="M0 0 C0.90492188 0.02320313 1.80984375 0.04640625 2.7421875 0.0703125 C4.10730469 0.09738281 4.10730469 0.09738281 5.5 0.125 C6.19867188 0.14820313 6.89734375 0.17140625 7.6171875 0.1953125 C7.8046875 3.0703125 7.8046875 3.0703125 7.6171875 6.1953125 C4.41338733 8.33117928 3.59778783 8.42663425 -0.0703125 8.3203125 C-1.28267578 8.29324219 -1.28267578 8.29324219 -2.51953125 8.265625 C-3.44185547 8.23082031 -3.44185547 8.23082031 -4.3828125 8.1953125 C-4.5078125 5.3203125 -4.5078125 5.3203125 -4.3828125 2.1953125 C-2.3828125 0.1953125 -2.3828125 0.1953125 0 0 Z " fill="#6A4EA7" transform="translate(345.3828125,202.8046875)"/>
<path d="M0 0 C3.92622294 5.01684042 2.59305785 10.6999587 2.25 16.875 C-5.01 16.875 -12.27 16.875 -19.75 16.875 C-19.75 16.545 -19.75 16.215 -19.75 15.875 C-12.82 15.875 -5.89 15.875 1.25 15.875 C0.92 11.915 0.59 7.955 0.25 3.875 C-1.4 3.215 -3.05 2.555 -4.75 1.875 C-4.75 1.215 -4.75 0.555 -4.75 -0.125 C-8.05 0.205 -11.35 0.535 -14.75 0.875 C-11.78 1.205 -8.81 1.535 -5.75 1.875 C-5.75 2.205 -5.75 2.535 -5.75 2.875 C-6.79800781 2.96587891 -6.79800781 2.96587891 -7.8671875 3.05859375 C-8.77726562 3.14238281 -9.68734375 3.22617188 -10.625 3.3125 C-11.52992187 3.39371094 -12.43484375 3.47492188 -13.3671875 3.55859375 C-15.76110861 3.74489285 -15.76110861 3.74489285 -17.75 4.875 C-18.08 4.215 -18.41 3.555 -18.75 2.875 C-21.225 4.36 -21.225 4.36 -23.75 5.875 C-22.5868378 2.38551341 -21.24280394 1.38599942 -18.046875 -0.32421875 C-12.09058246 -2.40081734 -5.93818512 -1.78145554 0 0 Z " fill="#CFBEF1" transform="translate(105.75,184.125)"/>
<path d="M0 0 C0 1.32 0 2.64 0 4 C-0.928125 4.226875 -1.85625 4.45375 -2.8125 4.6875 C-6.55133644 6.22702089 -7.20239429 7.49466887 -9 11 C-9.99 11.495 -9.99 11.495 -11 12 C-10.34 10.35 -9.68 8.7 -9 7 C-11.44278263 7.57442644 -11.44278263 7.57442644 -14 9 C-15.70855022 12.00007271 -15.70855022 12.00007271 -17 15 C-17.99 15.495 -17.99 15.495 -19 16 C-17.43724732 10.16826441 -16.05778316 5.70904098 -11 2 C-7.37633425 0.65264874 -3.88116696 0 0 0 Z " fill="#75668C" transform="translate(213,173)"/>
<path d="M0 0 C0.33 0 0.66 0 1 0 C0.67 3.3 0.34 6.6 0 10 C-4.455 10.495 -4.455 10.495 -9 11 C-9.33 12.32 -9.66 13.64 -10 15 C-7.36 15 -4.72 15 -2 15 C-1.06576355 18.01031744 -0.95550089 18.86650268 -2 22 C-2.14492123 23.40664926 -2.24628931 24.8181133 -2.31640625 26.23046875 C-2.35830078 27.03291016 -2.40019531 27.83535156 -2.44335938 28.66210938 C-2.48267578 29.49548828 -2.52199219 30.32886719 -2.5625 31.1875 C-2.60568359 32.03248047 -2.64886719 32.87746094 -2.69335938 33.74804688 C-2.79931518 35.83184433 -2.9001502 37.91590103 -3 40 C-3.33 40 -3.66 40 -4 40 C-4 32.41 -4 24.82 -4 17 C-5.98 17 -7.96 17 -10 17 C-11 16 -11 16 -11.0625 12.4375 C-11.041875 11.303125 -11.02125 10.16875 -11 9 C-8.03 9 -5.06 9 -2 9 C-2.04125 8.071875 -2.0825 7.14375 -2.125 6.1875 C-2 3 -2 3 0 0 Z " fill="#7D64B7" transform="translate(161,173)"/>
<path d="M0 0 C0 1.32 0 2.64 0 4 C-0.66 4 -1.32 4 -2 4 C-2.0825 4.61875 -2.165 5.2375 -2.25 5.875 C-3 8 -3 8 -4.5625 9.125 C-7.95045332 10.34118837 -11.20265118 10.21217492 -14.75 10.125 C-15.44738281 10.11597656 -16.14476562 10.10695312 -16.86328125 10.09765625 C-18.57566958 10.07419888 -20.28788004 10.03833104 -22 10 C-22.33 9.34 -22.66 8.68 -23 8 C-19.04 8 -15.08 8 -11 8 C-13.31 7.67 -15.62 7.34 -18 7 C-18 6.67 -18 6.34 -18 6 C-17.11248047 5.85304687 -17.11248047 5.85304687 -16.20703125 5.703125 C-10.10759792 4.54890923 -5.76913063 0 0 0 Z " fill="#D7CAEE" transform="translate(36,207)"/>
<path d="M0 0 C0.74958984 0.01353516 1.49917969 0.02707031 2.27148438 0.04101562 C4.11879767 0.07631461 5.96574066 0.13012083 7.8125 0.1875 C7.8125 1.1775 7.8125 2.1675 7.8125 3.1875 C2.5325 3.1875 -2.7475 3.1875 -8.1875 3.1875 C-8.14625 4.59 -8.105 5.9925 -8.0625 7.4375 C-7.95869979 10.96670727 -8.40340198 13.12503253 -10.1875 16.1875 C-10.5175 16.1875 -10.8475 16.1875 -11.1875 16.1875 C-11.2685206 14.08396505 -11.32669907 11.97954048 -11.375 9.875 C-11.40980469 8.70324219 -11.44460937 7.53148437 -11.48046875 6.32421875 C-11.1875 3.1875 -11.1875 3.1875 -10.1875 1.28125 C-6.95283518 -0.48770732 -3.58269494 -0.12203066 0 0 Z " fill="#F8F0FD" transform="translate(172.1875,183.8125)"/>
<path d="M0 0 C0.66 0.33 1.32 0.66 2 1 C2.625 3.5625 2.625 3.5625 3 6 C-2.75 11 -2.75 11 -5 11 C-5.2475 11.53625 -5.495 12.0725 -5.75 12.625 C-7 15 -7 15 -9.125 17.4375 C-12.38987046 22.20079982 -11.57330218 28.50696515 -11 34 C-10.39336784 36.01902003 -9.74283759 38.02702337 -9 40 C-12 38 -12 38 -13 35 C-13.75030874 26.06060735 -13.99205898 18.20603457 -8 11 C-6.07478141 9.00888151 -4.3036485 7.58695786 -2 6 C-1.34 6 -0.68 6 0 6 C0 4.02 0 2.04 0 0 Z " fill="#46288F" transform="translate(214,172)"/>
<path d="M0 0 C0.99 0 1.98 0 3 0 C3.05447047 1.41623216 3.09300508 2.83308191 3.125 4.25 C3.14820313 5.03890625 3.17140625 5.8278125 3.1953125 6.640625 C2.8883424 10.34882384 1.60271414 12.39728586 -1 15 C-4.2578125 14.9765625 -4.2578125 14.9765625 -8.125 14.625 C-9.40632812 14.51414063 -10.68765625 14.40328125 -12.0078125 14.2890625 C-12.99523437 14.19367188 -13.98265625 14.09828125 -15 14 C-15 12.35 -15 10.7 -15 9 C-15.66 8.67 -16.32 8.34 -17 8 C-16.01 8 -15.02 8 -14 8 C-13.67 9.32 -13.34 10.64 -13 12 C-10.03 12.33 -7.06 12.66 -4 13 C-3.87625 12.05125 -3.7525 11.1025 -3.625 10.125 C-3 7 -3 7 -1 5 C-0.35232207 2.42938689 -0.35232207 2.42938689 0 0 Z " fill="#5634AA" transform="translate(257,204)"/>
<path d="M0 0 C0.99 0 1.98 0 3 0 C3 6.93 3 13.86 3 21 C4.65 21 6.3 21 8 21 C9.60725635 24.21451269 9.05748185 27.43612536 9 31 C5.37 31 1.74 31 -2 31 C-2 30.34 -2 29.68 -2 29 C-4.97 29.33 -7.94 29.66 -11 30 C-9.71389765 27.4277953 -8.66606019 26.99025093 -6 26 C-3.01029519 26.35172998 -2.17288535 26.82711465 0 29 C2.65537372 29.56520003 5.29144713 29.73788198 8 30 C8 28.02 8 26.04 8 24 C6.02 23.67 4.04 23.34 2 23 C2 16.07 2 9.14 2 2 C1.34 2 0.68 2 0 2 C0 1.34 0 0.68 0 0 Z " fill="#6C52A9" transform="translate(360,187)"/>
<path d="M0 0 C3.12290635 0.48578543 5.99580359 0.9986012 9 2 C13.53604515 2.14632404 17.57453821 2.10636545 22 1 C21.67 1.66 21.34 2.32 21 3 C18.11788698 3.96070434 16.30149956 4.10581883 13.3125 4.0625 C12.10013672 4.04896484 12.10013672 4.04896484 10.86328125 4.03515625 C9.94095703 4.01775391 9.94095703 4.01775391 9 4 C9.99 5.32 10.98 6.64 12 8 C9.36 8 6.72 8 4 8 C4 7.34 4 6.68 4 6 C3.360625 5.896875 2.72125 5.79375 2.0625 5.6875 C1.381875 5.460625 0.70125 5.23375 0 5 C-0.33 4.01 -0.66 3.02 -1 2 C-0.67 1.34 -0.34 0.68 0 0 Z " fill="#C4B2E7" transform="translate(114,209)"/>
<path d="M0 0 C0.33 0 0.66 0 1 0 C1 3.96 1 7.92 1 12 C0.05898437 11.95359375 -0.88203125 11.9071875 -1.8515625 11.859375 C-3.09679687 11.82328125 -4.34203125 11.7871875 -5.625 11.75 C-7.46964844 11.68039063 -7.46964844 11.68039063 -9.3515625 11.609375 C-13.8965578 12.0959912 -15.80314732 12.68759843 -19 16 C-19.87773393 19.74816111 -19.88473774 23.41332972 -19.875 27.25 C-19.895625 28.28125 -19.91625 29.3125 -19.9375 30.375 C-19.98458283 32.91747285 -20.00444327 35.45718042 -20 38 C-19.34 38 -18.68 38 -18 38 C-17.67 39.32 -17.34 40.64 -17 42 C-17.99 41.67 -18.98 41.34 -20 41 C-22.05278429 36.89443141 -21.36119112 31.70024945 -21.4375 27.1875 C-21.48326172 26.09373047 -21.52902344 24.99996094 -21.57617188 23.87304688 C-21.68412245 16.17100798 -21.68412245 16.17100798 -19.91015625 13.13452148 C-17.17563786 10.52980034 -14.81877092 9.97711754 -11.1328125 9.51171875 C-9.79599214 9.54448395 -8.45957729 9.60344232 -7.125 9.6875 C-6.43664062 9.71005859 -5.74828125 9.73261719 -5.0390625 9.75585938 C-3.35841755 9.8142151 -1.67890847 9.90387929 0 10 C0 6.7 0 3.4 0 0 Z " fill="#C5B6E8" transform="translate(243,173)"/>
<path d="M0 0 C2.875 2.5 2.875 2.5 5 5 C4.30132812 5.04898438 3.60265625 5.09796875 2.8828125 5.1484375 C1.97273438 5.22320312 1.06265625 5.29796875 0.125 5.375 C-1.23238281 5.47941406 -1.23238281 5.47941406 -2.6171875 5.5859375 C-5.17941903 5.79568132 -5.17941903 5.79568132 -7 8 C-9.625 8.125 -9.625 8.125 -12 8 C-11.8125 5.6875 -11.8125 5.6875 -11 3 C-7.45840427 0.06553496 -4.53699508 -0.75616585 0 0 Z " fill="#F2E9FB" transform="translate(347,184)"/>
<path d="M0 0 C0.99 0.33 1.98 0.66 3 1 C3.6875 3.0625 3.6875 3.0625 4 5 C4.99 5 5.98 5 7 5 C7 13.58 7 22.16 7 31 C5.02 31.99 5.02 31.99 3 33 C3.33 32.01 3.66 31.02 4 30 C4.56327539 20.83061544 5.07982311 12.15964622 0.875 3.75 C0 2 0 2 0 0 Z " fill="#4C2C9B" transform="translate(391,181)"/>
<path d="M0 0 C1.62463842 -0.05395478 3.24978541 -0.09277195 4.875 -0.125 C5.77992188 -0.14820313 6.68484375 -0.17140625 7.6171875 -0.1953125 C10 0 10 0 12 2 C12.56520003 4.65537372 12.73788198 7.29144713 13 10 C16.3 10.66 19.6 11.32 23 12 C23 12.33 23 12.66 23 13 C18.38 13 13.76 13 9 13 C9 9.04 9 5.08 9 1 C4.545 1.495 4.545 1.495 0 2 C0 1.34 0 0.68 0 0 Z M14 7 C14 10 14 10 14 10 Z " fill="#6347AE" transform="translate(303,170)"/>
<path d="M0 0 C0.33 0 0.66 0 1 0 C1 2.64 1 5.28 1 8 C-3.29 8 -7.58 8 -12 8 C-12 13.61 -12 19.22 -12 25 C-12.66 24.67 -13.32 24.34 -14 24 C-14 18.06 -14 12.12 -14 6 C-9.38 6 -4.76 6 0 6 C0 4.02 0 2.04 0 0 Z " fill="#7C67B4" transform="translate(326,183)"/>
<path d="M0 0 C0.33 0 0.66 0 1 0 C1 1.65 1 3.3 1 5 C0.34 5 -0.32 5 -1 5 C-1.66 6.32 -2.32 7.64 -3 9 C-1.35 9.33 0.3 9.66 2 10 C0.6875 11.5 0.6875 11.5 -1 13 C-1.99 13 -2.98 13 -4 13 C-4 13.66 -4 14.32 -4 15 C-6.31 15 -8.62 15 -11 15 C-10.9375 12.75 -10.9375 12.75 -10 10 C-8.26107879 9.00173042 -6.5168002 8.00851119 -4.72265625 7.11328125 C-2.01201452 5.36150598 -1.13188714 2.92959024 0 0 Z " fill="#75678A" transform="translate(384,212)"/>
<path d="M0 0 C7.92 0 15.84 0 24 0 C24 0.33 24 0.66 24 1 C17.07 1 10.14 1 3 1 C3 3.64 3 6.28 3 9 C6.63 9 10.26 9 14 9 C12 11 12 11 10.125 11.23046875 C9.42375 11.21628906 8.7225 11.20210937 8 11.1875 C7.29875 11.18105469 6.5975 11.17460937 5.875 11.16796875 C4 11 4 11 2 10 C2 9.34 2 8.68 2 8 C1.34 8 0.68 8 0 8 C0 5.36 0 2.72 0 0 Z " fill="#6B589E" transform="translate(84,201)"/>
<path d="M0 0 C0.99 0.99 1.98 1.98 3 3 C3.99 2.67 4.98 2.34 6 2 C6 2.66 6 3.32 6 4 C5.34 4 4.68 4 4 4 C3.67 6.97 3.34 9.94 3 13 C1.35 13.66 -0.3 14.32 -2 15 C-2.05429959 13.25034642 -2.09292823 11.50020213 -2.125 9.75 C-2.15980469 8.28820312 -2.15980469 8.28820312 -2.1953125 6.796875 C-1.99862781 3.9803502 -1.44568916 2.39050964 0 0 Z " fill="#402393" transform="translate(77,182)"/>
<path d="M0 0 C9.86692101 -0.77760323 9.86692101 -0.77760323 14.1875 2.1875 C16.11365965 5.17636842 16.49602754 6.52780724 16 10 C15.01 10 14.02 10 13 10 C12.67 8.35 12.34 6.7 12 5 C7.71 4.34 3.42 3.68 -1 3 C-0.67 2.01 -0.34 1.02 0 0 Z " fill="#F2E7FB" transform="translate(21,183)"/>
<path d="M0 0 C2.97 0.495 2.97 0.495 6 1 C6 2.98 6 4.96 6 7 C7.32 7.33 8.64 7.66 10 8 C8.8553125 8.4021875 8.8553125 8.4021875 7.6875 8.8125 C5.12619116 9.94424112 3.80307062 10.91223401 2 13 C1.34 12.67 0.68 12.34 0 12 C-2.87910588 11.76725791 -5.74146495 11.58027243 -8.625 11.4375 C-9.42679688 11.39431641 -10.22859375 11.35113281 -11.0546875 11.30664062 C-13.0362511 11.20048543 -15.01810271 11.09973145 -17 11 C-17.33 10.01 -17.66 9.02 -18 8 C-17.34 8 -16.68 8 -16 8 C-16 8.66 -16 9.32 -16 10 C-13.58239124 9.88573491 -11.16652782 9.75900339 -8.75 9.625 C-8.06808594 9.5940625 -7.38617188 9.563125 -6.68359375 9.53125 C-3.04791777 9.31946305 -0.02464477 9.13504337 3 7 C4.28254644 4.46229997 4.28254644 4.46229997 5 2 C3.35 2 1.7 2 0 2 C0 1.34 0 0.68 0 0 Z " fill="#634CA3" transform="translate(100,207)"/>
<path d="M0 0 C2.97 0 5.94 0 9 0 C9 0.66 9 1.32 9 2 C10.32 2.33 11.64 2.66 13 3 C11.02 3.33 9.04 3.66 7 4 C7.66 4.66 8.32 5.32 9 6 C7.08458862 6.10841951 5.16740227 6.18578079 3.25 6.25 C1.64898437 6.31960937 1.64898437 6.31960937 0.015625 6.390625 C-3.63802112 5.91735478 -4.72228105 4.80844958 -7 2 C-4.03 2.33 -1.06 2.66 2 3 C2 2.34 2 1.68 2 1 C1.34 0.67 0.68 0.34 0 0 Z " fill="#CCBDE6" transform="translate(125,197)"/>
<path d="M0 0 C1.98 0.99 1.98 0.99 4 2 C4 2.66 4 3.32 4 4 C9.94 4 15.88 4 22 4 C21.01 5.485 21.01 5.485 20 7 C18.15234375 7.35644531 18.15234375 7.35644531 15.9375 7.328125 C15.14085938 7.32296875 14.34421875 7.3178125 13.5234375 7.3125 C12.27433594 7.2815625 12.27433594 7.2815625 11 7.25 C9.75089844 7.24226562 9.75089844 7.24226562 8.4765625 7.234375 C2.30907392 7.15453696 2.30907392 7.15453696 0 6 C0 4.02 0 2.04 0 0 Z " fill="#402485" transform="translate(79,214)"/>
<path d="M0 0 C3.49620669 2.33080446 3.89080701 3.03489422 5 7 C5.33155458 10.27465902 5.37015886 13.52294823 5.375 16.8125 C5.39949219 17.67681641 5.42398437 18.54113281 5.44921875 19.43164062 C5.47558693 25.25461438 4.69874107 30.31276497 1 35 C-1.13916016 36.21801758 -1.13916016 36.21801758 -3 37 C-3 36.34 -3 35.68 -3 35 C-2.319375 34.4121875 -2.319375 34.4121875 -1.625 33.8125 C0.71848404 31.19861396 1.17605418 28.35916371 2 25 C2.66 25 3.32 25 4 25 C3.68671942 16.19573542 3.38954192 8.25279772 0 0 Z " fill="#57428C" transform="translate(381,183)"/>
<path d="M0 0 C5.28 0 10.56 0 16 0 C16 0.66 16 1.32 16 2 C11.38 2 6.76 2 2 2 C1.93941406 3.00160156 1.87882813 4.00320312 1.81640625 5.03515625 C1.73191595 6.37761331 1.64727232 7.72006072 1.5625 9.0625 C1.48128906 10.37347656 1.40007812 11.68445313 1.31640625 13.03515625 C1.02101751 16.73663238 0.56734612 20.33370448 0 24 C-0.33 24 -0.66 24 -1 24 C-0.67 16.08 -0.34 8.16 0 0 Z " fill="#A695D5" transform="translate(164,187)"/>
<path d="M0 0 C0 0.66 0 1.32 0 2 C-2.31 1.67 -4.62 1.34 -7 1 C-7 2.98 -7 4.96 -7 7 C-6.443125 7.0825 -5.88625 7.165 -5.3125 7.25 C-2.23811154 8.24709896 -0.33757048 9.79229454 2 12 C2 12.99 2 13.98 2 15 C-0.16874252 14.49396008 -1.99967627 14.00016187 -4 13 C-4 12.34 -4 11.68 -4 11 C-4.99 10.67 -5.98 10.34 -7 10 C-8.56864191 7.17644456 -9.04378901 5.48167913 -8.75 2.25 C-8.5025 1.5075 -8.255 0.765 -8 0 C-5.13822943 -1.43088528 -3.06624227 -0.59991697 0 0 Z " fill="#523398" transform="translate(379,170)"/>
<path d="M0 0 C0.94875 0.04125 1.8975 0.0825 2.875 0.125 C2.875 0.785 2.875 1.445 2.875 2.125 C0.895 2.125 -1.085 2.125 -3.125 2.125 C-3.125 6.745 -3.125 11.365 -3.125 16.125 C-0.485 16.125 2.155 16.125 4.875 16.125 C4.545 16.785 4.215 17.445 3.875 18.125 C-2.27734375 18.22265625 -2.27734375 18.22265625 -4.125 18.125 C-6.10619355 16.14380645 -5.31000411 12.39054936 -5.3125 9.6875 C-5.32474609 8.99333984 -5.33699219 8.29917969 -5.34960938 7.58398438 C-5.35489842 5.76279099 -5.24669207 3.9421308 -5.125 2.125 C-3.125 0.125 -3.125 0.125 0 0 Z " fill="#482C8D" transform="translate(236.125,189.875)"/>
<path d="M0 0 C2.31 0 4.62 0 7 0 C7.33 1.98 7.66 3.96 8 6 C4.37 6 0.74 6 -3 6 C-2.67 4.68 -2.34 3.36 -2 2 C-1.34 2 -0.68 2 0 2 C0 1.34 0 0.68 0 0 Z " fill="#4A2A96" transform="translate(271,190)"/>
<path d="M0 0 C2.31 0 4.62 0 7 0 C7.33 1.98 7.66 3.96 8 6 C4.37 6 0.74 6 -3 6 C-3 5.34 -3 4.68 -3 4 C-2.34 4 -1.68 4 -1 4 C-0.67 2.68 -0.34 1.36 0 0 Z " fill="#4F2F97" transform="translate(343,190)"/>
<path d="M0 0 C0.65355469 0.15339844 1.30710937 0.30679688 1.98046875 0.46484375 C5.75492159 1.13379594 9.48905996 1.35407297 13.3125 1.5625 C14.05306641 1.60568359 14.79363281 1.64886719 15.55664062 1.69335938 C17.37091464 1.79870432 19.1854355 1.89978316 21 2 C19.74633789 3.49755859 19.74633789 3.49755859 18 5 C15.05467337 5.02919055 12.35069235 4.91511044 9.4375 4.625 C4.07500345 3.83315266 4.07500345 3.83315266 -1 5 C-0.67 3.35 -0.34 1.7 0 0 Z " fill="#3D2284" transform="translate(9,216)"/>
<path d="M0 0 C3.96 0 7.92 0 12 0 C9.23776722 2.76223278 6.79293383 2.57856291 3 3 C2.34 4.65 1.68 6.3 1 8 C0.67 8 0.34 8 0 8 C0 5.36 0 2.72 0 0 Z M-2 8 C-1.34 8 -0.68 8 0 8 C-0.33 11.63 -0.66 15.26 -1 19 C2.3 19 5.6 19 9 19 C9 19.33 9 19.66 9 20 C5.37 20 1.74 20 -2 20 C-2 16.04 -2 12.08 -2 8 Z " fill="#422490" transform="translate(167,190)"/>
<path d="M0 0 C2.97 0.33 5.94 0.66 9 1 C9 2.65 9 4.3 9 6 C2.375 6.125 2.375 6.125 -1 5 C-0.67 3.35 -0.34 1.7 0 0 Z " fill="#411E93" transform="translate(90,204)"/>
<path d="M0 0 C-0.33 0.99 -0.66 1.98 -1 3 C-1.66902344 2.51402344 -2.33804687 2.02804688 -3.02734375 1.52734375 C-6.73145466 -0.37581968 -9.41317129 -0.43337951 -13.5625 -0.4375 C-14.86316406 -0.45683594 -16.16382813 -0.47617188 -17.50390625 -0.49609375 C-21.03604056 -0.2869133 -21.03604056 -0.2869133 -23.41796875 1.85546875 C-25.19794562 4.26832629 -25.67149487 6.04345383 -26 9 C-26.33 9 -26.66 9 -27 9 C-26.88590407 7.54077307 -26.75834456 6.08259402 -26.625 4.625 C-26.55539062 3.81289062 -26.48578125 3.00078125 -26.4140625 2.1640625 C-26 0 -26 0 -24 -2 C-21.36611587 -2.33617833 -18.83178156 -2.55799378 -16.1875 -2.6875 C-15.11918945 -2.75807617 -15.11918945 -2.75807617 -14.02929688 -2.83007812 C-8.47250997 -3.14364334 -4.66372282 -3.10914854 0 0 Z " fill="#7C60B6" transform="translate(360,184)"/>
<path d="M0 0 C0.33 0 0.66 0 1 0 C1.042721 1.66611905 1.04063832 3.33382885 1 5 C0.67 5.33 0.34 5.66 0 6 C-0.08685603 7.56172745 -0.10702219 9.12729344 -0.09765625 10.69140625 C-0.09443359 11.63564453 -0.09121094 12.57988281 -0.08789062 13.55273438 C-0.07951172 14.54595703 -0.07113281 15.53917969 -0.0625 16.5625 C-0.05798828 17.55958984 -0.05347656 18.55667969 -0.04882812 19.58398438 C-0.03700007 22.05604849 -0.02051849 24.52799518 0 27 C-0.66 27 -1.32 27 -2 27 C-3.04110806 22.69283519 -3.21724529 18.47210322 -3.25 14.0625 C-3.270625 13.37220703 -3.29125 12.68191406 -3.3125 11.97070312 C-3.34854352 7.21746335 -2.42064138 4.07049958 0 0 Z " fill="#6A6185" transform="translate(201,185)"/>
<path d="M0 0 C2.29013653 3.4352048 2.17842973 4.985331 2 9 C1.67 7.68 1.34 6.36 1 5 C0.01 5 -0.98 5 -2 5 C-2.144375 5.639375 -2.28875 6.27875 -2.4375 6.9375 C-3 9 -3 9 -4 10 C-5.85287502 10.07226502 -7.70833878 10.0838122 -9.5625 10.0625 C-10.57441406 10.05347656 -11.58632812 10.04445312 -12.62890625 10.03515625 C-13.41136719 10.02355469 -14.19382813 10.01195312 -15 10 C-15.33 9.34 -15.66 8.68 -16 8 C-12.37 8 -8.74 8 -5 8 C-4.34 6.68 -3.68 5.36 -3 4 C-4.11375 4.061875 -5.2275 4.12375 -6.375 4.1875 C-7.57125 4.125625 -8.7675 4.06375 -10 4 C-10.66 3.01 -11.32 2.02 -12 1 C-10.14375 1.309375 -10.14375 1.309375 -8.25 1.625 C-4.88090165 2.06107124 -2.87158079 2.03403639 0 0 Z " fill="#BBABE0" transform="translate(242,207)"/>
<path d="M0 0 C3 3 3 3 3.29296875 6.79296875 C3.2730801 8.25809933 3.23737968 9.72308367 3.1875 11.1875 C3.16719727 12.31188477 3.16719727 12.31188477 3.14648438 13.45898438 C3.11118539 15.30629767 3.05737917 17.15324066 3 19 C2.01 19 1.02 19 0 19 C0 12.73 0 6.46 0 0 Z " fill="#4A279D" transform="translate(363,189)"/>
<path d="M0 0 C-0.1875 2.375 -0.1875 2.375 -1 5 C-3.5625 6.3125 -3.5625 6.3125 -6 7 C-6 6.01 -6 5.02 -6 4 C-9.96 4 -13.92 4 -18 4 C-18.33 3.34 -18.66 2.68 -19 2 C-18.31292969 2.02320313 -17.62585938 2.04640625 -16.91796875 2.0703125 C-16.01691406 2.08835938 -15.11585937 2.10640625 -14.1875 2.125 C-13.29417969 2.14820313 -12.40085937 2.17140625 -11.48046875 2.1953125 C-7.1671988 1.85568494 -4.73326096 -0.21036715 0 0 Z " fill="#C9BAE6" transform="translate(105,209)"/>
<path d="M0 0 C3.63 0 7.26 0 11 0 C11 1.65 11 3.3 11 5 C10 6 10 6 7.05859375 6.09765625 C5.26615234 6.08025391 5.26615234 6.08025391 3.4375 6.0625 C1.64119141 6.04896484 1.64119141 6.04896484 -0.19140625 6.03515625 C-1.11824219 6.02355469 -2.04507813 6.01195312 -3 6 C-3 5.67 -3 5.34 -3 5 C2.94 4.505 2.94 4.505 9 4 C8.67 3.67 8.34 3.34 8 3 C7.030625 3 6.06125 3 5.0625 3 C2 3 2 3 0 2 C0 1.34 0 0.68 0 0 Z " fill="#C2B0E4" transform="translate(166,211)"/>
<path d="M0 0 C0.66 0 1.32 0 2 0 C2.33 7.59 2.66 15.18 3 23 C-1 19 -1 19 -1.36230469 16.80175781 C-1.29946289 16.02670898 -1.23662109 15.25166016 -1.171875 14.453125 C-1.11386719 13.60878906 -1.05585938 12.76445312 -0.99609375 11.89453125 C-0.91488281 11.02183594 -0.83367187 10.14914063 -0.75 9.25 C-0.68425781 8.36183594 -0.61851562 7.47367188 -0.55078125 6.55859375 C-0.38606251 4.37018765 -0.20189011 2.18523822 0 0 Z " fill="#7A65AF" transform="translate(220,191)"/>
<path d="M0 0 C2.5 1.625 2.5 1.625 3.5 3.625 C2.51 3.295 1.52 2.965 0.5 2.625 C-0.83363703 2.48096652 -2.17218046 2.37909577 -3.51171875 2.30859375 C-4.64770508 2.24575195 -4.64770508 2.24575195 -5.80664062 2.18164062 C-6.98516602 2.12266602 -6.98516602 2.12266602 -8.1875 2.0625 C-8.98478516 2.01931641 -9.78207031 1.97613281 -10.60351562 1.93164062 C-12.56881447 1.82572632 -14.53438496 1.72487449 -16.5 1.625 C-16.5 2.285 -16.5 2.945 -16.5 3.625 C-17.16 3.295 -17.82 2.965 -18.5 2.625 C-13.57836543 -2.76536167 -6.45758775 -2.53690947 0 0 Z " fill="#694CAC" transform="translate(282.5,181.375)"/>
<path d="M0 0 C0.99 0.495 0.99 0.495 2 1 C2 1.66 2 2.32 2 3 C2.66 3 3.32 3 4 3 C4 9.6 4 16.2 4 23 C3.34 23 2.68 23 2 23 C1.93941406 21.84242188 1.87882812 20.68484375 1.81640625 19.4921875 C1.73194498 17.95311543 1.64729982 16.41405345 1.5625 14.875 C1.52318359 14.11445313 1.48386719 13.35390625 1.44335938 12.5703125 C1.20490998 8.31490797 0.79769763 4.19629174 0 0 Z " fill="#CBB7EE" transform="translate(358,186)"/>
<path d="M0 0 C0.69738281 0.01353516 1.39476562 0.02707031 2.11328125 0.04101562 C3.82585541 0.0762055 5.53802941 0.13000845 7.25 0.1875 C7.25 0.5175 7.25 0.8475 7.25 1.1875 C6.35796875 1.23648438 5.4659375 1.28546875 4.546875 1.3359375 C3.37640625 1.41070312 2.2059375 1.48546875 1 1.5625 C-0.74023438 1.66691406 -0.74023438 1.66691406 -2.515625 1.7734375 C-5.48609727 2.15371535 -7.2955941 2.52035637 -9.75 4.1875 C-11.03254644 6.72520003 -11.03254644 6.72520003 -11.75 9.1875 C-10.821875 8.8575 -9.89375 8.5275 -8.9375 8.1875 C-5.75 7.1875 -5.75 7.1875 -2.75 7.1875 C-3.8125 8.6875 -3.8125 8.6875 -5.75 10.1875 C-9.4375 10.375 -9.4375 10.375 -12.75 10.1875 C-12.26440329 3.75334362 -12.26440329 3.75334362 -10.1875 1.46875 C-6.81637105 -0.30325368 -3.7055222 -0.13659297 0 0 Z " fill="#C0ACE7" transform="translate(346.75,182.8125)"/>
<path d="M0 0 C0.75410156 0.00322266 1.50820312 0.00644531 2.28515625 0.00976562 C3.06246094 0.01814453 3.83976562 0.02652344 4.640625 0.03515625 C5.43339844 0.03966797 6.22617188 0.04417969 7.04296875 0.04882812 C8.99222008 0.0605706 10.94143238 0.07850479 12.890625 0.09765625 C12.890625 0.75765625 12.890625 1.41765625 12.890625 2.09765625 C11.49650391 2.02804688 11.49650391 2.02804688 10.07421875 1.95703125 C0.24884488 1.61038295 0.24884488 1.61038295 -8.109375 6.09765625 C-8.769375 7.08765625 -9.429375 8.07765625 -10.109375 9.09765625 C-10.109375 7.44765625 -10.109375 5.79765625 -10.109375 4.09765625 C-9.449375 4.09765625 -8.789375 4.09765625 -8.109375 4.09765625 C-8.109375 3.10765625 -8.109375 2.11765625 -8.109375 1.09765625 C-5.33213575 0.3107718 -2.88327423 -0.02184299 0 0 Z " fill="#7058A9" transform="translate(91.109375,181.90234375)"/>
<path d="M0 0 C-0.33 0.33 -0.66 0.66 -1 1 C1.31 1.66 3.62 2.32 6 3 C6 3.66 6 4.32 6 5 C4.37509046 5.02698189 2.75005367 5.04638757 1.125 5.0625 C-0.23238281 5.07990234 -0.23238281 5.07990234 -1.6171875 5.09765625 C-4 5 -4 5 -6 4 C-6 2.68 -6 1.36 -6 0 C-3.50907189 -1.24546405 -2.58919267 -0.7767578 0 0 Z " fill="#43298C" transform="translate(129,191)"/>
<path d="M0 0 C1.30120067 2.60240133 0.78052242 3.63132526 0.125 6.4375 C-1.06270244 11.93463631 -1.59522704 17.39709003 -2 23 C-1.34 23 -0.68 23 0 23 C0.33 23.99 0.66 24.98 1 26 C-0.32 25.67 -1.64 25.34 -3 25 C-3.08132642 21.95778935 -3.14065374 18.9177762 -3.1875 15.875 C-3.21263672 15.0190625 -3.23777344 14.163125 -3.26367188 13.28125 C-3.32398809 8.05384474 -2.85261993 4.56718676 0 0 Z " fill="#B1A2D5" transform="translate(11,188)"/>
<path d="M0 0 C0.66 0 1.32 0 2 0 C2.04254356 1.99954746 2.04080783 4.00041636 2 6 C1 7 1 7 -2.37890625 7.09765625 C-3.77347077 7.09098369 -5.16801743 7.07902532 -6.5625 7.0625 C-7.27341797 7.05798828 -7.98433594 7.05347656 -8.71679688 7.04882812 C-10.47790013 7.03700864 -12.23896036 7.01907263 -14 7 C-14 9.64 -14 12.28 -14 15 C-14.66 15 -15.32 15 -16 15 C-15.67 12.03 -15.34 9.06 -15 6 C-10.38 6 -5.76 6 -1 6 C-0.67 4.02 -0.34 2.04 0 0 Z " fill="#5D42A3" transform="translate(181,183)"/>
<path d="M0 0 C1.65 0 3.3 0 5 0 C4.505 0.9075 4.01 1.815 3.5 2.75 C1.72062788 6.00873038 1.72062788 6.00873038 2 10 C4.97 10.495 4.97 10.495 8 11 C7.67 11.66 7.34 12.32 7 13 C1.25 12.25 1.25 12.25 -1 10 C-0.9765625 7.6171875 -0.9765625 7.6171875 -0.625 4.875 C-0.51414062 3.96492187 -0.40328125 3.05484375 -0.2890625 2.1171875 C-0.19367188 1.41851562 -0.09828125 0.71984375 0 0 Z " fill="#6145A2" transform="translate(260,183)"/>
<path d="M0 0 C0.33 0 0.66 0 1 0 C0.67 7.59 0.34 15.18 0 23 C0.66 23 1.32 23 2 23 C2 23.66 2 24.32 2 25 C0.68 25 -0.64 25 -2 25 C-1.8608331 21.58302762 -1.71250415 18.16651243 -1.5625 14.75 C-1.52318359 13.78191406 -1.48386719 12.81382812 -1.44335938 11.81640625 C-1.40146484 10.88183594 -1.35957031 9.94726562 -1.31640625 8.984375 C-1.27974854 8.12553711 -1.24309082 7.26669922 -1.20532227 6.38183594 C-1.01296486 4.15039857 -0.61153756 2.15017476 0 0 Z " fill="#C8B9EB" transform="translate(47,191)"/>
<path d="M0 0 C1.25882323 3.76700486 0.96221633 7.19696656 0.6875 11.125 C0.60886719 12.36507812 0.53023437 13.60515625 0.44921875 14.8828125 C0 18 0 18 -2 20 C-2 13.73 -2 7.46 -2 1 C-1.34 0.67 -0.68 0.34 0 0 Z " fill="#4A2992" transform="translate(220,187)"/>
<path d="M0 0 C3.3 0 6.6 0 10 0 C10.33 2.97 10.66 5.94 11 9 C10.01 9 9.02 9 8 9 C7.979375 8.236875 7.95875 7.47375 7.9375 6.6875 C7.20339051 3.58610882 7.20339051 3.58610882 3.4375 2.1875 C2.303125 1.795625 1.16875 1.40375 0 1 C0 0.67 0 0.34 0 0 Z " fill="#5F439C" transform="translate(134,182)"/>
<path d="M0 0 C0.33 0 0.66 0 1 0 C1.10957031 0.77085937 1.21914063 1.54171875 1.33203125 2.3359375 C1.49058594 3.33882812 1.64914062 4.34171875 1.8125 5.375 C1.96332031 6.37273437 2.11414063 7.37046875 2.26953125 8.3984375 C2.78772298 11.3287364 2.78772298 11.3287364 6 13 C8.96842658 13.45915507 8.96842658 13.45915507 12.1875 13.625 C13.27417969 13.69976562 14.36085938 13.77453125 15.48046875 13.8515625 C16.72763672 13.92503906 16.72763672 13.92503906 18 14 C18 14.33 18 14.66 18 15 C13.38 15.33 8.76 15.66 4 16 C4 15.01 4 14.02 4 13 C3.01 13 2.02 13 1 13 C-0.00496852 9.98509443 -0.10335303 7.95818308 -0.0625 4.8125 C-0.05347656 3.91144531 -0.04445313 3.01039063 -0.03515625 2.08203125 C-0.02355469 1.39496094 -0.01195312 0.70789063 0 0 Z " fill="#6245A4" transform="translate(331,203)"/>
<path d="M0 0 C2.97 0 5.94 0 9 0 C8.84660156 0.79664063 8.69320312 1.59328125 8.53515625 2.4140625 C7.89038893 6.73447415 7.64957112 11.01537398 7.4375 15.375 C7.39431641 16.20644531 7.35113281 17.03789062 7.30664062 17.89453125 C7.20138195 19.92953228 7.10026928 21.96474703 7 24 C6.67 24 6.34 24 6 24 C6 16.41 6 8.82 6 1 C4.02 1 2.04 1 0 1 C0 0.67 0 0.34 0 0 Z " fill="#735BAA" transform="translate(151,189)"/>
<path d="M0 0 C2.375 0.1875 2.375 0.1875 5 1 C6.3125 3.5625 6.3125 3.5625 7 6 C6.01 6.66 5.02 7.32 4 8 C2.02 6.35 0.04 4.7 -2 3 C-1.34 2.01 -0.68 1.02 0 0 Z " fill="#756A80" transform="translate(377,175)"/>
<path d="M0 0 C0.33 0.66 0.66 1.32 1 2 C-1.91708924 3.98362069 -3.12380904 3.9876191 -6.75 3.625 C-7.8225 3.41875 -8.895 3.2125 -10 3 C-10.33 2.01 -10.66 1.02 -11 0 C-9.54263913 -0.19491452 -8.08405407 -0.38069358 -6.625 -0.5625 C-5.81289062 -0.66691406 -5.00078125 -0.77132812 -4.1640625 -0.87890625 C-2 -1 -2 -1 0 0 Z " fill="#EDE0FC" transform="translate(134,213)"/>
<path d="M0 0 C1.57043101 0.01330874 3.14079971 0.03717648 4.7109375 0.0703125 C5.51273437 0.07933594 6.31453125 0.08835938 7.140625 0.09765625 C9.12252273 0.12125027 11.10426731 0.15712185 13.0859375 0.1953125 C13.0859375 0.5253125 13.0859375 0.8553125 13.0859375 1.1953125 C12.12171875 1.24429688 11.1575 1.29328125 10.1640625 1.34375 C8.90078125 1.41851562 7.6375 1.49328125 6.3359375 1.5703125 C4.45648438 1.67472656 4.45648438 1.67472656 2.5390625 1.78125 C-1.13566815 2.0248276 -1.13566815 2.0248276 -4.9140625 4.1953125 C-4.9140625 7.4953125 -4.9140625 10.7953125 -4.9140625 14.1953125 C-5.2440625 14.1953125 -5.5740625 14.1953125 -5.9140625 14.1953125 C-5.96795337 12.23727743 -6.00680467 10.27882341 -6.0390625 8.3203125 C-6.06226563 7.22976562 -6.08546875 6.13921875 -6.109375 5.015625 C-5.78940183 0.39521245 -4.51357515 0.2252283 0 0 Z " fill="#DBCDF4" transform="translate(339.9140625,198.8046875)"/>
<path d="M0 0 C1.60080151 4.00200378 0.29279692 7.04556236 -1 11 C-1.66 11 -2.32 11 -3 11 C-3.33 10.34 -3.66 9.68 -4 9 C-4.66 9 -5.32 9 -6 9 C-4.83857315 4.64464931 -3.92300495 2.35380297 0 0 Z " fill="#E9DBF6" transform="translate(87,186)"/>
<path d="M0 0 C3.3 0 6.6 0 10 0 C10 0.33 10 0.66 10 1 C7.36 1.33 4.72 1.66 2 2 C2.99 2.33 3.98 2.66 5 3 C5.33 3.99 5.66 4.98 6 6 C3.03 6 0.06 6 -3 6 C-2 4 -1 2 0 0 Z " fill="#C7B4E6" transform="translate(60,183)"/>
<path d="M0 0 C1.24546405 2.49092811 0.7767578 3.41080733 0 6 C3.79547921 5.03223902 3.79547921 5.03223902 7 3 C9.67058851 2.85884839 12.32432238 2.95752893 15 3 C15 3.33 15 3.66 15 4 C12.69 4 10.38 4 8 4 C8 4.66 8 5.32 8 6 C4.5647952 8.29013653 3.014669 8.17842973 -1 8 C-1.625 5.6875 -1.625 5.6875 -2 3 C-1.34 2.01 -0.68 1.02 0 0 Z " fill="#A38FCE" transform="translate(263,186)"/>
<path d="M0 0 C0.66 0 1.32 0 2 0 C2.33 2.31 2.66 4.62 3 7 C2.34 7 1.68 7 1 7 C1.061875 8.423125 1.061875 8.423125 1.125 9.875 C1 13 1 13 -1 15 C-1.02693575 12.87506859 -1.04636628 10.75004088 -1.0625 8.625 C-1.07410156 7.44164062 -1.08570313 6.25828125 -1.09765625 5.0390625 C-1 2 -1 2 0 0 Z " fill="#FBF6FD" transform="translate(50,186)"/>
<path d="M0 0 C0.33 0 0.66 0 1 0 C1 2.64 1 5.28 1 8 C2.32 8.33 3.64 8.66 5 9 C4.67 9.66 4.34 10.32 4 11 C2.68 10.67 1.36 10.34 0 10 C0 10.66 0 11.32 0 12 C-0.66 11.67 -1.32 11.34 -2 11 C-1.67 10.34 -1.34 9.68 -1 9 C-3.97 9 -6.94 9 -10 9 C-10 8.67 -10 8.34 -10 8 C-7.36 8 -4.72 8 -2 8 C-2 7.34 -2 6.68 -2 6 C-1.34 6 -0.68 6 0 6 C0 4.02 0 2.04 0 0 Z " fill="#C1B0E0" transform="translate(280,203)"/>
<path d="M0 0 C0 2.97 0 5.94 0 9 C-0.33 9 -0.66 9 -1 9 C-1 7.02 -1 5.04 -1 3 C-4.63 3 -8.26 3 -12 3 C-12.33 2.34 -12.66 1.68 -13 1 C-8.62426048 0.40667939 -4.42471556 -0.13827236 0 0 Z " fill="#7F62BB" transform="translate(327,208)"/>
<path d="M0 0 C2.31 0 4.62 0 7 0 C8.85776765 3.13498292 9.20140476 5.37471432 9 9 C8.34 9 7.68 9 7 9 C7 7.68 7 6.36 7 5 C5.68 4.67 4.36 4.34 3 4 C3 3.34 3 2.68 3 2 C2.01 1.67 1.02 1.34 0 1 C0 0.67 0 0.34 0 0 Z " fill="#F4EEFB" transform="translate(131,200)"/>
<path d="M0 0 C3.63 0 7.26 0 11 0 C10.67 0.99 10.34 1.98 10 3 C6.4375 4.1875 6.4375 4.1875 3 5 C2.01 3.35 1.02 1.7 0 0 Z " fill="#E3E0F6" transform="translate(342,211)"/>
<path d="M0 0 C1.98 0 3.96 0 6 0 C6.33 2.64 6.66 5.28 7 8 C6.01 8.495 6.01 8.495 5 9 C4.67 7.02 4.34 5.04 4 3 C3.34 3 2.68 3 2 3 C1.67 3.99 1.34 4.98 1 6 C0.67 6 0.34 6 0 6 C0 4.02 0 2.04 0 0 Z " fill="#D3C7EA" transform="translate(48,183)"/>
<path d="M0 0 C1.36125 0.37125 1.36125 0.37125 2.75 0.75 C2.75 2.73 2.75 4.71 2.75 6.75 C0.11 7.74 -2.53 8.73 -5.25 9.75 C-4.92 8.76 -4.59 7.77 -4.25 6.75 C-2.27 6.42 -0.29 6.09 1.75 5.75 C1.75 4.43 1.75 3.11 1.75 1.75 C-1.22 2.41 -4.19 3.07 -7.25 3.75 C-4.05 -0.31153846 -4.05 -0.31153846 0 0 Z " fill="#634D8C" transform="translate(211.25,171.25)"/>
<path d="M0 0 C1.23556641 0.01740234 1.23556641 0.01740234 2.49609375 0.03515625 C3.32238281 0.04417969 4.14867187 0.05320313 5 0.0625 C5.63808594 0.07410156 6.27617187 0.08570313 6.93359375 0.09765625 C6.93359375 0.42765625 6.93359375 0.75765625 6.93359375 1.09765625 C4.29359375 1.09765625 1.65359375 1.09765625 -1.06640625 1.09765625 C-0.73640625 3.07765625 -0.40640625 5.05765625 -0.06640625 7.09765625 C2.24359375 7.42765625 4.55359375 7.75765625 6.93359375 8.09765625 C6.93359375 8.42765625 6.93359375 8.75765625 6.93359375 9.09765625 C5.45452483 9.12454841 3.97531892 9.14400246 2.49609375 9.16015625 C1.26052734 9.17755859 1.26052734 9.17755859 0 9.1953125 C-2.06640625 9.09765625 -2.06640625 9.09765625 -3.06640625 8.09765625 C-3.19140625 4.59765625 -3.19140625 4.59765625 -3.06640625 1.09765625 C-2.06640625 0.09765625 -2.06640625 0.09765625 0 0 Z " fill="#694BB0" transform="translate(296.06640625,181.90234375)"/>
<path d="M0 0 C2.625 -0.1875 2.625 -0.1875 5 0 C4.01 0.7734375 4.01 0.7734375 3 1.5625 C-1.47683081 5.19992503 -5.91907389 8.91907389 -10 13 C-10 9 -10 9 -7.6875 6.3125 C-5 4 -5 4 -2 3 C-1.34 2.01 -0.68 1.02 0 0 Z " fill="#4D3689" transform="translate(205,170)"/>
<path d="M0 0 C0.90105469 0.01804688 1.80210937 0.03609375 2.73046875 0.0546875 C3.41753906 0.07789063 4.10460937 0.10109375 4.8125 0.125 C4.8125 0.455 4.8125 0.785 4.8125 1.125 C0.3575 1.62 0.3575 1.62 -4.1875 2.125 C-4.5175 5.425 -4.8475 8.725 -5.1875 12.125 C-5.5175 12.125 -5.8475 12.125 -6.1875 12.125 C-6.1875 10.475 -6.1875 8.825 -6.1875 7.125 C-6.8475 7.125 -7.5075 7.125 -8.1875 7.125 C-8.375 4.75 -8.375 4.75 -8.1875 2.125 C-4.87379 -0.08414 -3.8428979 -0.09981553 0 0 Z " fill="#54339F" transform="translate(247.1875,169.875)"/>
<path d="M0 0 C0.33 0 0.66 0 1 0 C1.103125 1.11375 1.20625 2.2275 1.3125 3.375 C1.539375 4.57125 1.76625 5.7675 2 7 C2.99 7.66 3.98 8.32 5 9 C5 9.66 5 10.32 5 11 C3.35 11 1.7 11 0 11 C-1.62651522 7.74696956 -1.11453156 4.60774398 -1 1 C-0.67 0.67 -0.34 0.34 0 0 Z " fill="#FCF5FD" transform="translate(160,203)"/>
<path d="M0 0 C0.33 0 0.66 0 1 0 C1.125 2.375 1.125 2.375 1 5 C-2.23585033 8.23585033 -6.62097487 8.98945574 -11 10 C-11 9.34 -11 8.68 -11 8 C-10.45730469 7.75765625 -9.91460937 7.5153125 -9.35546875 7.265625 C-5.28049475 5.35662817 -2.40723991 3.96486573 0 0 Z " fill="#50358E" transform="translate(391,217)"/>
<path d="M0 0 C0.33 0 0.66 0 1 0 C1.29883729 7.47093223 0.15925507 14.63044989 -1 22 C-1.33 22 -1.66 22 -2 22 C-2 16.72 -2 11.44 -2 6 C-1.34 6 -0.68 6 0 6 C0 4.02 0 2.04 0 0 Z " fill="#5D48A1" transform="translate(47,183)"/>
<path d="M0 0 C1.98 0.99 1.98 0.99 4 2 C4 5.63 4 9.26 4 13 C3.34 13 2.68 13 2 13 C1.34 8.71 0.68 4.42 0 0 Z " fill="#BEABE2" transform="translate(70,184)"/>
<path d="M0 0 C2.64 0 5.28 0 8 0 C8 0.33 8 0.66 8 1 C5.69 1 3.38 1 1 1 C1 1.66 1 2.32 1 3 C2.98 3 4.96 3 7 3 C7 3.99 7 4.98 7 6 C4.36 5.67 1.72 5.34 -1 5 C-0.67 3.35 -0.34 1.7 0 0 Z " fill="#D2C0F0" transform="translate(152,183)"/>
<path d="M0 0 C0.66 0.33 1.32 0.66 2 1 C1.360625 1.2475 0.72125 1.495 0.0625 1.75 C-2.18741541 2.81562433 -2.18741541 2.81562433 -2.75 5.125 C-2.8325 5.74375 -2.915 6.3625 -3 7 C-1.02 7 0.96 7 3 7 C0 9 0 9 -2.6875 8.625 C-3.450625 8.41875 -4.21375 8.2125 -5 8 C-5 6.02 -5 4.04 -5 2 C-2.625 0.9375 -2.625 0.9375 0 0 Z " fill="#5C4291" transform="translate(376,220)"/>
<path d="M0 0 C5.28 0 10.56 0 16 0 C15.67 0.66 15.34 1.32 15 2 C12.71484375 2.4140625 12.71484375 2.4140625 9.9375 2.625 C8.55884766 2.73714844 8.55884766 2.73714844 7.15234375 2.8515625 C6.44207031 2.90054688 5.73179687 2.94953125 5 3 C5 2.34 5 1.68 5 1 C3.35 1 1.7 1 0 1 C0 0.67 0 0.34 0 0 Z " fill="#452A8C" transform="translate(161,218)"/>
<path d="M0 0 C0.33 0.99 0.66 1.98 1 3 C-5.07877934 6.24201565 -10.18401613 6.33278764 -17 6 C-17 5.67 -17 5.34 -17 5 C-16.1646875 4.96132812 -16.1646875 4.96132812 -15.3125 4.921875 C-9.31706452 4.47626831 -5.23258464 2.94927498 0 0 Z " fill="#8672BA" transform="translate(139,212)"/>
<path d="M0 0 C0.33 0 0.66 0 1 0 C1.08075665 2.29109597 1.13907731 4.58299267 1.1875 6.875 C1.22230469 8.15117187 1.25710937 9.42734375 1.29296875 10.7421875 C1.19628906 11.81726563 1.09960938 12.89234375 1 14 C0.01 14.66 -0.98 15.32 -2 16 C-1.50130596 10.63108121 -0.97772468 5.30764827 0 0 Z " fill="#432A86" transform="translate(53,201)"/>
<path d="M0 0 C1.32 0 2.64 0 4 0 C4 3.3 4 6.6 4 10 C3.67 10 3.34 10 3 10 C2.67 7.69 2.34 5.38 2 3 C1.67 5.31 1.34 7.62 1 10 C0.34 10 -0.32 10 -1 10 C-0.67 6.7 -0.34 3.4 0 0 Z " fill="#E3D3F6" transform="translate(162,173)"/>
<path d="M0 0 C4.95 0 9.9 0 15 0 C10.47026571 3.39730072 10.47026571 3.39730072 5.8125 2.8125 C4.49185547 2.66748047 4.49185547 2.66748047 3.14453125 2.51953125 C2.43683594 2.34808594 1.72914062 2.17664063 1 2 C0.67 1.34 0.34 0.68 0 0 Z " fill="#422884" transform="translate(120,218)"/>
<path d="M0 0 C0 0.99 0 1.98 0 3 C-1.79133978 3.05391993 -3.58313899 3.09275571 -5.375 3.125 C-6.37273437 3.14820313 -7.37046875 3.17140625 -8.3984375 3.1953125 C-11 3 -11 3 -13 1 C-11.39602723 0.83147753 -9.7918131 0.66525114 -8.1875 0.5 C-7.29417969 0.4071875 -6.40085937 0.314375 -5.48046875 0.21875 C-3 0 -3 0 0 0 Z " fill="#F5EBFD" transform="translate(99,213)"/>
<path d="M0 0 C5.61 0 11.22 0 17 0 C17.33 0.66 17.66 1.32 18 2 C16.44539063 1.98259766 16.44539063 1.98259766 14.859375 1.96484375 C13.48958514 1.95546163 12.11979332 1.94636188 10.75 1.9375 C10.06808594 1.92912109 9.38617188 1.92074219 8.68359375 1.91210938 C3.74293969 1.82997812 3.74293969 1.82997812 -1 3 C-1.33 3.66 -1.66 4.32 -2 5 C-2 4.01 -2 3.02 -2 2 C-1.34 2 -0.68 2 0 2 C0 1.34 0 0.68 0 0 Z " fill="#CBB8EB" transform="translate(266,183)"/>
<path d="M0 0 C0.33 0 0.66 0 1 0 C1 3.3 1 6.6 1 10 C-1.31 10 -3.62 10 -6 10 C-4.68 9.67 -3.36 9.34 -2 9 C-2 7.02 -2 5.04 -2 3 C-1.34 3 -0.68 3 0 3 C0 2.01 0 1.02 0 0 Z " fill="#4E2D9B" transform="translate(302,172)"/>
<path d="M0 0 C1.98 0.66 3.96 1.32 6 2 C6 3.98 6 5.96 6 8 C3.6568787 7.74438677 1.32156597 7.40729228 -1 7 C-1.33 6.34 -1.66 5.68 -2 5 C0.31 5.33 2.62 5.66 5 6 C3.35 4.02 1.7 2.04 0 0 Z " fill="#6A5594" transform="translate(207,220)"/>
<path d="M0 0 C0 1.32 0 2.64 0 4 C-2.31 4.33 -4.62 4.66 -7 5 C-6.625 3.0625 -6.625 3.0625 -6 1 C-4 0 -4 0 0 0 Z " fill="#5024A3" transform="translate(351,204)"/>
<path d="M0 0 C1.45880109 0.14107747 2.91703551 0.28802415 4.375 0.4375 C5.59316406 0.55931641 5.59316406 0.55931641 6.8359375 0.68359375 C9 1 9 1 11 2 C11 2.66 11 3.32 11 4 C6.545 3.01 6.545 3.01 2 2 C2 3.32 2 4.64 2 6 C1.34 6 0.68 6 0 6 C0 4.02 0 2.04 0 0 Z " fill="#654A96" transform="translate(372,171)"/>
<path d="M0 0 C1.02673828 0.72123047 1.02673828 0.72123047 2.07421875 1.45703125 C5.48736428 3.25702122 7.97692423 3.49378405 11.8125 3.6875 C13.55466797 3.78611328 13.55466797 3.78611328 15.33203125 3.88671875 C16.21246094 3.92410156 17.09289062 3.96148437 18 4 C18 4.33 18 4.66 18 5 C15.56183415 5.0809723 13.12635616 5.14046972 10.6875 5.1875 C9.65206055 5.22520508 9.65206055 5.22520508 8.59570312 5.26367188 C3.4824036 5.33777767 3.4824036 5.33777767 1.01953125 3.61328125 C0 2 0 2 0 0 Z " fill="#7A63B2" transform="translate(158,213)"/>
<path d="M0 0 C0.33 0 0.66 0 1 0 C1.06058594 0.67546875 1.12117187 1.3509375 1.18359375 2.046875 C1.26738281 2.93890625 1.35117188 3.8309375 1.4375 4.75 C1.55931641 6.07257813 1.55931641 6.07257813 1.68359375 7.421875 C1.96238465 9.69350452 2.38790577 11.79851823 3 14 C2.01 13.67 1.02 13.34 0 13 C-1.98384711 9.03230578 -1.32630565 4.14470514 0 0 Z " fill="#553B96" transform="translate(156,203)"/>
<path d="M0 0 C2.97 0.495 2.97 0.495 6 1 C5.01 1.495 5.01 1.495 4 2 C4 3.98 4 5.96 4 8 C3.01 8.495 3.01 8.495 2 9 C2 6.69 2 4.38 2 2 C0.68 2.33 -0.64 2.66 -2 3 C-1.34 2.01 -0.68 1.02 0 0 Z " fill="#3B1D92" transform="translate(5,184)"/>
<path d="M0 0 C-1.52708963 3.43595166 -3.59927045 6.11912454 -6 9 C-6.36521739 3.52173913 -6.36521739 3.52173913 -4.6875 1.125 C-3 0 -3 0 0 0 Z " fill="#482D8C" transform="translate(121,182)"/>
<path d="M0 0 C0.99 0.33 1.98 0.66 3 1 C1.625 2.5 1.625 2.5 0 4 C-0.66 4 -1.32 4 -2 4 C-2.103125 4.94875 -2.20625 5.8975 -2.3125 6.875 C-3 10 -3 10 -6 12 C-5.67 10.35 -5.34 8.7 -5 7 C-4.34 7 -3.68 7 -3 7 C-2.87625 6.21625 -2.7525 5.4325 -2.625 4.625 C-2 2 -2 2 0 0 Z " fill="#45298E" transform="translate(197,175)"/>
<path d="M0 0 C0.33 0 0.66 0 1 0 C1.06058594 0.74765625 1.12117187 1.4953125 1.18359375 2.265625 C1.26738281 3.25046875 1.35117188 4.2353125 1.4375 5.25 C1.51871094 6.22453125 1.59992188 7.1990625 1.68359375 8.203125 C1.89477563 10.93394741 1.89477563 10.93394741 2.72265625 13.171875 C2.85994141 14.07679688 2.85994141 14.07679688 3 15 C2.01 15.99 1.02 16.98 0 18 C0 12.06 0 6.12 0 0 Z " fill="#46258E" transform="translate(253,195)"/>
<path d="M0 0 C1.670625 0.061875 1.670625 0.061875 3.375 0.125 C2.7975 0.3725 2.22 0.62 1.625 0.875 C-1.01204101 2.34002278 -2.69858864 3.80002077 -4.625 6.125 C-5.42181318 8.76684541 -5.42181318 8.76684541 -5.625 11.125 C-5.955 11.125 -6.285 11.125 -6.625 11.125 C-6.51090407 9.66577307 -6.38334456 8.20759402 -6.25 6.75 C-6.18039062 5.93789062 -6.11078125 5.12578125 -6.0390625 4.2890625 C-5.27663828 0.30431703 -3.92386826 0.1353058 0 0 Z " fill="#6143A5" transform="translate(339.625,181.875)"/>
<path d="M0 0 C6.52307692 0.49230769 6.52307692 0.49230769 8.9375 3.0625 C9.288125 3.701875 9.63875 4.34125 10 5 C4.25 4.125 4.25 4.125 2 3 C2 2.34 2 1.68 2 1 C1.34 0.67 0.68 0.34 0 0 Z " fill="#4C2AA4" transform="translate(377,169)"/>
<path d="M0 0 C1.1725131 0.95117134 2.33787015 1.91117009 3.5 2.875 C4.47453125 3.67550781 4.47453125 3.67550781 5.46875 4.4921875 C5.9740625 4.98976562 6.479375 5.48734375 7 6 C7 6.66 7 7.32 7 8 C4.08482708 6.92598892 2.22189824 6.22189824 0 4 C0 2.68 0 1.36 0 0 Z " fill="#54437D" transform="translate(202,212)"/>
<path d="M0 0 C2.12534659 0.14069196 4.25027529 0.28770921 6.375 0.4375 C8.15003906 0.55931641 8.15003906 0.55931641 9.9609375 0.68359375 C13 1 13 1 15 2 C15 2.66 15 3.32 15 4 C13.68 4 12.36 4 11 4 C11 3.34 11 2.68 11 2 C7.7 2 4.4 2 1 2 C0.67 1.34 0.34 0.68 0 0 Z " fill="#7865A9" transform="translate(123,195)"/>
<path d="M0 0 C2.64 0.66 5.28 1.32 8 2 C8 2.66 8 3.32 8 4 C5.69 4 3.38 4 1 4 C0.67 2.68 0.34 1.36 0 0 Z " fill="#F9F2FE" transform="translate(119,196)"/>
<path d="M0 0 C2.38564077 0.57584432 4.66682784 1.22227595 7 2 C7 2.66 7 3.32 7 4 C5.02 4 3.04 4 1 4 C0.67 2.68 0.34 1.36 0 0 Z " fill="#F7E8FD" transform="translate(115,210)"/>
<path d="M0 0 C0.33 0 0.66 0 1 0 C1 3.3 1 6.6 1 10 C0.34 10 -0.32 10 -1 10 C-2.23076923 4.58461538 -2.23076923 4.58461538 -1.0625 1.625 C-0.5365625 0.820625 -0.5365625 0.820625 0 0 Z " fill="#7B7477" transform="translate(390,204)"/>
<path d="M0 0 C1.65 0 3.3 0 5 0 C4.01 1.98 3.02 3.96 2 6 C1.34 6 0.68 6 0 6 C0 4.02 0 2.04 0 0 Z " fill="#563892" transform="translate(260,183)"/>
<path d="M0 0 C0.33 0 0.66 0 1 0 C1 2.64 1 5.28 1 8 C2.32 8.66 3.64 9.32 5 10 C3.0625 10.5625 3.0625 10.5625 1 11 C0 10 0 10 -0.09765625 7.71484375 C-0.08605469 6.79832031 -0.07445313 5.88179687 -0.0625 4.9375 C-0.05347656 4.01839844 -0.04445313 3.09929687 -0.03515625 2.15234375 C-0.02355469 1.44207031 -0.01195313 0.73179687 0 0 Z " fill="#5C439C" transform="translate(115,191)"/>
<path d="M0 0 C0.33 0 0.66 0 1 0 C1.06058594 0.68707031 1.12117188 1.37414062 1.18359375 2.08203125 C1.26738281 2.98308594 1.35117187 3.88414062 1.4375 4.8125 C1.51871094 5.70582031 1.59992188 6.59914062 1.68359375 7.51953125 C1.93489767 10.12743559 1.93489767 10.12743559 3 13 C2.01 13 1.02 13 0 13 C0 8.71 0 4.42 0 0 Z " fill="#472A8B" transform="translate(363,195)"/>
<path d="M0 0 C0.99 0 1.98 0 3 0 C3 2.31 3 4.62 3 7 C1.68 6.34 0.36 5.68 -1 5 C-0.67 3.35 -0.34 1.7 0 0 Z " fill="#F2E4FC" transform="translate(82,190)"/>
<path d="M0 0 C0.33 0.66 0.66 1.32 1 2 C1.99 2 2.98 2 4 2 C3 4 3 4 1 5 C0.34 5.99 -0.32 6.98 -1 8 C-1.93065133 5.39417629 -2.14917407 4.35801776 -1.0625 1.75 C-0.711875 1.1725 -0.36125 0.595 0 0 Z " fill="#746F83" transform="translate(387,184)"/>
<path d="M0 0 C0.99 0.33 1.98 0.66 3 1 C3.94921875 3.06640625 3.94921875 3.06640625 4.6875 5.5625 C4.93886719 6.38878906 5.19023437 7.21507812 5.44921875 8.06640625 C5.63097656 8.70449219 5.81273437 9.34257812 6 10 C3.61405803 8.80702902 3.16265153 7.85642735 1.875 5.5625 C1.52179688 4.94503906 1.16859375 4.32757813 0.8046875 3.69140625 C0 2 0 2 0 0 Z " fill="#5C4398" transform="translate(388,179)"/>
<path d="M0 0 C1.32 0 2.64 0 4 0 C4 1.32 4 2.64 4 4 C3.34 4 2.68 4 2 4 C1.67 4.66 1.34 5.32 1 6 C1 4.68 1 3.36 1 2 C0.34 1.67 -0.32 1.34 -1 1 C-0.67 0.67 -0.34 0.34 0 0 Z " fill="#D5C6EF" transform="translate(32,207)"/>
<path d="M0 0 C0.33 0 0.66 0 1 0 C1.66 2.31 2.32 4.62 3 7 C1.35 6.67 -0.3 6.34 -2 6 C-1.67 6.99 -1.34 7.98 -1 9 C-1.66 9 -2.32 9 -3 9 C-3 7.68 -3 6.36 -3 5 C-2.01 5 -1.02 5 0 5 C0 3.35 0 1.7 0 0 Z " fill="#DFD1F2" transform="translate(121,190)"/>
</svg>
